<mxfile host="app.diagrams.net" agent="Mozilla/5.0 (Windows NT 10.0; Win64; x64) AppleWebKit/537.36 (KHTML, like Gecko) Chrome/131.0.0.0 Safari/537.36" version="25.0.3">
  <diagram name="第 1 页" id="nFwgoHFkuPkQOTlbpiQr">
    <mxGraphModel dx="1050" dy="530" grid="1" gridSize="10" guides="1" tooltips="1" connect="1" arrows="1" fold="1" page="1" pageScale="1" pageWidth="827" pageHeight="1169" math="0" shadow="0">
      <root>
        <mxCell id="0" />
        <mxCell id="1" parent="0" />
        <UserObject label="" plantUmlData="{&quot;data&quot;:&quot;@startuml\nactor 游客\nactor 普通用户\nactor 管理员\n\nusecase \&quot;用户注册与登录\&quot; as UC1\nusecase \&quot;音乐播放\&quot; as UC2\nusecase \&quot;歌单管理\&quot; as UC3\nusecase \&quot;歌手查看\&quot; as UC4\nusecase \&quot;歌单评分\&quot; as UC5\nusecase \&quot;个人信息管理\&quot; as UC6\nusecase \&quot;歌曲搜索\&quot; as UC7\n\nusecase \&quot;歌手管理\&quot; as UC8\nusecase \&quot;歌曲上传\&quot; as UC9\nusecase \&quot;用户管理\&quot; as UC10\nusecase \&quot;歌单管理\&quot; as UC11\n\n游客 -- UC1\n游客 -- UC2\n游客 -- UC4\n游客 -- UC7\n\n普通用户 -- UC1\n普通用户 -- UC2\n普通用户 -- UC3\n普通用户 -- UC4\n普通用户 -- UC5\n普通用户 -- UC6\n普通用户 -- UC7\n\n管理员 -- UC8\n管理员 -- UC9\n管理员 -- UC10\n管理员 -- UC11\n\nUC3 -- (收藏)\nUC3 -- (评论)\n\n@enduml\n&quot;,&quot;format&quot;:&quot;svg&quot;}" id="4L9ICEicornQjW7cZm7l-1">
          <mxCell style="shape=image;noLabel=1;verticalAlign=top;aspect=fixed;imageAspect=0;image=data:image/svg+xml,PD94bWwgdmVyc2lvbj0iMS4wIiBlbmNvZGluZz0idXMtYXNjaWkiIHN0YW5kYWxvbmU9Im5vIj8+PHN2ZyB4bWxucz0iaHR0cDovL3d3dy53My5vcmcvMjAwMC9zdmciIHhtbG5zOnhsaW5rPSJodHRwOi8vd3d3LnczLm9yZy8xOTk5L3hsaW5rIiBjb250ZW50U3R5bGVUeXBlPSJ0ZXh0L2NzcyIgaGVpZ2h0PSIyNjZweCIgcHJlc2VydmVBc3BlY3RSYXRpbz0ibm9uZSIgc3R5bGU9IndpZHRoOjE1NDhweDtoZWlnaHQ6MjY2cHg7YmFja2dyb3VuZDojRkZGRkZGOyIgdmVyc2lvbj0iMS4xIiB2aWV3Qm94PSIwIDAgMTU0OCAyNjYiIHdpZHRoPSIxNTQ4cHgiIHpvb21BbmRQYW49Im1hZ25pZnkiPjxkZWZzLz48Zz48IS0tZW50aXR5ID8/LS0+PGcgaWQ9ImVsZW1fJiMyODIxNjsmIzIzNDU4OyI+PGVsbGlwc2UgY3g9IjI5MSIgY3k9IjE0IiBmaWxsPSIjRjFGMUYxIiByeD0iOCIgcnk9IjgiIHN0eWxlPSJzdHJva2U6IzE4MTgxODtzdHJva2Utd2lkdGg6MC41OyIvPjxwYXRoIGQ9Ik0yOTEsMjIgTDI5MSw0OSBNMjc4LDMwIEwzMDQsMzAgTTI5MSw0OSBMMjc4LDY0IE0yOTEsNDkgTDMwNCw2NCAiIGZpbGw9Im5vbmUiIHN0eWxlPSJzdHJva2U6IzE4MTgxODtzdHJva2Utd2lkdGg6MC41OyIvPjx0ZXh0IGZpbGw9IiMwMDAwMDAiIGZvbnQtZmFtaWx5PSJzYW5zLXNlcmlmIiBmb250LXNpemU9IjE0IiBsZW5ndGhBZGp1c3Q9InNwYWNpbmciIHRleHRMZW5ndGg9IjI4IiB4PSIyNzciIHk9Ijc4LjczNDQiPiYjMjgyMTY7JiMyMzQ1ODs8L3RleHQ+PC9nPjwhLS1lbnRpdHkgPz8/Py0tPjxnIGlkPSJlbGVtXyYjMjYyMjI7JiMzNjg5MDsmIzI5OTkyOyYjMjUxNDM7Ij48ZWxsaXBzZSBjeD0iNTA2IiBjeT0iMTQiIGZpbGw9IiNGMUYxRjEiIHJ4PSI4IiByeT0iOCIgc3R5bGU9InN0cm9rZTojMTgxODE4O3N0cm9rZS13aWR0aDowLjU7Ii8+PHBhdGggZD0iTTUwNiwyMiBMNTA2LDQ5IE00OTMsMzAgTDUxOSwzMCBNNTA2LDQ5IEw0OTMsNjQgTTUwNiw0OSBMNTE5LDY0ICIgZmlsbD0ibm9uZSIgc3R5bGU9InN0cm9rZTojMTgxODE4O3N0cm9rZS13aWR0aDowLjU7Ii8+PHRleHQgZmlsbD0iIzAwMDAwMCIgZm9udC1mYW1pbHk9InNhbnMtc2VyaWYiIGZvbnQtc2l6ZT0iMTQiIGxlbmd0aEFkanVzdD0ic3BhY2luZyIgdGV4dExlbmd0aD0iNTYiIHg9IjQ3OCIgeT0iNzguNzM0NCI+JiMyNjIyMjsmIzM2ODkwOyYjMjk5OTI7JiMyNTE0Mzs8L3RleHQ+PC9nPjwhLS1lbnRpdHkgPz8/LS0+PGcgaWQ9ImVsZW1fJiMzMTY0OTsmIzI5NzAyOyYjMjE1OTI7Ij48ZWxsaXBzZSBjeD0iMTI4NSIgY3k9IjE0IiBmaWxsPSIjRjFGMUYxIiByeD0iOCIgcnk9IjgiIHN0eWxlPSJzdHJva2U6IzE4MTgxODtzdHJva2Utd2lkdGg6MC41OyIvPjxwYXRoIGQ9Ik0xMjg1LDIyIEwxMjg1LDQ5IE0xMjcyLDMwIEwxMjk4LDMwIE0xMjg1LDQ5IEwxMjcyLDY0IE0xMjg1LDQ5IEwxMjk4LDY0ICIgZmlsbD0ibm9uZSIgc3R5bGU9InN0cm9rZTojMTgxODE4O3N0cm9rZS13aWR0aDowLjU7Ii8+PHRleHQgZmlsbD0iIzAwMDAwMCIgZm9udC1mYW1pbHk9InNhbnMtc2VyaWYiIGZvbnQtc2l6ZT0iMTQiIGxlbmd0aEFkanVzdD0ic3BhY2luZyIgdGV4dExlbmd0aD0iNDIiIHg9IjEyNjQiIHk9Ijc4LjczNDQiPiYjMzE2NDk7JiMyOTcwMjsmIzIxNTkyOzwvdGV4dD48L2c+PGcgaWQ9ImVsZW1fVUMxIj48ZWxsaXBzZSBjeD0iMjEzLjA0NTYiIGN5PSIxNTYuODA5MSIgZmlsbD0iI0YxRjFGMSIgcng9IjY5LjU0NTYiIHJ5PSIxNi4zMDkxIiBzdHlsZT0ic3Ryb2tlOiMxODE4MTg7c3Ryb2tlLXdpZHRoOjAuNTsiLz48dGV4dCBmaWxsPSIjMDAwMDAwIiBmb250LWZhbWlseT0ic2Fucy1zZXJpZiIgZm9udC1zaXplPSIxNCIgbGVuZ3RoQWRqdXN0PSJzcGFjaW5nIiB0ZXh0TGVuZ3RoPSI5OCIgeD0iMTY0LjA0NTYiIHk9IjE2MC41NTEzIj4mIzI5OTkyOyYjMjUxNDM7JiMyNzg4MDsmIzIwODc2OyYjMTk5ODI7JiMzMDMzMTsmIzI0NDA1OzwvdGV4dD48L2c+PGcgaWQ9ImVsZW1fVUMyIj48ZWxsaXBzZSBjeD0iMzY5LjA4MzMiIGN5PSIxNTcuMDk1NiIgZmlsbD0iI0YxRjFGMSIgcng9IjUxLjA4MzMiIHJ5PSIxMy41OTU2IiBzdHlsZT0ic3Ryb2tlOiMxODE4MTg7c3Ryb2tlLXdpZHRoOjAuNTsiLz48dGV4dCBmaWxsPSIjMDAwMDAwIiBmb250LWZhbWlseT0ic2Fucy1zZXJpZiIgZm9udC1zaXplPSIxNCIgbGVuZ3RoQWRqdXN0PSJzcGFjaW5nIiB0ZXh0TGVuZ3RoPSI1NiIgeD0iMzQxLjA4MzMiIHk9IjE2MC44Mzc3Ij4mIzM4ODk5OyYjMjAwNDg7JiMyNTc3MzsmIzI1OTE4OzwvdGV4dD48L2c+PGcgaWQ9ImVsZW1fVUMzIj48ZWxsaXBzZSBjeD0iNjQzLjA4MzMiIGN5PSIxNTcuMDk1NiIgZmlsbD0iI0YxRjFGMSIgcng9IjUxLjA4MzMiIHJ5PSIxMy41OTU2IiBzdHlsZT0ic3Ryb2tlOiMxODE4MTg7c3Ryb2tlLXdpZHRoOjAuNTsiLz48dGV4dCBmaWxsPSIjMDAwMDAwIiBmb250LWZhbWlseT0ic2Fucy1zZXJpZiIgZm9udC1zaXplPSIxNCIgbGVuZ3RoQWRqdXN0PSJzcGFjaW5nIiB0ZXh0TGVuZ3RoPSI1NiIgeD0iNjE1LjA4MzMiIHk9IjE2MC44Mzc3Ij4mIzI3NDY4OyYjMjEzMzM7JiMzMTY0OTsmIzI5NzAyOzwvdGV4dD48L2c+PGcgaWQ9ImVsZW1fVUM0Ij48ZWxsaXBzZSBjeD0iNTA2LjA4MzMiIGN5PSIxNTcuMDk1NiIgZmlsbD0iI0YxRjFGMSIgcng9IjUxLjA4MzMiIHJ5PSIxMy41OTU2IiBzdHlsZT0ic3Ryb2tlOiMxODE4MTg7c3Ryb2tlLXdpZHRoOjAuNTsiLz48dGV4dCBmaWxsPSIjMDAwMDAwIiBmb250LWZhbWlseT0ic2Fucy1zZXJpZiIgZm9udC1zaXplPSIxNCIgbGVuZ3RoQWRqdXN0PSJzcGFjaW5nIiB0ZXh0TGVuZ3RoPSI1NiIgeD0iNDc4LjA4MzMiIHk9IjE2MC44Mzc3Ij4mIzI3NDY4OyYjMjUxNjM7JiMyNjU5NzsmIzMwNDc1OzwvdGV4dD48L2c+PGcgaWQ9ImVsZW1fVUM1Ij48ZWxsaXBzZSBjeD0iNzgwLjA4MzMiIGN5PSIxNTcuMDk1NiIgZmlsbD0iI0YxRjFGMSIgcng9IjUxLjA4MzMiIHJ5PSIxMy41OTU2IiBzdHlsZT0ic3Ryb2tlOiMxODE4MTg7c3Ryb2tlLXdpZHRoOjAuNTsiLz48dGV4dCBmaWxsPSIjMDAwMDAwIiBmb250LWZhbWlseT0ic2Fucy1zZXJpZiIgZm9udC1zaXplPSIxNCIgbGVuZ3RoQWRqdXN0PSJzcGFjaW5nIiB0ZXh0TGVuZ3RoPSI1NiIgeD0iNzUyLjA4MzMiIHk9IjE2MC44Mzc3Ij4mIzI3NDY4OyYjMjEzMzM7JiMzNTc4MDsmIzIwOTk4OzwvdGV4dD48L2c+PGcgaWQ9ImVsZW1fVUM2Ij48ZWxsaXBzZSBjeD0iOTI5Ljg4NzgiIGN5PSIxNTcuMTc3NiIgZmlsbD0iI0YxRjFGMSIgcng9IjYzLjg4NzgiIHJ5PSIxNS4xNzc2IiBzdHlsZT0ic3Ryb2tlOiMxODE4MTg7c3Ryb2tlLXdpZHRoOjAuNTsiLz48dGV4dCBmaWxsPSIjMDAwMDAwIiBmb250LWZhbWlseT0ic2Fucy1zZXJpZiIgZm9udC1zaXplPSIxNCIgbGVuZ3RoQWRqdXN0PSJzcGFjaW5nIiB0ZXh0TGVuZ3RoPSI4NCIgeD0iODg3Ljg4NzgiIHk9IjE2MC45MTk3Ij4mIzIwMDEwOyYjMjAxNTQ7JiMyMDQ0OTsmIzI0Njg3OyYjMzE2NDk7JiMyOTcwMjs8L3RleHQ+PC9nPjxnIGlkPSJlbGVtX1VDNyI+PGVsbGlwc2UgY3g9IjU3LjA4MzMiIGN5PSIxNTcuMDk1NiIgZmlsbD0iI0YxRjFGMSIgcng9IjUxLjA4MzMiIHJ5PSIxMy41OTU2IiBzdHlsZT0ic3Ryb2tlOiMxODE4MTg7c3Ryb2tlLXdpZHRoOjAuNTsiLz48dGV4dCBmaWxsPSIjMDAwMDAwIiBmb250LWZhbWlseT0ic2Fucy1zZXJpZiIgZm9udC1zaXplPSIxNCIgbGVuZ3RoQWRqdXN0PSJzcGFjaW5nIiB0ZXh0TGVuZ3RoPSI1NiIgeD0iMjkuMDgzMyIgeT0iMTYwLjgzNzciPiYjMjc0Njg7JiMyNjM1NDsmIzI1NjI4OyYjMzIwMzQ7PC90ZXh0PjwvZz48ZyBpZD0iZWxlbV9VQzgiPjxlbGxpcHNlIGN4PSIxMDgwLjA4MzMiIGN5PSIxNTcuMDk1NiIgZmlsbD0iI0YxRjFGMSIgcng9IjUxLjA4MzMiIHJ5PSIxMy41OTU2IiBzdHlsZT0ic3Ryb2tlOiMxODE4MTg7c3Ryb2tlLXdpZHRoOjAuNTsiLz48dGV4dCBmaWxsPSIjMDAwMDAwIiBmb250LWZhbWlseT0ic2Fucy1zZXJpZiIgZm9udC1zaXplPSIxNCIgbGVuZ3RoQWRqdXN0PSJzcGFjaW5nIiB0ZXh0TGVuZ3RoPSI1NiIgeD0iMTA1Mi4wODMzIiB5PSIxNjAuODM3NyI+JiMyNzQ2ODsmIzI1MTYzOyYjMzE2NDk7JiMyOTcwMjs8L3RleHQ+PC9nPjxnIGlkPSJlbGVtX1VDOSI+PGVsbGlwc2UgY3g9IjEyMTcuMDgzMyIgY3k9IjE1Ny4wOTU2IiBmaWxsPSIjRjFGMUYxIiByeD0iNTEuMDgzMyIgcnk9IjEzLjU5NTYiIHN0eWxlPSJzdHJva2U6IzE4MTgxODtzdHJva2Utd2lkdGg6MC41OyIvPjx0ZXh0IGZpbGw9IiMwMDAwMDAiIGZvbnQtZmFtaWx5PSJzYW5zLXNlcmlmIiBmb250LXNpemU9IjE0IiBsZW5ndGhBZGp1c3Q9InNwYWNpbmciIHRleHRMZW5ndGg9IjU2IiB4PSIxMTg5LjA4MzMiIHk9IjE2MC44Mzc3Ij4mIzI3NDY4OyYjMjYzNTQ7JiMxOTk3ODsmIzIwMjU2OzwvdGV4dD48L2c+PGcgaWQ9ImVsZW1fVUMxMCI+PGVsbGlwc2UgY3g9IjEzNTQuMDgzMyIgY3k9IjE1Ny4wOTU2IiBmaWxsPSIjRjFGMUYxIiByeD0iNTEuMDgzMyIgcnk9IjEzLjU5NTYiIHN0eWxlPSJzdHJva2U6IzE4MTgxODtzdHJva2Utd2lkdGg6MC41OyIvPjx0ZXh0IGZpbGw9IiMwMDAwMDAiIGZvbnQtZmFtaWx5PSJzYW5zLXNlcmlmIiBmb250LXNpemU9IjE0IiBsZW5ndGhBZGp1c3Q9InNwYWNpbmciIHRleHRMZW5ndGg9IjU2IiB4PSIxMzI2LjA4MzMiIHk9IjE2MC44Mzc3Ij4mIzI5OTkyOyYjMjUxNDM7JiMzMTY0OTsmIzI5NzAyOzwvdGV4dD48L2c+PGcgaWQ9ImVsZW1fVUMxMSI+PGVsbGlwc2UgY3g9IjE0OTEuMDgzMyIgY3k9IjE1Ny4wOTU2IiBmaWxsPSIjRjFGMUYxIiByeD0iNTEuMDgzMyIgcnk9IjEzLjU5NTYiIHN0eWxlPSJzdHJva2U6IzE4MTgxODtzdHJva2Utd2lkdGg6MC41OyIvPjx0ZXh0IGZpbGw9IiMwMDAwMDAiIGZvbnQtZmFtaWx5PSJzYW5zLXNlcmlmIiBmb250LXNpemU9IjE0IiBsZW5ndGhBZGp1c3Q9InNwYWNpbmciIHRleHRMZW5ndGg9IjU2IiB4PSIxNDYzLjA4MzMiIHk9IjE2MC44Mzc3Ij4mIzI3NDY4OyYjMjEzMzM7JiMzMTY0OTsmIzI5NzAyOzwvdGV4dD48L2c+PGcgaWQ9ImVsZW1fJiMyNTkxMDsmIzM0MjU1OyI+PGVsbGlwc2UgY3g9IjU5My43ODQzIiBjeT0iMjQ3LjA5NTYiIGZpbGw9IiNGMUYxRjEiIHJ4PSIzMS4yODQzIiByeT0iMTMuNTk1NiIgc3R5bGU9InN0cm9rZTojMTgxODE4O3N0cm9rZS13aWR0aDowLjU7Ii8+PHRleHQgZmlsbD0iIzAwMDAwMCIgZm9udC1mYW1pbHk9InNhbnMtc2VyaWYiIGZvbnQtc2l6ZT0iMTQiIGxlbmd0aEFkanVzdD0ic3BhY2luZyIgdGV4dExlbmd0aD0iMjgiIHg9IjU3OS43ODQzIiB5PSIyNTAuODM3NyI+JiMyNTkxMDsmIzM0MjU1OzwvdGV4dD48L2c+PGcgaWQ9ImVsZW1fJiMzNTc4MDsmIzM1NzcwOyI+PGVsbGlwc2UgY3g9IjY5MS43ODQzIiBjeT0iMjQ3LjA5NTYiIGZpbGw9IiNGMUYxRjEiIHJ4PSIzMS4yODQzIiByeT0iMTMuNTk1NiIgc3R5bGU9InN0cm9rZTojMTgxODE4O3N0cm9rZS13aWR0aDowLjU7Ii8+PHRleHQgZmlsbD0iIzAwMDAwMCIgZm9udC1mYW1pbHk9InNhbnMtc2VyaWYiIGZvbnQtc2l6ZT0iMTQiIGxlbmd0aEFkanVzdD0ic3BhY2luZyIgdGV4dExlbmd0aD0iMjgiIHg9IjY3Ny43ODQzIiB5PSIyNTAuODM3NyI+JiMzNTc4MDsmIzM1NzcwOzwvdGV4dD48L2c+PCEtLWxpbmsgPz8gdG8gVUMxLS0+PGcgaWQ9ImxpbmtfJiMyODIxNjsmIzIzNDU4O19VQzEiPjxwYXRoIGQ9Ik0yNzYuODcsNjQuMjggQzI2MS42LDg2LjIyIDIzNy41OCwxMjAuNzEgMjIzLjc2LDE0MC41NSAiIGZpbGw9Im5vbmUiIGlkPSImIzI4MjE2OyYjMjM0NTg7LVVDMSIgc3R5bGU9InN0cm9rZTojMTgxODE4O3N0cm9rZS13aWR0aDoxLjA7Ii8+PC9nPjwhLS1saW5rID8/IHRvIFVDMi0tPjxnIGlkPSJsaW5rXyYjMjgyMTY7JiMyMzQ1ODtfVUMyIj48cGF0aCBkPSJNMzA1LjEzLDY0LjI4IEMzMjEuMTksODcuMzUgMzQ2LjkzLDEyNC4zMSAzNjAuMywxNDMuNTEgIiBmaWxsPSJub25lIiBpZD0iJiMyODIxNjsmIzIzNDU4Oy1VQzIiIHN0eWxlPSJzdHJva2U6IzE4MTgxODtzdHJva2Utd2lkdGg6MS4wOyIvPjwvZz48IS0tbGluayA/PyB0byBVQzQtLT48ZyBpZD0ibGlua18mIzI4MjE2OyYjMjM0NTg7X1VDNCI+PHBhdGggZD0iTTMwNS4xMSw1MS4zNSBDMzQxLjczLDcwLjQzIDQ0MC4wMywxMjEuNjQgNDg0LjEsMTQ0LjU5ICIgZmlsbD0ibm9uZSIgaWQ9IiYjMjgyMTY7JiMyMzQ1ODstVUM0IiBzdHlsZT0ic3Ryb2tlOiMxODE4MTg7c3Ryb2tlLXdpZHRoOjEuMDsiLz48L2c+PCEtLWxpbmsgPz8gdG8gVUM3LS0+PGcgaWQ9ImxpbmtfJiMyODIxNjsmIzIzNDU4O19VQzciPjxwYXRoIGQ9Ik0yNzYuNzEsNTAuODQgQzIzNy42Miw2OS41NSAxMjguNTgsMTIxLjc0IDgwLjQsMTQ0LjggIiBmaWxsPSJub25lIiBpZD0iJiMyODIxNjsmIzIzNDU4Oy1VQzciIHN0eWxlPSJzdHJva2U6IzE4MTgxODtzdHJva2Utd2lkdGg6MS4wOyIvPjwvZz48IS0tbGluayA/Pz8/IHRvIFVDMS0tPjxnIGlkPSJsaW5rXyYjMjYyMjI7JiMzNjg5MDsmIzI5OTkyOyYjMjUxNDM7X1VDMSI+PHBhdGggZD0iTTQ3Ny45MSw1NC43NCBDNDI0LjE5LDc1LjI3IDMwNy4wNSwxMjAuMDUgMjQ4LjIxLDE0Mi41NCAiIGZpbGw9Im5vbmUiIGlkPSImIzI2MjIyOyYjMzY4OTA7JiMyOTk5MjsmIzI1MTQzOy1VQzEiIHN0eWxlPSJzdHJva2U6IzE4MTgxODtzdHJva2Utd2lkdGg6MS4wOyIvPjwvZz48IS0tbGluayA/Pz8/IHRvIFVDMi0tPjxnIGlkPSJsaW5rXyYjMjYyMjI7JiMzNjg5MDsmIzI5OTkyOyYjMjUxNDM7X1VDMiI+PHBhdGggZD0iTTQ3Ny45NSw2Ni45NCBDNDQ5LjQ1LDkwLjIzIDQwNi40MSwxMjUuNDIgMzgzLjksMTQzLjgyICIgZmlsbD0ibm9uZSIgaWQ9IiYjMjYyMjI7JiMzNjg5MDsmIzI5OTkyOyYjMjUxNDM7LVVDMiIgc3R5bGU9InN0cm9rZTojMTgxODE4O3N0cm9rZS13aWR0aDoxLjA7Ii8+PC9nPjwhLS1saW5rID8/Pz8gdG8gVUMzLS0+PGcgaWQ9ImxpbmtfJiMyNjIyMjsmIzM2ODkwOyYjMjk5OTI7JiMyNTE0MztfVUMzIj48cGF0aCBkPSJNNTM0LjA1LDY2Ljk0IEM1NjIuNTUsOTAuMjMgNjA1LjU5LDEyNS40MiA2MjguMSwxNDMuODIgIiBmaWxsPSJub25lIiBpZD0iJiMyNjIyMjsmIzM2ODkwOyYjMjk5OTI7JiMyNTE0MzstVUMzIiBzdHlsZT0ic3Ryb2tlOiMxODE4MTg7c3Ryb2tlLXdpZHRoOjEuMDsiLz48L2c+PCEtLWxpbmsgPz8/PyB0byBVQzQtLT48ZyBpZD0ibGlua18mIzI2MjIyOyYjMzY4OTA7JiMyOTk5MjsmIzI1MTQzO19VQzQiPjxwYXRoIGQ9Ik01MDYsODAuNjcgQzUwNiwxMDIuMjQgNTA2LDEyOC4xNiA1MDYsMTQzLjI5ICIgZmlsbD0ibm9uZSIgaWQ9IiYjMjYyMjI7JiMzNjg5MDsmIzI5OTkyOyYjMjUxNDM7LVVDNCIgc3R5bGU9InN0cm9rZTojMTgxODE4O3N0cm9rZS13aWR0aDoxLjA7Ii8+PC9nPjwhLS1saW5rID8/Pz8gdG8gVUM1LS0+PGcgaWQ9ImxpbmtfJiMyNjIyMjsmIzM2ODkwOyYjMjk5OTI7JiMyNTE0MztfVUM1Ij48cGF0aCBkPSJNNTM0LjA0LDU1LjQ2IEM1ODcuMjMsNzcuMiA3MDIuMSwxMjQuMTYgNzUzLjgyLDE0NS4zICIgZmlsbD0ibm9uZSIgaWQ9IiYjMjYyMjI7JiMzNjg5MDsmIzI5OTkyOyYjMjUxNDM7LVVDNSIgc3R5bGU9InN0cm9rZTojMTgxODE4O3N0cm9rZS13aWR0aDoxLjA7Ii8+PC9nPjwhLS1saW5rID8/Pz8gdG8gVUM2LS0+PGcgaWQ9ImxpbmtfJiMyNjIyMjsmIzM2ODkwOyYjMjk5OTI7JiMyNTE0MztfVUM2Ij48cGF0aCBkPSJNNTM0LjE1LDUxLjQ0IEM2MDcuMzksNzAuNzggODA0LjE0LDEyMi43NSA4ODkuNTMsMTQ1LjMxICIgZmlsbD0ibm9uZSIgaWQ9IiYjMjYyMjI7JiMzNjg5MDsmIzI5OTkyOyYjMjUxNDM7LVVDNiIgc3R5bGU9InN0cm9rZTojMTgxODE4O3N0cm9rZS13aWR0aDoxLjA7Ii8+PC9nPjwhLS1saW5rID8/Pz8gdG8gVUM3LS0+PGcgaWQ9ImxpbmtfJiMyNjIyMjsmIzM2ODkwOyYjMjk5OTI7JiMyNTE0MztfVUM3Ij48cGF0aCBkPSJNNDc3LjkxLDUxLjAxIEMzOTkuNTgsNzAuNTUgMTc4LjgxLDEyNS42MiA5Mi4zNSwxNDcuMTggIiBmaWxsPSJub25lIiBpZD0iJiMyNjIyMjsmIzM2ODkwOyYjMjk5OTI7JiMyNTE0MzstVUM3IiBzdHlsZT0ic3Ryb2tlOiMxODE4MTg7c3Ryb2tlLXdpZHRoOjEuMDsiLz48L2c+PCEtLWxpbmsgPz8/IHRvIFVDOC0tPjxnIGlkPSJsaW5rXyYjMzE2NDk7JiMyOTcwMjsmIzIxNTkyO19VQzgiPjxwYXRoIGQ9Ik0xMjYzLjgzLDU1LjU2IEMxMjI0LjM1LDc3LjE0IDExMzkuOTEsMTIzLjI3IDExMDAuNzUsMTQ0LjY3ICIgZmlsbD0ibm9uZSIgaWQ9IiYjMzE2NDk7JiMyOTcwMjsmIzIxNTkyOy1VQzgiIHN0eWxlPSJzdHJva2U6IzE4MTgxODtzdHJva2Utd2lkdGg6MS4wOyIvPjwvZz48IS0tbGluayA/Pz8gdG8gVUM5LS0+PGcgaWQ9ImxpbmtfJiMzMTY0OTsmIzI5NzAyOyYjMjE1OTI7X1VDOSI+PHBhdGggZD0iTTEyNjMuODYsNzguODIgQzEyNTAuNTIsMTAwLjc4IDEyMzQuMSwxMjcuODQgMTIyNC42NiwxNDMuMzkgIiBmaWxsPSJub25lIiBpZD0iJiMzMTY0OTsmIzI5NzAyOyYjMjE1OTI7LVVDOSIgc3R5bGU9InN0cm9rZTojMTgxODE4O3N0cm9rZS13aWR0aDoxLjA7Ii8+PC9nPjwhLS1saW5rID8/PyB0byBVQzEwLS0+PGcgaWQ9ImxpbmtfJiMzMTY0OTsmIzI5NzAyOyYjMjE1OTI7X1VDMTAiPjxwYXRoIGQ9Ik0xMzA2LjA4LDc4LjIxIEMxMzE5LjcxLDEwMC4zNCAxMzM2LjY2LDEyNy44NSAxMzQ2LjMxLDE0My41MiAiIGZpbGw9Im5vbmUiIGlkPSImIzMxNjQ5OyYjMjk3MDI7JiMyMTU5MjstVUMxMCIgc3R5bGU9InN0cm9rZTojMTgxODE4O3N0cm9rZS13aWR0aDoxLjA7Ii8+PC9nPjwhLS1saW5rID8/PyB0byBVQzExLS0+PGcgaWQ9ImxpbmtfJiMzMTY0OTsmIzI5NzAyOyYjMjE1OTI7X1VDMTEiPjxwYXRoIGQ9Ik0xMzA2LjI3LDU1LjU2IEMxMzQ1Ljk1LDc3LjE0IDE0MzAuOCwxMjMuMjcgMTQ3MC4xNSwxNDQuNjcgIiBmaWxsPSJub25lIiBpZD0iJiMzMTY0OTsmIzI5NzAyOyYjMjE1OTI7LVVDMTEiIHN0eWxlPSJzdHJva2U6IzE4MTgxODtzdHJva2Utd2lkdGg6MS4wOyIvPjwvZz48IS0tbGluayBVQzMgdG8gPz8tLT48ZyBpZD0ibGlua19VQzNfJiMyNTkxMDsmIzM0MjU1OyI+PHBhdGggZD0iTTYzNS45OCwxNzAuNjEgQzYyNi42MSwxODcuNDMgNjEwLjEzLDIxNy4wMyA2MDAuODUsMjMzLjcgIiBmaWxsPSJub25lIiBpZD0iVUMzLSYjMjU5MTA7JiMzNDI1NTsiIHN0eWxlPSJzdHJva2U6IzE4MTgxODtzdHJva2Utd2lkdGg6MS4wOyIvPjwvZz48IS0tbGluayBVQzMgdG8gPz8tLT48ZyBpZD0ibGlua19VQzNfJiMzNTc4MDsmIzM1NzcwOyI+PHBhdGggZD0iTTY1MC4wMiwxNzAuNjEgQzY1OS4zOSwxODcuNDMgNjc1Ljg3LDIxNy4wMyA2ODUuMTUsMjMzLjcgIiBmaWxsPSJub25lIiBpZD0iVUMzLSYjMzU3ODA7JiMzNTc3MDsiIHN0eWxlPSJzdHJva2U6IzE4MTgxODtzdHJva2Utd2lkdGg6MS4wOyIvPjwvZz48IS0tU1JDPVtJcW1rb0l6SVVCUFpuekRyWXhXSThQb1B3cnVzcDdlLVBTTXBaa3JHZVVWaDVad1ZxRlBxdVdta2hqQllyRUo0dWJHNTlPWTJQdmpORjZ0aFVSQVp4X2RDdEtfdEpiTElJMm5NMjdLc0gyWHhFTl9wYXZxSmRhclEtc3BBRmdZaTRLQnNzVGdVZnhySjhTUDNQT3JIUDl6clRaLVJsX0p2ZDZ3ZWgwY3d0WFZoTXZ2c21GSVE4Y0lWeDVaclBEVWs5X2lORmNqU1pzQS02UWh2aXBTemNwM2QtUFA1SzVicEJkSmhLSkhSZTZqLWlnRmhvUHU1SzViQnpEMTFxTWplV0RWVlhlUFNOOTF1S0QzTDFPU1hDaXk4WE1VMm1XRXc2SmRFdURlbm44b21ZMWJaNEpGMThjUUFIU21DWW5aR0NWM0swWDZuRzFVbUgxUzBYV293MjMwbVc2dTNTSklVSlRkc09kZ185Zm1GWkY0Tnd0UGYwVzAwXS0tPjwvZz48L3N2Zz4=;" parent="1" vertex="1">
            <mxGeometry y="210" width="1548" height="266" as="geometry" />
          </mxCell>
        </UserObject>
        <UserObject label="" plantUmlData="{&quot;data&quot;:&quot;@startuml\nclass Admin {\n    + id: int\n    + name: varchar(45)\n    + password: varchar(45)\n}\n\nclass Banner {\n    + id: int\n    + pic: varchar(255)\n}\n\nclass Consumer {\n    + id: int\n    + username: varchar(255)\n    + password: varchar(100)\n    + sex: tinyint\n    + phone_num: varchar(15)\n    + email: char(30)\n    + birth: datetime\n    + location: varchar(45)\n    + avatar: varchar(255)\n    + create_time: datetime\n    + update_time: datetime\n}\n\nclass Singer {\n    + id: int\n    + name: varchar(45)\n    + sex: tinyint\n    + pic: varchar(255)\n    + birth: datetime\n    + location: varchar(45)\n    + introduction: varchar(255)\n}\n\nclass Song {\n    + id: int\n    + singer_id: int\n    + name: varchar(45)\n    + introduction: text\n    + create_time: datetime\n    + update_time: datetime\n    + pic: varchar(255)\n    + lyric: text\n    + url: varchar(255)\n}\n\nclass SongList {\n    + id: int\n    + title: varchar(255)\n    + pic: varchar(255)\n    + introduction: text\n    + style: varchar(10)\n}\n\nclass Comment {\n    + id: int\n    + user_id: int\n    + song_id: int\n    + song_list_id: int\n    + content: varchar(255)\n    + create_time: datetime\n    + type: tinyint\n    + up: int\n}\n\nclass RankList {\n    + id: bigint\n    + song_list_id: bigint\n    + consumer_id: bigint\n    + score: int\n}\n\nclass Collect {\n    + id: int\n    + user_id: int\n    + song_id: int\n    + song_list_id: int\n    + type: tinyint\n    + create_time: datetime\n}\n\nclass ListSong {\n    + id: int\n    + song_id: int\n    + song_list_id: int\n}\n\nclass UserSupport {\n    + id: int\n    + comment_id: int\n    + user_id: varchar(45)\n}\n\nConsumer --&gt; Comment : \&quot;1..*\&quot;\nConsumer --&gt; Collect : \&quot;1..*\&quot;\nConsumer --&gt; RankList : \&quot;1..*\&quot;\nConsumer --&gt; UserSupport : \&quot;1..*\&quot;\n\nSongList --&gt; Comment : \&quot;1..*\&quot;\nSongList --&gt; RankList : \&quot;1..*\&quot;\nSongList --&gt; Collect : \&quot;1..*\&quot;\nSongList --&gt; ListSong : \&quot;1..*\&quot;\n\nSong --&gt; Comment : \&quot;1..*\&quot;\nSong --&gt; Collect : \&quot;1..*\&quot;\nSong --&gt; Singer : \&quot;1\&quot;\nSong --&gt; ListSong : \&quot;1..*\&quot;\n\nAdmin --&gt; Banner : \&quot;1..*\&quot;\n@enduml\n&quot;,&quot;format&quot;:&quot;svg&quot;}" id="4L9ICEicornQjW7cZm7l-2">
          <mxCell style="shape=image;noLabel=1;verticalAlign=top;aspect=fixed;imageAspect=0;image=data:image/svg+xml,PD94bWwgdmVyc2lvbj0iMS4wIiBlbmNvZGluZz0idXMtYXNjaWkiIHN0YW5kYWxvbmU9Im5vIj8+PHN2ZyB4bWxucz0iaHR0cDovL3d3dy53My5vcmcvMjAwMC9zdmciIHhtbG5zOnhsaW5rPSJodHRwOi8vd3d3LnczLm9yZy8xOTk5L3hsaW5rIiBjb250ZW50U3R5bGVUeXBlPSJ0ZXh0L2NzcyIgaGVpZ2h0PSI0NjlweCIgcHJlc2VydmVBc3BlY3RSYXRpbz0ibm9uZSIgc3R5bGU9IndpZHRoOjE0MjZweDtoZWlnaHQ6NDY5cHg7YmFja2dyb3VuZDojRkZGRkZGOyIgdmVyc2lvbj0iMS4xIiB2aWV3Qm94PSIwIDAgMTQyNiA0NjkiIHdpZHRoPSIxNDI2cHgiIHpvb21BbmRQYW49Im1hZ25pZnkiPjxkZWZzLz48Zz48IS0tY2xhc3MgQWRtaW4tLT48ZyBpZD0iZWxlbV9BZG1pbiI+PHJlY3QgY29kZUxpbmU9IjEiIGZpbGw9IiNGMUYxRjEiIGhlaWdodD0iOTIuOTUzMSIgaWQ9IkFkbWluIiByeD0iMi41IiByeT0iMi41IiBzdHlsZT0ic3Ryb2tlOiMxODE4MTg7c3Ryb2tlLXdpZHRoOjAuNTsiIHdpZHRoPSIxNzYiIHg9IjciIHk9IjY3Ii8+PGVsbGlwc2UgY3g9IjcyLjc1IiBjeT0iODMiIGZpbGw9IiNBREQxQjIiIHJ4PSIxMSIgcnk9IjExIiBzdHlsZT0ic3Ryb2tlOiMxODE4MTg7c3Ryb2tlLXdpZHRoOjEuMDsiLz48cGF0aCBkPSJNNzAuMzc1LDg3LjI1IEw3MC4zNzUsODkgTDc1LjMxMjUsODkgTDc1LjMxMjUsODcuMjUgTDcwLjM3NSw4Ny4yNSBaIE03MS4wNjI1LDg3LjkzNzUgUTcxLjA2MjUsODcuOTM3NSA3MS4wNjI1LDc4Ljc1IEw2OS4zMTI1LDc4Ljc1IFE2OS4zMTI1LDc4Ljc1IDY5LjMxMjUsODcuOTM3NSBMNzEuMDYyNSw4Ny45Mzc1IFogTTc0LjYyNSw4Ny45Mzc1IEw3Ni4zNzUsODcuOTM3NSBRNzYuMzc1LDg3LjkzNzUgNzYuMzc1LDg1LjEyNSBMNzQuNjI1LDg1LjEyNSBRNzQuNjI1LDg1LjEyNSA3NC42MjUsODcuOTM3NSBaIE03NC42MjUsNzguNzUgUTc0LjYyNSw3OC43NSA3NC42MjUsODEuNTYyNSBMNzYuMzc1LDgxLjU2MjUgUTc2LjM3NSw4MS41NjI1IDc2LjM3NSw3OC43NSBMNzQuNjI1LDc4Ljc1IFogTTcwLjM3NSw3OS40Mzc1IEw3NS4zMTI1LDc5LjQzNzUgTDc1LjMxMjUsNzcuNjg3NSBMNzAuMzc1LDc3LjY4NzUgTDcwLjM3NSw3OS40Mzc1IFogIiBmaWxsPSIjMDAwMDAwIi8+PHRleHQgZmlsbD0iIzAwMDAwMCIgZm9udC1mYW1pbHk9InNhbnMtc2VyaWYiIGZvbnQtc2l6ZT0iMTQiIGxlbmd0aEFkanVzdD0ic3BhY2luZyIgdGV4dExlbmd0aD0iMzYiIHg9IjkzLjI1IiB5PSI4OC43NDIyIj5BZG1pbjwvdGV4dD48bGluZSBzdHlsZT0ic3Ryb2tlOiMxODE4MTg7c3Ryb2tlLXdpZHRoOjAuNTsiIHgxPSI4IiB4Mj0iMTgyIiB5MT0iOTkiIHkyPSI5OSIvPjxlbGxpcHNlIGN4PSIxOCIgY3k9IjExMS45OTIyIiBmaWxsPSJub25lIiByeD0iMyIgcnk9IjMiIHN0eWxlPSJzdHJva2U6IzAzODA0ODtzdHJva2Utd2lkdGg6MS4wOyIvPjx0ZXh0IGZpbGw9IiMwMDAwMDAiIGZvbnQtZmFtaWx5PSJzYW5zLXNlcmlmIiBmb250LXNpemU9IjE0IiBsZW5ndGhBZGp1c3Q9InNwYWNpbmciIHRleHRMZW5ndGg9IjQ5IiB4PSIyNyIgeT0iMTE2LjIzNDQiPmlkOiBpbnQ8L3RleHQ+PGxpbmUgc3R5bGU9InN0cm9rZTojMTgxODE4O3N0cm9rZS13aWR0aDowLjU7IiB4MT0iOCIgeDI9IjE4MiIgeTE9IjEyMS45ODQ0IiB5Mj0iMTIxLjk4NDQiLz48ZWxsaXBzZSBjeD0iMTgiIGN5PSIxMzQuOTc2NiIgZmlsbD0iIzg0QkU4NCIgcng9IjMiIHJ5PSIzIiBzdHlsZT0ic3Ryb2tlOiMwMzgwNDg7c3Ryb2tlLXdpZHRoOjEuMDsiLz48dGV4dCBmaWxsPSIjMDAwMDAwIiBmb250LWZhbWlseT0ic2Fucy1zZXJpZiIgZm9udC1zaXplPSIxNCIgbGVuZ3RoQWRqdXN0PSJzcGFjaW5nIiB0ZXh0TGVuZ3RoPSIxMjIiIHg9IjI3IiB5PSIxMzkuMjE4OCI+bmFtZTogdmFyY2hhcig0NSk8L3RleHQ+PGVsbGlwc2UgY3g9IjE4IiBjeT0iMTQ5Ljk2MDkiIGZpbGw9IiM4NEJFODQiIHJ4PSIzIiByeT0iMyIgc3R5bGU9InN0cm9rZTojMDM4MDQ4O3N0cm9rZS13aWR0aDoxLjA7Ii8+PHRleHQgZmlsbD0iIzAwMDAwMCIgZm9udC1mYW1pbHk9InNhbnMtc2VyaWYiIGZvbnQtc2l6ZT0iMTQiIGxlbmd0aEFkanVzdD0ic3BhY2luZyIgdGV4dExlbmd0aD0iMTUwIiB4PSIyNyIgeT0iMTU0LjIwMzEiPnBhc3N3b3JkOiB2YXJjaGFyKDQ1KTwvdGV4dD48L2c+PCEtLWNsYXNzIEJhbm5lci0tPjxnIGlkPSJlbGVtX0Jhbm5lciI+PHJlY3QgY29kZUxpbmU9IjciIGZpbGw9IiNGMUYxRjEiIGhlaWdodD0iNzcuOTY4OCIgaWQ9IkJhbm5lciIgcng9IjIuNSIgcnk9IjIuNSIgc3R5bGU9InN0cm9rZTojMTgxODE4O3N0cm9rZS13aWR0aDowLjU7IiB3aWR0aD0iMTQ3IiB4PSIyMS41IiB5PSIzNDAiLz48ZWxsaXBzZSBjeD0iNjkuNzUiIGN5PSIzNTYiIGZpbGw9IiNBREQxQjIiIHJ4PSIxMSIgcnk9IjExIiBzdHlsZT0ic3Ryb2tlOiMxODE4MTg7c3Ryb2tlLXdpZHRoOjEuMDsiLz48cGF0aCBkPSJNNjcuMzc1LDM2MC4yNSBMNjcuMzc1LDM2MiBMNzIuMzEyNSwzNjIgTDcyLjMxMjUsMzYwLjI1IEw2Ny4zNzUsMzYwLjI1IFogTTY4LjA2MjUsMzYwLjkzNzUgUTY4LjA2MjUsMzYwLjkzNzUgNjguMDYyNSwzNTEuNzUgTDY2LjMxMjUsMzUxLjc1IFE2Ni4zMTI1LDM1MS43NSA2Ni4zMTI1LDM2MC45Mzc1IEw2OC4wNjI1LDM2MC45Mzc1IFogTTcxLjYyNSwzNjAuOTM3NSBMNzMuMzc1LDM2MC45Mzc1IFE3My4zNzUsMzYwLjkzNzUgNzMuMzc1LDM1OC4xMjUgTDcxLjYyNSwzNTguMTI1IFE3MS42MjUsMzU4LjEyNSA3MS42MjUsMzYwLjkzNzUgWiBNNzEuNjI1LDM1MS43NSBRNzEuNjI1LDM1MS43NSA3MS42MjUsMzU0LjU2MjUgTDczLjM3NSwzNTQuNTYyNSBRNzMuMzc1LDM1NC41NjI1IDczLjM3NSwzNTEuNzUgTDcxLjYyNSwzNTEuNzUgWiBNNjcuMzc1LDM1Mi40Mzc1IEw3Mi4zMTI1LDM1Mi40Mzc1IEw3Mi4zMTI1LDM1MC42ODc1IEw2Ny4zNzUsMzUwLjY4NzUgTDY3LjM3NSwzNTIuNDM3NSBaICIgZmlsbD0iIzAwMDAwMCIvPjx0ZXh0IGZpbGw9IiMwMDAwMDAiIGZvbnQtZmFtaWx5PSJzYW5zLXNlcmlmIiBmb250LXNpemU9IjE0IiBsZW5ndGhBZGp1c3Q9InNwYWNpbmciIHRleHRMZW5ndGg9IjQyIiB4PSI5MC4yNSIgeT0iMzYxLjc0MjIiPkJhbm5lcjwvdGV4dD48bGluZSBzdHlsZT0ic3Ryb2tlOiMxODE4MTg7c3Ryb2tlLXdpZHRoOjAuNTsiIHgxPSIyMi41IiB4Mj0iMTY3LjUiIHkxPSIzNzIiIHkyPSIzNzIiLz48ZWxsaXBzZSBjeD0iMzIuNSIgY3k9IjM4NC45OTIyIiBmaWxsPSJub25lIiByeD0iMyIgcnk9IjMiIHN0eWxlPSJzdHJva2U6IzAzODA0ODtzdHJva2Utd2lkdGg6MS4wOyIvPjx0ZXh0IGZpbGw9IiMwMDAwMDAiIGZvbnQtZmFtaWx5PSJzYW5zLXNlcmlmIiBmb250LXNpemU9IjE0IiBsZW5ndGhBZGp1c3Q9InNwYWNpbmciIHRleHRMZW5ndGg9IjQ5IiB4PSI0MS41IiB5PSIzODkuMjM0NCI+aWQ6IGludDwvdGV4dD48bGluZSBzdHlsZT0ic3Ryb2tlOiMxODE4MTg7c3Ryb2tlLXdpZHRoOjAuNTsiIHgxPSIyMi41IiB4Mj0iMTY3LjUiIHkxPSIzOTQuOTg0NCIgeTI9IjM5NC45ODQ0Ii8+PGVsbGlwc2UgY3g9IjMyLjUiIGN5PSI0MDcuOTc2NiIgZmlsbD0iIzg0QkU4NCIgcng9IjMiIHJ5PSIzIiBzdHlsZT0ic3Ryb2tlOiMwMzgwNDg7c3Ryb2tlLXdpZHRoOjEuMDsiLz48dGV4dCBmaWxsPSIjMDAwMDAwIiBmb250LWZhbWlseT0ic2Fucy1zZXJpZiIgZm9udC1zaXplPSIxNCIgbGVuZ3RoQWRqdXN0PSJzcGFjaW5nIiB0ZXh0TGVuZ3RoPSIxMjEiIHg9IjQxLjUiIHk9IjQxMi4yMTg4Ij5waWM6IHZhcmNoYXIoMjU1KTwvdGV4dD48L2c+PCEtLWNsYXNzIENvbnN1bWVyLS0+PGcgaWQ9ImVsZW1fQ29uc3VtZXIiPjxyZWN0IGNvZGVMaW5lPSIxMiIgZmlsbD0iI0YxRjFGMSIgaGVpZ2h0PSIyMTIuODI4MSIgaWQ9IkNvbnN1bWVyIiByeD0iMi41IiByeT0iMi41IiBzdHlsZT0ic3Ryb2tlOiMxODE4MTg7c3Ryb2tlLXdpZHRoOjAuNTsiIHdpZHRoPSIxODMiIHg9Ijk4Ny41IiB5PSI3Ii8+PGVsbGlwc2UgY3g9IjEwNDYuMjUiIGN5PSIyMyIgZmlsbD0iI0FERDFCMiIgcng9IjExIiByeT0iMTEiIHN0eWxlPSJzdHJva2U6IzE4MTgxODtzdHJva2Utd2lkdGg6MS4wOyIvPjxwYXRoIGQ9Ik0xMDQzLjg3NSwyNy4yNSBMMTA0My44NzUsMjkgTDEwNDguODEyNSwyOSBMMTA0OC44MTI1LDI3LjI1IEwxMDQzLjg3NSwyNy4yNSBaIE0xMDQ0LjU2MjUsMjcuOTM3NSBRMTA0NC41NjI1LDI3LjkzNzUgMTA0NC41NjI1LDE4Ljc1IEwxMDQyLjgxMjUsMTguNzUgUTEwNDIuODEyNSwxOC43NSAxMDQyLjgxMjUsMjcuOTM3NSBMMTA0NC41NjI1LDI3LjkzNzUgWiBNMTA0OC4xMjUsMjcuOTM3NSBMMTA0OS44NzUsMjcuOTM3NSBRMTA0OS44NzUsMjcuOTM3NSAxMDQ5Ljg3NSwyNS4xMjUgTDEwNDguMTI1LDI1LjEyNSBRMTA0OC4xMjUsMjUuMTI1IDEwNDguMTI1LDI3LjkzNzUgWiBNMTA0OC4xMjUsMTguNzUgUTEwNDguMTI1LDE4Ljc1IDEwNDguMTI1LDIxLjU2MjUgTDEwNDkuODc1LDIxLjU2MjUgUTEwNDkuODc1LDIxLjU2MjUgMTA0OS44NzUsMTguNzUgTDEwNDguMTI1LDE4Ljc1IFogTTEwNDMuODc1LDE5LjQzNzUgTDEwNDguODEyNSwxOS40Mzc1IEwxMDQ4LjgxMjUsMTcuNjg3NSBMMTA0My44NzUsMTcuNjg3NSBMMTA0My44NzUsMTkuNDM3NSBaICIgZmlsbD0iIzAwMDAwMCIvPjx0ZXh0IGZpbGw9IiMwMDAwMDAiIGZvbnQtZmFtaWx5PSJzYW5zLXNlcmlmIiBmb250LXNpemU9IjE0IiBsZW5ndGhBZGp1c3Q9InNwYWNpbmciIHRleHRMZW5ndGg9IjU3IiB4PSIxMDY2Ljc1IiB5PSIyOC43NDIyIj5Db25zdW1lcjwvdGV4dD48bGluZSBzdHlsZT0ic3Ryb2tlOiMxODE4MTg7c3Ryb2tlLXdpZHRoOjAuNTsiIHgxPSI5ODguNSIgeDI9IjExNjkuNSIgeTE9IjM5IiB5Mj0iMzkiLz48ZWxsaXBzZSBjeD0iOTk4LjUiIGN5PSI1MS45OTIyIiBmaWxsPSJub25lIiByeD0iMyIgcnk9IjMiIHN0eWxlPSJzdHJva2U6IzAzODA0ODtzdHJva2Utd2lkdGg6MS4wOyIvPjx0ZXh0IGZpbGw9IiMwMDAwMDAiIGZvbnQtZmFtaWx5PSJzYW5zLXNlcmlmIiBmb250LXNpemU9IjE0IiBsZW5ndGhBZGp1c3Q9InNwYWNpbmciIHRleHRMZW5ndGg9IjQ5IiB4PSIxMDA3LjUiIHk9IjU2LjIzNDQiPmlkOiBpbnQ8L3RleHQ+PGVsbGlwc2UgY3g9Ijk5OC41IiBjeT0iNjYuOTc2NiIgZmlsbD0ibm9uZSIgcng9IjMiIHJ5PSIzIiBzdHlsZT0ic3Ryb2tlOiMwMzgwNDg7c3Ryb2tlLXdpZHRoOjEuMDsiLz48dGV4dCBmaWxsPSIjMDAwMDAwIiBmb250LWZhbWlseT0ic2Fucy1zZXJpZiIgZm9udC1zaXplPSIxNCIgbGVuZ3RoQWRqdXN0PSJzcGFjaW5nIiB0ZXh0TGVuZ3RoPSI4NCIgeD0iMTAwNy41IiB5PSI3MS4yMTg4Ij5zZXg6IHRpbnlpbnQ8L3RleHQ+PGVsbGlwc2UgY3g9Ijk5OC41IiBjeT0iODEuOTYwOSIgZmlsbD0ibm9uZSIgcng9IjMiIHJ5PSIzIiBzdHlsZT0ic3Ryb2tlOiMwMzgwNDg7c3Ryb2tlLXdpZHRoOjEuMDsiLz48dGV4dCBmaWxsPSIjMDAwMDAwIiBmb250LWZhbWlseT0ic2Fucy1zZXJpZiIgZm9udC1zaXplPSIxNCIgbGVuZ3RoQWRqdXN0PSJzcGFjaW5nIiB0ZXh0TGVuZ3RoPSIxMDYiIHg9IjEwMDcuNSIgeT0iODYuMjAzMSI+YmlydGg6IGRhdGV0aW1lPC90ZXh0PjxlbGxpcHNlIGN4PSI5OTguNSIgY3k9Ijk2Ljk0NTMiIGZpbGw9Im5vbmUiIHJ4PSIzIiByeT0iMyIgc3R5bGU9InN0cm9rZTojMDM4MDQ4O3N0cm9rZS13aWR0aDoxLjA7Ii8+PHRleHQgZmlsbD0iIzAwMDAwMCIgZm9udC1mYW1pbHk9InNhbnMtc2VyaWYiIGZvbnQtc2l6ZT0iMTQiIGxlbmd0aEFkanVzdD0ic3BhY2luZyIgdGV4dExlbmd0aD0iMTQ5IiB4PSIxMDA3LjUiIHk9IjEwMS4xODc1Ij5jcmVhdGVfdGltZTogZGF0ZXRpbWU8L3RleHQ+PGVsbGlwc2UgY3g9Ijk5OC41IiBjeT0iMTExLjkyOTciIGZpbGw9Im5vbmUiIHJ4PSIzIiByeT0iMyIgc3R5bGU9InN0cm9rZTojMDM4MDQ4O3N0cm9rZS13aWR0aDoxLjA7Ii8+PHRleHQgZmlsbD0iIzAwMDAwMCIgZm9udC1mYW1pbHk9InNhbnMtc2VyaWYiIGZvbnQtc2l6ZT0iMTQiIGxlbmd0aEFkanVzdD0ic3BhY2luZyIgdGV4dExlbmd0aD0iMTQ5IiB4PSIxMDA3LjUiIHk9IjExNi4xNzE5Ij51cGRhdGVfdGltZTogZGF0ZXRpbWU8L3RleHQ+PGxpbmUgc3R5bGU9InN0cm9rZTojMTgxODE4O3N0cm9rZS13aWR0aDowLjU7IiB4MT0iOTg4LjUiIHgyPSIxMTY5LjUiIHkxPSIxMjEuOTIxOSIgeTI9IjEyMS45MjE5Ii8+PGVsbGlwc2UgY3g9Ijk5OC41IiBjeT0iMTM0LjkxNDEiIGZpbGw9IiM4NEJFODQiIHJ4PSIzIiByeT0iMyIgc3R5bGU9InN0cm9rZTojMDM4MDQ4O3N0cm9rZS13aWR0aDoxLjA7Ii8+PHRleHQgZmlsbD0iIzAwMDAwMCIgZm9udC1mYW1pbHk9InNhbnMtc2VyaWYiIGZvbnQtc2l6ZT0iMTQiIGxlbmd0aEFkanVzdD0ic3BhY2luZyIgdGV4dExlbmd0aD0iMTU3IiB4PSIxMDA3LjUiIHk9IjEzOS4xNTYzIj51c2VybmFtZTogdmFyY2hhcigyNTUpPC90ZXh0PjxlbGxpcHNlIGN4PSI5OTguNSIgY3k9IjE0OS44OTg0IiBmaWxsPSIjODRCRTg0IiByeD0iMyIgcnk9IjMiIHN0eWxlPSJzdHJva2U6IzAzODA0ODtzdHJva2Utd2lkdGg6MS4wOyIvPjx0ZXh0IGZpbGw9IiMwMDAwMDAiIGZvbnQtZmFtaWx5PSJzYW5zLXNlcmlmIiBmb250LXNpemU9IjE0IiBsZW5ndGhBZGp1c3Q9InNwYWNpbmciIHRleHRMZW5ndGg9IjE1NyIgeD0iMTAwNy41IiB5PSIxNTQuMTQwNiI+cGFzc3dvcmQ6IHZhcmNoYXIoMTAwKTwvdGV4dD48ZWxsaXBzZSBjeD0iOTk4LjUiIGN5PSIxNjQuODgyOCIgZmlsbD0iIzg0QkU4NCIgcng9IjMiIHJ5PSIzIiBzdHlsZT0ic3Ryb2tlOiMwMzgwNDg7c3Ryb2tlLXdpZHRoOjEuMDsiLz48dGV4dCBmaWxsPSIjMDAwMDAwIiBmb250LWZhbWlseT0ic2Fucy1zZXJpZiIgZm9udC1zaXplPSIxNCIgbGVuZ3RoQWRqdXN0PSJzcGFjaW5nIiB0ZXh0TGVuZ3RoPSIxNTciIHg9IjEwMDcuNSIgeT0iMTY5LjEyNSI+cGhvbmVfbnVtOiB2YXJjaGFyKDE1KTwvdGV4dD48ZWxsaXBzZSBjeD0iOTk4LjUiIGN5PSIxNzkuODY3MiIgZmlsbD0iIzg0QkU4NCIgcng9IjMiIHJ5PSIzIiBzdHlsZT0ic3Ryb2tlOiMwMzgwNDg7c3Ryb2tlLXdpZHRoOjEuMDsiLz48dGV4dCBmaWxsPSIjMDAwMDAwIiBmb250LWZhbWlseT0ic2Fucy1zZXJpZiIgZm9udC1zaXplPSIxNCIgbGVuZ3RoQWRqdXN0PSJzcGFjaW5nIiB0ZXh0TGVuZ3RoPSIxMDgiIHg9IjEwMDcuNSIgeT0iMTg0LjEwOTQiPmVtYWlsOiBjaGFyKDMwKTwvdGV4dD48ZWxsaXBzZSBjeD0iOTk4LjUiIGN5PSIxOTQuODUxNiIgZmlsbD0iIzg0QkU4NCIgcng9IjMiIHJ5PSIzIiBzdHlsZT0ic3Ryb2tlOiMwMzgwNDg7c3Ryb2tlLXdpZHRoOjEuMDsiLz48dGV4dCBmaWxsPSIjMDAwMDAwIiBmb250LWZhbWlseT0ic2Fucy1zZXJpZiIgZm9udC1zaXplPSIxNCIgbGVuZ3RoQWRqdXN0PSJzcGFjaW5nIiB0ZXh0TGVuZ3RoPSIxNDkiIHg9IjEwMDcuNSIgeT0iMTk5LjA5MzgiPmxvY2F0aW9uOiB2YXJjaGFyKDQ1KTwvdGV4dD48ZWxsaXBzZSBjeD0iOTk4LjUiIGN5PSIyMDkuODM1OSIgZmlsbD0iIzg0QkU4NCIgcng9IjMiIHJ5PSIzIiBzdHlsZT0ic3Ryb2tlOiMwMzgwNDg7c3Ryb2tlLXdpZHRoOjEuMDsiLz48dGV4dCBmaWxsPSIjMDAwMDAwIiBmb250LWZhbWlseT0ic2Fucy1zZXJpZiIgZm9udC1zaXplPSIxNCIgbGVuZ3RoQWRqdXN0PSJzcGFjaW5nIiB0ZXh0TGVuZ3RoPSIxNDIiIHg9IjEwMDcuNSIgeT0iMjE0LjA3ODEiPmF2YXRhcjogdmFyY2hhcigyNTUpPC90ZXh0PjwvZz48IS0tY2xhc3MgU2luZ2VyLS0+PGcgaWQ9ImVsZW1fU2luZ2VyIj48cmVjdCBjb2RlTGluZT0iMjYiIGZpbGw9IiNGMUYxRjEiIGhlaWdodD0iMTUyLjg5MDYiIGlkPSJTaW5nZXIiIHJ4PSIyLjUiIHJ5PSIyLjUiIHN0eWxlPSJzdHJva2U6IzE4MTgxODtzdHJva2Utd2lkdGg6MC41OyIgd2lkdGg9IjIxMCIgeD0iMjA0IiB5PSIzMDIuNSIvPjxlbGxpcHNlIGN4PSIyODMuNzUiIGN5PSIzMTguNSIgZmlsbD0iI0FERDFCMiIgcng9IjExIiByeT0iMTEiIHN0eWxlPSJzdHJva2U6IzE4MTgxODtzdHJva2Utd2lkdGg6MS4wOyIvPjxwYXRoIGQ9Ik0yODEuMzc1LDMyMi43NSBMMjgxLjM3NSwzMjQuNSBMMjg2LjMxMjUsMzI0LjUgTDI4Ni4zMTI1LDMyMi43NSBMMjgxLjM3NSwzMjIuNzUgWiBNMjgyLjA2MjUsMzIzLjQzNzUgUTI4Mi4wNjI1LDMyMy40Mzc1IDI4Mi4wNjI1LDMxNC4yNSBMMjgwLjMxMjUsMzE0LjI1IFEyODAuMzEyNSwzMTQuMjUgMjgwLjMxMjUsMzIzLjQzNzUgTDI4Mi4wNjI1LDMyMy40Mzc1IFogTTI4NS42MjUsMzIzLjQzNzUgTDI4Ny4zNzUsMzIzLjQzNzUgUTI4Ny4zNzUsMzIzLjQzNzUgMjg3LjM3NSwzMjAuNjI1IEwyODUuNjI1LDMyMC42MjUgUTI4NS42MjUsMzIwLjYyNSAyODUuNjI1LDMyMy40Mzc1IFogTTI4NS42MjUsMzE0LjI1IFEyODUuNjI1LDMxNC4yNSAyODUuNjI1LDMxNy4wNjI1IEwyODcuMzc1LDMxNy4wNjI1IFEyODcuMzc1LDMxNy4wNjI1IDI4Ny4zNzUsMzE0LjI1IEwyODUuNjI1LDMxNC4yNSBaIE0yODEuMzc1LDMxNC45Mzc1IEwyODYuMzEyNSwzMTQuOTM3NSBMMjg2LjMxMjUsMzEzLjE4NzUgTDI4MS4zNzUsMzEzLjE4NzUgTDI4MS4zNzUsMzE0LjkzNzUgWiAiIGZpbGw9IiMwMDAwMDAiLz48dGV4dCBmaWxsPSIjMDAwMDAwIiBmb250LWZhbWlseT0ic2Fucy1zZXJpZiIgZm9udC1zaXplPSIxNCIgbGVuZ3RoQWRqdXN0PSJzcGFjaW5nIiB0ZXh0TGVuZ3RoPSI0MiIgeD0iMzA0LjI1IiB5PSIzMjQuMjQyMiI+U2luZ2VyPC90ZXh0PjxsaW5lIHN0eWxlPSJzdHJva2U6IzE4MTgxODtzdHJva2Utd2lkdGg6MC41OyIgeDE9IjIwNSIgeDI9IjQxMyIgeTE9IjMzNC41IiB5Mj0iMzM0LjUiLz48ZWxsaXBzZSBjeD0iMjE1IiBjeT0iMzQ3LjQ5MjIiIGZpbGw9Im5vbmUiIHJ4PSIzIiByeT0iMyIgc3R5bGU9InN0cm9rZTojMDM4MDQ4O3N0cm9rZS13aWR0aDoxLjA7Ii8+PHRleHQgZmlsbD0iIzAwMDAwMCIgZm9udC1mYW1pbHk9InNhbnMtc2VyaWYiIGZvbnQtc2l6ZT0iMTQiIGxlbmd0aEFkanVzdD0ic3BhY2luZyIgdGV4dExlbmd0aD0iNDkiIHg9IjIyNCIgeT0iMzUxLjczNDQiPmlkOiBpbnQ8L3RleHQ+PGVsbGlwc2UgY3g9IjIxNSIgY3k9IjM2Mi40NzY2IiBmaWxsPSJub25lIiByeD0iMyIgcnk9IjMiIHN0eWxlPSJzdHJva2U6IzAzODA0ODtzdHJva2Utd2lkdGg6MS4wOyIvPjx0ZXh0IGZpbGw9IiMwMDAwMDAiIGZvbnQtZmFtaWx5PSJzYW5zLXNlcmlmIiBmb250LXNpemU9IjE0IiBsZW5ndGhBZGp1c3Q9InNwYWNpbmciIHRleHRMZW5ndGg9Ijg0IiB4PSIyMjQiIHk9IjM2Ni43MTg4Ij5zZXg6IHRpbnlpbnQ8L3RleHQ+PGVsbGlwc2UgY3g9IjIxNSIgY3k9IjM3Ny40NjA5IiBmaWxsPSJub25lIiByeD0iMyIgcnk9IjMiIHN0eWxlPSJzdHJva2U6IzAzODA0ODtzdHJva2Utd2lkdGg6MS4wOyIvPjx0ZXh0IGZpbGw9IiMwMDAwMDAiIGZvbnQtZmFtaWx5PSJzYW5zLXNlcmlmIiBmb250LXNpemU9IjE0IiBsZW5ndGhBZGp1c3Q9InNwYWNpbmciIHRleHRMZW5ndGg9IjEwNiIgeD0iMjI0IiB5PSIzODEuNzAzMSI+YmlydGg6IGRhdGV0aW1lPC90ZXh0PjxsaW5lIHN0eWxlPSJzdHJva2U6IzE4MTgxODtzdHJva2Utd2lkdGg6MC41OyIgeDE9IjIwNSIgeDI9IjQxMyIgeTE9IjM4Ny40NTMxIiB5Mj0iMzg3LjQ1MzEiLz48ZWxsaXBzZSBjeD0iMjE1IiBjeT0iNDAwLjQ0NTMiIGZpbGw9IiM4NEJFODQiIHJ4PSIzIiByeT0iMyIgc3R5bGU9InN0cm9rZTojMDM4MDQ4O3N0cm9rZS13aWR0aDoxLjA7Ii8+PHRleHQgZmlsbD0iIzAwMDAwMCIgZm9udC1mYW1pbHk9InNhbnMtc2VyaWYiIGZvbnQtc2l6ZT0iMTQiIGxlbmd0aEFkanVzdD0ic3BhY2luZyIgdGV4dExlbmd0aD0iMTIyIiB4PSIyMjQiIHk9IjQwNC42ODc1Ij5uYW1lOiB2YXJjaGFyKDQ1KTwvdGV4dD48ZWxsaXBzZSBjeD0iMjE1IiBjeT0iNDE1LjQyOTciIGZpbGw9IiM4NEJFODQiIHJ4PSIzIiByeT0iMyIgc3R5bGU9InN0cm9rZTojMDM4MDQ4O3N0cm9rZS13aWR0aDoxLjA7Ii8+PHRleHQgZmlsbD0iIzAwMDAwMCIgZm9udC1mYW1pbHk9InNhbnMtc2VyaWYiIGZvbnQtc2l6ZT0iMTQiIGxlbmd0aEFkanVzdD0ic3BhY2luZyIgdGV4dExlbmd0aD0iMTIxIiB4PSIyMjQiIHk9IjQxOS42NzE5Ij5waWM6IHZhcmNoYXIoMjU1KTwvdGV4dD48ZWxsaXBzZSBjeD0iMjE1IiBjeT0iNDMwLjQxNDEiIGZpbGw9IiM4NEJFODQiIHJ4PSIzIiByeT0iMyIgc3R5bGU9InN0cm9rZTojMDM4MDQ4O3N0cm9rZS13aWR0aDoxLjA7Ii8+PHRleHQgZmlsbD0iIzAwMDAwMCIgZm9udC1mYW1pbHk9InNhbnMtc2VyaWYiIGZvbnQtc2l6ZT0iMTQiIGxlbmd0aEFkanVzdD0ic3BhY2luZyIgdGV4dExlbmd0aD0iMTQ5IiB4PSIyMjQiIHk9IjQzNC42NTYzIj5sb2NhdGlvbjogdmFyY2hhcig0NSk8L3RleHQ+PGVsbGlwc2UgY3g9IjIxNSIgY3k9IjQ0NS4zOTg0IiBmaWxsPSIjODRCRTg0IiByeD0iMyIgcnk9IjMiIHN0eWxlPSJzdHJva2U6IzAzODA0ODtzdHJva2Utd2lkdGg6MS4wOyIvPjx0ZXh0IGZpbGw9IiMwMDAwMDAiIGZvbnQtZmFtaWx5PSJzYW5zLXNlcmlmIiBmb250LXNpemU9IjE0IiBsZW5ndGhBZGp1c3Q9InNwYWNpbmciIHRleHRMZW5ndGg9IjE4NCIgeD0iMjI0IiB5PSI0NDkuNjQwNiI+aW50cm9kdWN0aW9uOiB2YXJjaGFyKDI1NSk8L3RleHQ+PC9nPjwhLS1jbGFzcyBTb25nLS0+PGcgaWQ9ImVsZW1fU29uZyI+PHJlY3QgY29kZUxpbmU9IjM2IiBmaWxsPSIjRjFGMUYxIiBoZWlnaHQ9IjE4Mi44NTk0IiBpZD0iU29uZyIgcng9IjIuNSIgcnk9IjIuNSIgc3R5bGU9InN0cm9rZTojMTgxODE4O3N0cm9rZS13aWR0aDowLjU7IiB3aWR0aD0iMTc1IiB4PSI0NjguNSIgeT0iMjIiLz48ZWxsaXBzZSBjeD0iNTM3Ljc1IiBjeT0iMzgiIGZpbGw9IiNBREQxQjIiIHJ4PSIxMSIgcnk9IjExIiBzdHlsZT0ic3Ryb2tlOiMxODE4MTg7c3Ryb2tlLXdpZHRoOjEuMDsiLz48cGF0aCBkPSJNNTM1LjM3NSw0Mi4yNSBMNTM1LjM3NSw0NCBMNTQwLjMxMjUsNDQgTDU0MC4zMTI1LDQyLjI1IEw1MzUuMzc1LDQyLjI1IFogTTUzNi4wNjI1LDQyLjkzNzUgUTUzNi4wNjI1LDQyLjkzNzUgNTM2LjA2MjUsMzMuNzUgTDUzNC4zMTI1LDMzLjc1IFE1MzQuMzEyNSwzMy43NSA1MzQuMzEyNSw0Mi45Mzc1IEw1MzYuMDYyNSw0Mi45Mzc1IFogTTUzOS42MjUsNDIuOTM3NSBMNTQxLjM3NSw0Mi45Mzc1IFE1NDEuMzc1LDQyLjkzNzUgNTQxLjM3NSw0MC4xMjUgTDUzOS42MjUsNDAuMTI1IFE1MzkuNjI1LDQwLjEyNSA1MzkuNjI1LDQyLjkzNzUgWiBNNTM5LjYyNSwzMy43NSBRNTM5LjYyNSwzMy43NSA1MzkuNjI1LDM2LjU2MjUgTDU0MS4zNzUsMzYuNTYyNSBRNTQxLjM3NSwzNi41NjI1IDU0MS4zNzUsMzMuNzUgTDUzOS42MjUsMzMuNzUgWiBNNTM1LjM3NSwzNC40Mzc1IEw1NDAuMzEyNSwzNC40Mzc1IEw1NDAuMzEyNSwzMi42ODc1IEw1MzUuMzc1LDMyLjY4NzUgTDUzNS4zNzUsMzQuNDM3NSBaICIgZmlsbD0iIzAwMDAwMCIvPjx0ZXh0IGZpbGw9IiMwMDAwMDAiIGZvbnQtZmFtaWx5PSJzYW5zLXNlcmlmIiBmb250LXNpemU9IjE0IiBsZW5ndGhBZGp1c3Q9InNwYWNpbmciIHRleHRMZW5ndGg9IjI4IiB4PSI1NTguMjUiIHk9IjQzLjc0MjIiPlNvbmc8L3RleHQ+PGxpbmUgc3R5bGU9InN0cm9rZTojMTgxODE4O3N0cm9rZS13aWR0aDowLjU7IiB4MT0iNDY5LjUiIHgyPSI2NDIuNSIgeTE9IjU0IiB5Mj0iNTQiLz48ZWxsaXBzZSBjeD0iNDc5LjUiIGN5PSI2Ni45OTIyIiBmaWxsPSJub25lIiByeD0iMyIgcnk9IjMiIHN0eWxlPSJzdHJva2U6IzAzODA0ODtzdHJva2Utd2lkdGg6MS4wOyIvPjx0ZXh0IGZpbGw9IiMwMDAwMDAiIGZvbnQtZmFtaWx5PSJzYW5zLXNlcmlmIiBmb250LXNpemU9IjE0IiBsZW5ndGhBZGp1c3Q9InNwYWNpbmciIHRleHRMZW5ndGg9IjQ5IiB4PSI0ODguNSIgeT0iNzEuMjM0NCI+aWQ6IGludDwvdGV4dD48ZWxsaXBzZSBjeD0iNDc5LjUiIGN5PSI4MS45NzY2IiBmaWxsPSJub25lIiByeD0iMyIgcnk9IjMiIHN0eWxlPSJzdHJva2U6IzAzODA0ODtzdHJva2Utd2lkdGg6MS4wOyIvPjx0ZXh0IGZpbGw9IiMwMDAwMDAiIGZvbnQtZmFtaWx5PSJzYW5zLXNlcmlmIiBmb250LXNpemU9IjE0IiBsZW5ndGhBZGp1c3Q9InNwYWNpbmciIHRleHRMZW5ndGg9Ijk4IiB4PSI0ODguNSIgeT0iODYuMjE4OCI+c2luZ2VyX2lkOiBpbnQ8L3RleHQ+PGVsbGlwc2UgY3g9IjQ3OS41IiBjeT0iOTYuOTYwOSIgZmlsbD0ibm9uZSIgcng9IjMiIHJ5PSIzIiBzdHlsZT0ic3Ryb2tlOiMwMzgwNDg7c3Ryb2tlLXdpZHRoOjEuMDsiLz48dGV4dCBmaWxsPSIjMDAwMDAwIiBmb250LWZhbWlseT0ic2Fucy1zZXJpZiIgZm9udC1zaXplPSIxNCIgbGVuZ3RoQWRqdXN0PSJzcGFjaW5nIiB0ZXh0TGVuZ3RoPSIxMjYiIHg9IjQ4OC41IiB5PSIxMDEuMjAzMSI+aW50cm9kdWN0aW9uOiB0ZXh0PC90ZXh0PjxlbGxpcHNlIGN4PSI0NzkuNSIgY3k9IjExMS45NDUzIiBmaWxsPSJub25lIiByeD0iMyIgcnk9IjMiIHN0eWxlPSJzdHJva2U6IzAzODA0ODtzdHJva2Utd2lkdGg6MS4wOyIvPjx0ZXh0IGZpbGw9IiMwMDAwMDAiIGZvbnQtZmFtaWx5PSJzYW5zLXNlcmlmIiBmb250LXNpemU9IjE0IiBsZW5ndGhBZGp1c3Q9InNwYWNpbmciIHRleHRMZW5ndGg9IjE0OSIgeD0iNDg4LjUiIHk9IjExNi4xODc1Ij5jcmVhdGVfdGltZTogZGF0ZXRpbWU8L3RleHQ+PGVsbGlwc2UgY3g9IjQ3OS41IiBjeT0iMTI2LjkyOTciIGZpbGw9Im5vbmUiIHJ4PSIzIiByeT0iMyIgc3R5bGU9InN0cm9rZTojMDM4MDQ4O3N0cm9rZS13aWR0aDoxLjA7Ii8+PHRleHQgZmlsbD0iIzAwMDAwMCIgZm9udC1mYW1pbHk9InNhbnMtc2VyaWYiIGZvbnQtc2l6ZT0iMTQiIGxlbmd0aEFkanVzdD0ic3BhY2luZyIgdGV4dExlbmd0aD0iMTQ5IiB4PSI0ODguNSIgeT0iMTMxLjE3MTkiPnVwZGF0ZV90aW1lOiBkYXRldGltZTwvdGV4dD48ZWxsaXBzZSBjeD0iNDc5LjUiIGN5PSIxNDEuOTE0MSIgZmlsbD0ibm9uZSIgcng9IjMiIHJ5PSIzIiBzdHlsZT0ic3Ryb2tlOiMwMzgwNDg7c3Ryb2tlLXdpZHRoOjEuMDsiLz48dGV4dCBmaWxsPSIjMDAwMDAwIiBmb250LWZhbWlseT0ic2Fucy1zZXJpZiIgZm9udC1zaXplPSIxNCIgbGVuZ3RoQWRqdXN0PSJzcGFjaW5nIiB0ZXh0TGVuZ3RoPSI3NyIgeD0iNDg4LjUiIHk9IjE0Ni4xNTYzIj5seXJpYzogdGV4dDwvdGV4dD48bGluZSBzdHlsZT0ic3Ryb2tlOiMxODE4MTg7c3Ryb2tlLXdpZHRoOjAuNTsiIHgxPSI0NjkuNSIgeDI9IjY0Mi41IiB5MT0iMTUxLjkwNjMiIHkyPSIxNTEuOTA2MyIvPjxlbGxpcHNlIGN4PSI0NzkuNSIgY3k9IjE2NC44OTg0IiBmaWxsPSIjODRCRTg0IiByeD0iMyIgcnk9IjMiIHN0eWxlPSJzdHJva2U6IzAzODA0ODtzdHJva2Utd2lkdGg6MS4wOyIvPjx0ZXh0IGZpbGw9IiMwMDAwMDAiIGZvbnQtZmFtaWx5PSJzYW5zLXNlcmlmIiBmb250LXNpemU9IjE0IiBsZW5ndGhBZGp1c3Q9InNwYWNpbmciIHRleHRMZW5ndGg9IjEyMiIgeD0iNDg4LjUiIHk9IjE2OS4xNDA2Ij5uYW1lOiB2YXJjaGFyKDQ1KTwvdGV4dD48ZWxsaXBzZSBjeD0iNDc5LjUiIGN5PSIxNzkuODgyOCIgZmlsbD0iIzg0QkU4NCIgcng9IjMiIHJ5PSIzIiBzdHlsZT0ic3Ryb2tlOiMwMzgwNDg7c3Ryb2tlLXdpZHRoOjEuMDsiLz48dGV4dCBmaWxsPSIjMDAwMDAwIiBmb250LWZhbWlseT0ic2Fucy1zZXJpZiIgZm9udC1zaXplPSIxNCIgbGVuZ3RoQWRqdXN0PSJzcGFjaW5nIiB0ZXh0TGVuZ3RoPSIxMjEiIHg9IjQ4OC41IiB5PSIxODQuMTI1Ij5waWM6IHZhcmNoYXIoMjU1KTwvdGV4dD48ZWxsaXBzZSBjeD0iNDc5LjUiIGN5PSIxOTQuODY3MiIgZmlsbD0iIzg0QkU4NCIgcng9IjMiIHJ5PSIzIiBzdHlsZT0ic3Ryb2tlOiMwMzgwNDg7c3Ryb2tlLXdpZHRoOjEuMDsiLz48dGV4dCBmaWxsPSIjMDAwMDAwIiBmb250LWZhbWlseT0ic2Fucy1zZXJpZiIgZm9udC1zaXplPSIxNCIgbGVuZ3RoQWRqdXN0PSJzcGFjaW5nIiB0ZXh0TGVuZ3RoPSIxMjEiIHg9IjQ4OC41IiB5PSIxOTkuMTA5NCI+dXJsOiB2YXJjaGFyKDI1NSk8L3RleHQ+PC9nPjwhLS1jbGFzcyBTb25nTGlzdC0tPjxnIGlkPSJlbGVtX1NvbmdMaXN0Ij48cmVjdCBjb2RlTGluZT0iNDgiIGZpbGw9IiNGMUYxRjEiIGhlaWdodD0iMTIyLjkyMTkiIGlkPSJTb25nTGlzdCIgcng9IjIuNSIgcnk9IjIuNSIgc3R5bGU9InN0cm9rZTojMTgxODE4O3N0cm9rZS13aWR0aDowLjU7IiB3aWR0aD0iMTYxIiB4PSI3NjIuNSIgeT0iNTIiLz48ZWxsaXBzZSBjeD0iODEwLjc1IiBjeT0iNjgiIGZpbGw9IiNBREQxQjIiIHJ4PSIxMSIgcnk9IjExIiBzdHlsZT0ic3Ryb2tlOiMxODE4MTg7c3Ryb2tlLXdpZHRoOjEuMDsiLz48cGF0aCBkPSJNODA4LjM3NSw3Mi4yNSBMODA4LjM3NSw3NCBMODEzLjMxMjUsNzQgTDgxMy4zMTI1LDcyLjI1IEw4MDguMzc1LDcyLjI1IFogTTgwOS4wNjI1LDcyLjkzNzUgUTgwOS4wNjI1LDcyLjkzNzUgODA5LjA2MjUsNjMuNzUgTDgwNy4zMTI1LDYzLjc1IFE4MDcuMzEyNSw2My43NSA4MDcuMzEyNSw3Mi45Mzc1IEw4MDkuMDYyNSw3Mi45Mzc1IFogTTgxMi42MjUsNzIuOTM3NSBMODE0LjM3NSw3Mi45Mzc1IFE4MTQuMzc1LDcyLjkzNzUgODE0LjM3NSw3MC4xMjUgTDgxMi42MjUsNzAuMTI1IFE4MTIuNjI1LDcwLjEyNSA4MTIuNjI1LDcyLjkzNzUgWiBNODEyLjYyNSw2My43NSBRODEyLjYyNSw2My43NSA4MTIuNjI1LDY2LjU2MjUgTDgxNC4zNzUsNjYuNTYyNSBRODE0LjM3NSw2Ni41NjI1IDgxNC4zNzUsNjMuNzUgTDgxMi42MjUsNjMuNzUgWiBNODA4LjM3NSw2NC40Mzc1IEw4MTMuMzEyNSw2NC40Mzc1IEw4MTMuMzEyNSw2Mi42ODc1IEw4MDguMzc1LDYyLjY4NzUgTDgwOC4zNzUsNjQuNDM3NSBaICIgZmlsbD0iIzAwMDAwMCIvPjx0ZXh0IGZpbGw9IiMwMDAwMDAiIGZvbnQtZmFtaWx5PSJzYW5zLXNlcmlmIiBmb250LXNpemU9IjE0IiBsZW5ndGhBZGp1c3Q9InNwYWNpbmciIHRleHRMZW5ndGg9IjU2IiB4PSI4MzEuMjUiIHk9IjczLjc0MjIiPlNvbmdMaXN0PC90ZXh0PjxsaW5lIHN0eWxlPSJzdHJva2U6IzE4MTgxODtzdHJva2Utd2lkdGg6MC41OyIgeDE9Ijc2My41IiB4Mj0iOTIyLjUiIHkxPSI4NCIgeTI9Ijg0Ii8+PGVsbGlwc2UgY3g9Ijc3My41IiBjeT0iOTYuOTkyMiIgZmlsbD0ibm9uZSIgcng9IjMiIHJ5PSIzIiBzdHlsZT0ic3Ryb2tlOiMwMzgwNDg7c3Ryb2tlLXdpZHRoOjEuMDsiLz48dGV4dCBmaWxsPSIjMDAwMDAwIiBmb250LWZhbWlseT0ic2Fucy1zZXJpZiIgZm9udC1zaXplPSIxNCIgbGVuZ3RoQWRqdXN0PSJzcGFjaW5nIiB0ZXh0TGVuZ3RoPSI0OSIgeD0iNzgyLjUiIHk9IjEwMS4yMzQ0Ij5pZDogaW50PC90ZXh0PjxlbGxpcHNlIGN4PSI3NzMuNSIgY3k9IjExMS45NzY2IiBmaWxsPSJub25lIiByeD0iMyIgcnk9IjMiIHN0eWxlPSJzdHJva2U6IzAzODA0ODtzdHJva2Utd2lkdGg6MS4wOyIvPjx0ZXh0IGZpbGw9IiMwMDAwMDAiIGZvbnQtZmFtaWx5PSJzYW5zLXNlcmlmIiBmb250LXNpemU9IjE0IiBsZW5ndGhBZGp1c3Q9InNwYWNpbmciIHRleHRMZW5ndGg9IjEyNiIgeD0iNzgyLjUiIHk9IjExNi4yMTg4Ij5pbnRyb2R1Y3Rpb246IHRleHQ8L3RleHQ+PGxpbmUgc3R5bGU9InN0cm9rZTojMTgxODE4O3N0cm9rZS13aWR0aDowLjU7IiB4MT0iNzYzLjUiIHgyPSI5MjIuNSIgeTE9IjEyMS45Njg4IiB5Mj0iMTIxLjk2ODgiLz48ZWxsaXBzZSBjeD0iNzczLjUiIGN5PSIxMzQuOTYwOSIgZmlsbD0iIzg0QkU4NCIgcng9IjMiIHJ5PSIzIiBzdHlsZT0ic3Ryb2tlOiMwMzgwNDg7c3Ryb2tlLXdpZHRoOjEuMDsiLz48dGV4dCBmaWxsPSIjMDAwMDAwIiBmb250LWZhbWlseT0ic2Fucy1zZXJpZiIgZm9udC1zaXplPSIxNCIgbGVuZ3RoQWRqdXN0PSJzcGFjaW5nIiB0ZXh0TGVuZ3RoPSIxMzUiIHg9Ijc4Mi41IiB5PSIxMzkuMjAzMSI+dGl0bGU6IHZhcmNoYXIoMjU1KTwvdGV4dD48ZWxsaXBzZSBjeD0iNzczLjUiIGN5PSIxNDkuOTQ1MyIgZmlsbD0iIzg0QkU4NCIgcng9IjMiIHJ5PSIzIiBzdHlsZT0ic3Ryb2tlOiMwMzgwNDg7c3Ryb2tlLXdpZHRoOjEuMDsiLz48dGV4dCBmaWxsPSIjMDAwMDAwIiBmb250LWZhbWlseT0ic2Fucy1zZXJpZiIgZm9udC1zaXplPSIxNCIgbGVuZ3RoQWRqdXN0PSJzcGFjaW5nIiB0ZXh0TGVuZ3RoPSIxMjEiIHg9Ijc4Mi41IiB5PSIxNTQuMTg3NSI+cGljOiB2YXJjaGFyKDI1NSk8L3RleHQ+PGVsbGlwc2UgY3g9Ijc3My41IiBjeT0iMTY0LjkyOTciIGZpbGw9IiM4NEJFODQiIHJ4PSIzIiByeT0iMyIgc3R5bGU9InN0cm9rZTojMDM4MDQ4O3N0cm9rZS13aWR0aDoxLjA7Ii8+PHRleHQgZmlsbD0iIzAwMDAwMCIgZm9udC1mYW1pbHk9InNhbnMtc2VyaWYiIGZvbnQtc2l6ZT0iMTQiIGxlbmd0aEFkanVzdD0ic3BhY2luZyIgdGV4dExlbmd0aD0iMTI4IiB4PSI3ODIuNSIgeT0iMTY5LjE3MTkiPnN0eWxlOiB2YXJjaGFyKDEwKTwvdGV4dD48L2c+PCEtLWNsYXNzIENvbW1lbnQtLT48ZyBpZD0iZWxlbV9Db21tZW50Ij48cmVjdCBjb2RlTGluZT0iNTYiIGZpbGw9IiNGMUYxRjEiIGhlaWdodD0iMTY3Ljg3NSIgaWQ9IkNvbW1lbnQiIHJ4PSIyLjUiIHJ5PSIyLjUiIHN0eWxlPSJzdHJva2U6IzE4MTgxODtzdHJva2Utd2lkdGg6MC41OyIgd2lkdGg9IjE3NSIgeD0iODM5LjUiIHk9IjI5NSIvPjxlbGxpcHNlIGN4PSI4OTcuMjUiIGN5PSIzMTEiIGZpbGw9IiNBREQxQjIiIHJ4PSIxMSIgcnk9IjExIiBzdHlsZT0ic3Ryb2tlOiMxODE4MTg7c3Ryb2tlLXdpZHRoOjEuMDsiLz48cGF0aCBkPSJNODk0Ljg3NSwzMTUuMjUgTDg5NC44NzUsMzE3IEw4OTkuODEyNSwzMTcgTDg5OS44MTI1LDMxNS4yNSBMODk0Ljg3NSwzMTUuMjUgWiBNODk1LjU2MjUsMzE1LjkzNzUgUTg5NS41NjI1LDMxNS45Mzc1IDg5NS41NjI1LDMwNi43NSBMODkzLjgxMjUsMzA2Ljc1IFE4OTMuODEyNSwzMDYuNzUgODkzLjgxMjUsMzE1LjkzNzUgTDg5NS41NjI1LDMxNS45Mzc1IFogTTg5OS4xMjUsMzE1LjkzNzUgTDkwMC44NzUsMzE1LjkzNzUgUTkwMC44NzUsMzE1LjkzNzUgOTAwLjg3NSwzMTMuMTI1IEw4OTkuMTI1LDMxMy4xMjUgUTg5OS4xMjUsMzEzLjEyNSA4OTkuMTI1LDMxNS45Mzc1IFogTTg5OS4xMjUsMzA2Ljc1IFE4OTkuMTI1LDMwNi43NSA4OTkuMTI1LDMwOS41NjI1IEw5MDAuODc1LDMwOS41NjI1IFE5MDAuODc1LDMwOS41NjI1IDkwMC44NzUsMzA2Ljc1IEw4OTkuMTI1LDMwNi43NSBaIE04OTQuODc1LDMwNy40Mzc1IEw4OTkuODEyNSwzMDcuNDM3NSBMODk5LjgxMjUsMzA1LjY4NzUgTDg5NC44NzUsMzA1LjY4NzUgTDg5NC44NzUsMzA3LjQzNzUgWiAiIGZpbGw9IiMwMDAwMDAiLz48dGV4dCBmaWxsPSIjMDAwMDAwIiBmb250LWZhbWlseT0ic2Fucy1zZXJpZiIgZm9udC1zaXplPSIxNCIgbGVuZ3RoQWRqdXN0PSJzcGFjaW5nIiB0ZXh0TGVuZ3RoPSI1MSIgeD0iOTE3Ljc1IiB5PSIzMTYuNzQyMiI+Q29tbWVudDwvdGV4dD48bGluZSBzdHlsZT0ic3Ryb2tlOiMxODE4MTg7c3Ryb2tlLXdpZHRoOjAuNTsiIHgxPSI4NDAuNSIgeDI9IjEwMTMuNSIgeTE9IjMyNyIgeTI9IjMyNyIvPjxlbGxpcHNlIGN4PSI4NTAuNSIgY3k9IjMzOS45OTIyIiBmaWxsPSJub25lIiByeD0iMyIgcnk9IjMiIHN0eWxlPSJzdHJva2U6IzAzODA0ODtzdHJva2Utd2lkdGg6MS4wOyIvPjx0ZXh0IGZpbGw9IiMwMDAwMDAiIGZvbnQtZmFtaWx5PSJzYW5zLXNlcmlmIiBmb250LXNpemU9IjE0IiBsZW5ndGhBZGp1c3Q9InNwYWNpbmciIHRleHRMZW5ndGg9IjQ5IiB4PSI4NTkuNSIgeT0iMzQ0LjIzNDQiPmlkOiBpbnQ8L3RleHQ+PGVsbGlwc2UgY3g9Ijg1MC41IiBjeT0iMzU0Ljk3NjYiIGZpbGw9Im5vbmUiIHJ4PSIzIiByeT0iMyIgc3R5bGU9InN0cm9rZTojMDM4MDQ4O3N0cm9rZS13aWR0aDoxLjA7Ii8+PHRleHQgZmlsbD0iIzAwMDAwMCIgZm9udC1mYW1pbHk9InNhbnMtc2VyaWYiIGZvbnQtc2l6ZT0iMTQiIGxlbmd0aEFkanVzdD0ic3BhY2luZyIgdGV4dExlbmd0aD0iODQiIHg9Ijg1OS41IiB5PSIzNTkuMjE4OCI+dXNlcl9pZDogaW50PC90ZXh0PjxlbGxpcHNlIGN4PSI4NTAuNSIgY3k9IjM2OS45NjA5IiBmaWxsPSJub25lIiByeD0iMyIgcnk9IjMiIHN0eWxlPSJzdHJva2U6IzAzODA0ODtzdHJva2Utd2lkdGg6MS4wOyIvPjx0ZXh0IGZpbGw9IiMwMDAwMDAiIGZvbnQtZmFtaWx5PSJzYW5zLXNlcmlmIiBmb250LXNpemU9IjE0IiBsZW5ndGhBZGp1c3Q9InNwYWNpbmciIHRleHRMZW5ndGg9Ijg0IiB4PSI4NTkuNSIgeT0iMzc0LjIwMzEiPnNvbmdfaWQ6IGludDwvdGV4dD48ZWxsaXBzZSBjeD0iODUwLjUiIGN5PSIzODQuOTQ1MyIgZmlsbD0ibm9uZSIgcng9IjMiIHJ5PSIzIiBzdHlsZT0ic3Ryb2tlOiMwMzgwNDg7c3Ryb2tlLXdpZHRoOjEuMDsiLz48dGV4dCBmaWxsPSIjMDAwMDAwIiBmb250LWZhbWlseT0ic2Fucy1zZXJpZiIgZm9udC1zaXplPSIxNCIgbGVuZ3RoQWRqdXN0PSJzcGFjaW5nIiB0ZXh0TGVuZ3RoPSIxMTkiIHg9Ijg1OS41IiB5PSIzODkuMTg3NSI+c29uZ19saXN0X2lkOiBpbnQ8L3RleHQ+PGVsbGlwc2UgY3g9Ijg1MC41IiBjeT0iMzk5LjkyOTciIGZpbGw9Im5vbmUiIHJ4PSIzIiByeT0iMyIgc3R5bGU9InN0cm9rZTojMDM4MDQ4O3N0cm9rZS13aWR0aDoxLjA7Ii8+PHRleHQgZmlsbD0iIzAwMDAwMCIgZm9udC1mYW1pbHk9InNhbnMtc2VyaWYiIGZvbnQtc2l6ZT0iMTQiIGxlbmd0aEFkanVzdD0ic3BhY2luZyIgdGV4dExlbmd0aD0iMTQ5IiB4PSI4NTkuNSIgeT0iNDA0LjE3MTkiPmNyZWF0ZV90aW1lOiBkYXRldGltZTwvdGV4dD48ZWxsaXBzZSBjeD0iODUwLjUiIGN5PSI0MTQuOTE0MSIgZmlsbD0ibm9uZSIgcng9IjMiIHJ5PSIzIiBzdHlsZT0ic3Ryb2tlOiMwMzgwNDg7c3Ryb2tlLXdpZHRoOjEuMDsiLz48dGV4dCBmaWxsPSIjMDAwMDAwIiBmb250LWZhbWlseT0ic2Fucy1zZXJpZiIgZm9udC1zaXplPSIxNCIgbGVuZ3RoQWRqdXN0PSJzcGFjaW5nIiB0ZXh0TGVuZ3RoPSI5MSIgeD0iODU5LjUiIHk9IjQxOS4xNTYzIj50eXBlOiB0aW55aW50PC90ZXh0PjxlbGxpcHNlIGN4PSI4NTAuNSIgY3k9IjQyOS44OTg0IiBmaWxsPSJub25lIiByeD0iMyIgcnk9IjMiIHN0eWxlPSJzdHJva2U6IzAzODA0ODtzdHJva2Utd2lkdGg6MS4wOyIvPjx0ZXh0IGZpbGw9IiMwMDAwMDAiIGZvbnQtZmFtaWx5PSJzYW5zLXNlcmlmIiBmb250LXNpemU9IjE0IiBsZW5ndGhBZGp1c3Q9InNwYWNpbmciIHRleHRMZW5ndGg9IjQ5IiB4PSI4NTkuNSIgeT0iNDM0LjE0MDYiPnVwOiBpbnQ8L3RleHQ+PGxpbmUgc3R5bGU9InN0cm9rZTojMTgxODE4O3N0cm9rZS13aWR0aDowLjU7IiB4MT0iODQwLjUiIHgyPSIxMDEzLjUiIHkxPSI0MzkuODkwNiIgeTI9IjQzOS44OTA2Ii8+PGVsbGlwc2UgY3g9Ijg1MC41IiBjeT0iNDUyLjg4MjgiIGZpbGw9IiM4NEJFODQiIHJ4PSIzIiByeT0iMyIgc3R5bGU9InN0cm9rZTojMDM4MDQ4O3N0cm9rZS13aWR0aDoxLjA7Ii8+PHRleHQgZmlsbD0iIzAwMDAwMCIgZm9udC1mYW1pbHk9InNhbnMtc2VyaWYiIGZvbnQtc2l6ZT0iMTQiIGxlbmd0aEFkanVzdD0ic3BhY2luZyIgdGV4dExlbmd0aD0iMTQ5IiB4PSI4NTkuNSIgeT0iNDU3LjEyNSI+Y29udGVudDogdmFyY2hhcigyNTUpPC90ZXh0PjwvZz48IS0tY2xhc3MgUmFua0xpc3QtLT48ZyBpZD0iZWxlbV9SYW5rTGlzdCI+PHJlY3QgY29kZUxpbmU9IjY3IiBmaWxsPSIjRjFGMUYxIiBoZWlnaHQ9IjEwNy45Mzc1IiBpZD0iUmFua0xpc3QiIHJ4PSIyLjUiIHJ5PSIyLjUiIHN0eWxlPSJzdHJva2U6IzE4MTgxODtzdHJva2Utd2lkdGg6MC41OyIgd2lkdGg9IjE2NiIgeD0iMTA1MCIgeT0iMzI1Ii8+PGVsbGlwc2UgY3g9IjExMDAuNzUiIGN5PSIzNDEiIGZpbGw9IiNBREQxQjIiIHJ4PSIxMSIgcnk9IjExIiBzdHlsZT0ic3Ryb2tlOiMxODE4MTg7c3Ryb2tlLXdpZHRoOjEuMDsiLz48cGF0aCBkPSJNMTA5OC4zNzUsMzQ1LjI1IEwxMDk4LjM3NSwzNDcgTDExMDMuMzEyNSwzNDcgTDExMDMuMzEyNSwzNDUuMjUgTDEwOTguMzc1LDM0NS4yNSBaIE0xMDk5LjA2MjUsMzQ1LjkzNzUgUTEwOTkuMDYyNSwzNDUuOTM3NSAxMDk5LjA2MjUsMzM2Ljc1IEwxMDk3LjMxMjUsMzM2Ljc1IFExMDk3LjMxMjUsMzM2Ljc1IDEwOTcuMzEyNSwzNDUuOTM3NSBMMTA5OS4wNjI1LDM0NS45Mzc1IFogTTExMDIuNjI1LDM0NS45Mzc1IEwxMTA0LjM3NSwzNDUuOTM3NSBRMTEwNC4zNzUsMzQ1LjkzNzUgMTEwNC4zNzUsMzQzLjEyNSBMMTEwMi42MjUsMzQzLjEyNSBRMTEwMi42MjUsMzQzLjEyNSAxMTAyLjYyNSwzNDUuOTM3NSBaIE0xMTAyLjYyNSwzMzYuNzUgUTExMDIuNjI1LDMzNi43NSAxMTAyLjYyNSwzMzkuNTYyNSBMMTEwNC4zNzUsMzM5LjU2MjUgUTExMDQuMzc1LDMzOS41NjI1IDExMDQuMzc1LDMzNi43NSBMMTEwMi42MjUsMzM2Ljc1IFogTTEwOTguMzc1LDMzNy40Mzc1IEwxMTAzLjMxMjUsMzM3LjQzNzUgTDExMDMuMzEyNSwzMzUuNjg3NSBMMTA5OC4zNzUsMzM1LjY4NzUgTDEwOTguMzc1LDMzNy40Mzc1IFogIiBmaWxsPSIjMDAwMDAwIi8+PHRleHQgZmlsbD0iIzAwMDAwMCIgZm9udC1mYW1pbHk9InNhbnMtc2VyaWYiIGZvbnQtc2l6ZT0iMTQiIGxlbmd0aEFkanVzdD0ic3BhY2luZyIgdGV4dExlbmd0aD0iNTYiIHg9IjExMjEuMjUiIHk9IjM0Ni43NDIyIj5SYW5rTGlzdDwvdGV4dD48bGluZSBzdHlsZT0ic3Ryb2tlOiMxODE4MTg7c3Ryb2tlLXdpZHRoOjAuNTsiIHgxPSIxMDUxIiB4Mj0iMTIxNSIgeTE9IjM1NyIgeTI9IjM1NyIvPjxlbGxpcHNlIGN4PSIxMDYxIiBjeT0iMzY5Ljk5MjIiIGZpbGw9Im5vbmUiIHJ4PSIzIiByeT0iMyIgc3R5bGU9InN0cm9rZTojMDM4MDQ4O3N0cm9rZS13aWR0aDoxLjA7Ii8+PHRleHQgZmlsbD0iIzAwMDAwMCIgZm9udC1mYW1pbHk9InNhbnMtc2VyaWYiIGZvbnQtc2l6ZT0iMTQiIGxlbmd0aEFkanVzdD0ic3BhY2luZyIgdGV4dExlbmd0aD0iNzAiIHg9IjEwNzAiIHk9IjM3NC4yMzQ0Ij5pZDogYmlnaW50PC90ZXh0PjxlbGxpcHNlIGN4PSIxMDYxIiBjeT0iMzg0Ljk3NjYiIGZpbGw9Im5vbmUiIHJ4PSIzIiByeT0iMyIgc3R5bGU9InN0cm9rZTojMDM4MDQ4O3N0cm9rZS13aWR0aDoxLjA7Ii8+PHRleHQgZmlsbD0iIzAwMDAwMCIgZm9udC1mYW1pbHk9InNhbnMtc2VyaWYiIGZvbnQtc2l6ZT0iMTQiIGxlbmd0aEFkanVzdD0ic3BhY2luZyIgdGV4dExlbmd0aD0iMTQwIiB4PSIxMDcwIiB5PSIzODkuMjE4OCI+c29uZ19saXN0X2lkOiBiaWdpbnQ8L3RleHQ+PGVsbGlwc2UgY3g9IjEwNjEiIGN5PSIzOTkuOTYwOSIgZmlsbD0ibm9uZSIgcng9IjMiIHJ5PSIzIiBzdHlsZT0ic3Ryb2tlOiMwMzgwNDg7c3Ryb2tlLXdpZHRoOjEuMDsiLz48dGV4dCBmaWxsPSIjMDAwMDAwIiBmb250LWZhbWlseT0ic2Fucy1zZXJpZiIgZm9udC1zaXplPSIxNCIgbGVuZ3RoQWRqdXN0PSJzcGFjaW5nIiB0ZXh0TGVuZ3RoPSIxMzQiIHg9IjEwNzAiIHk9IjQwNC4yMDMxIj5jb25zdW1lcl9pZDogYmlnaW50PC90ZXh0PjxlbGxpcHNlIGN4PSIxMDYxIiBjeT0iNDE0Ljk0NTMiIGZpbGw9Im5vbmUiIHJ4PSIzIiByeT0iMyIgc3R5bGU9InN0cm9rZTojMDM4MDQ4O3N0cm9rZS13aWR0aDoxLjA7Ii8+PHRleHQgZmlsbD0iIzAwMDAwMCIgZm9udC1mYW1pbHk9InNhbnMtc2VyaWYiIGZvbnQtc2l6ZT0iMTQiIGxlbmd0aEFkanVzdD0ic3BhY2luZyIgdGV4dExlbmd0aD0iNzAiIHg9IjEwNzAiIHk9IjQxOS4xODc1Ij5zY29yZTogaW50PC90ZXh0PjxsaW5lIHN0eWxlPSJzdHJva2U6IzE4MTgxODtzdHJva2Utd2lkdGg6MC41OyIgeDE9IjEwNTEiIHgyPSIxMjE1IiB5MT0iNDI0LjkzNzUiIHkyPSI0MjQuOTM3NSIvPjwvZz48IS0tY2xhc3MgQ29sbGVjdC0tPjxnIGlkPSJlbGVtX0NvbGxlY3QiPjxyZWN0IGNvZGVMaW5lPSI3NCIgZmlsbD0iI0YxRjFGMSIgaGVpZ2h0PSIxMzcuOTA2MyIgaWQ9IkNvbGxlY3QiIHJ4PSIyLjUiIHJ5PSIyLjUiIHN0eWxlPSJzdHJva2U6IzE4MTgxODtzdHJva2Utd2lkdGg6MC41OyIgd2lkdGg9IjE3NSIgeD0iNjI5LjUiIHk9IjMxMCIvPjxlbGxpcHNlIGN4PSI2ODguMjUiIGN5PSIzMjYiIGZpbGw9IiNBREQxQjIiIHJ4PSIxMSIgcnk9IjExIiBzdHlsZT0ic3Ryb2tlOiMxODE4MTg7c3Ryb2tlLXdpZHRoOjEuMDsiLz48cGF0aCBkPSJNNjg1Ljg3NSwzMzAuMjUgTDY4NS44NzUsMzMyIEw2OTAuODEyNSwzMzIgTDY5MC44MTI1LDMzMC4yNSBMNjg1Ljg3NSwzMzAuMjUgWiBNNjg2LjU2MjUsMzMwLjkzNzUgUTY4Ni41NjI1LDMzMC45Mzc1IDY4Ni41NjI1LDMyMS43NSBMNjg0LjgxMjUsMzIxLjc1IFE2ODQuODEyNSwzMjEuNzUgNjg0LjgxMjUsMzMwLjkzNzUgTDY4Ni41NjI1LDMzMC45Mzc1IFogTTY5MC4xMjUsMzMwLjkzNzUgTDY5MS44NzUsMzMwLjkzNzUgUTY5MS44NzUsMzMwLjkzNzUgNjkxLjg3NSwzMjguMTI1IEw2OTAuMTI1LDMyOC4xMjUgUTY5MC4xMjUsMzI4LjEyNSA2OTAuMTI1LDMzMC45Mzc1IFogTTY5MC4xMjUsMzIxLjc1IFE2OTAuMTI1LDMyMS43NSA2OTAuMTI1LDMyNC41NjI1IEw2OTEuODc1LDMyNC41NjI1IFE2OTEuODc1LDMyNC41NjI1IDY5MS44NzUsMzIxLjc1IEw2OTAuMTI1LDMyMS43NSBaIE02ODUuODc1LDMyMi40Mzc1IEw2OTAuODEyNSwzMjIuNDM3NSBMNjkwLjgxMjUsMzIwLjY4NzUgTDY4NS44NzUsMzIwLjY4NzUgTDY4NS44NzUsMzIyLjQzNzUgWiAiIGZpbGw9IiMwMDAwMDAiLz48dGV4dCBmaWxsPSIjMDAwMDAwIiBmb250LWZhbWlseT0ic2Fucy1zZXJpZiIgZm9udC1zaXplPSIxNCIgbGVuZ3RoQWRqdXN0PSJzcGFjaW5nIiB0ZXh0TGVuZ3RoPSI0OSIgeD0iNzA4Ljc1IiB5PSIzMzEuNzQyMiI+Q29sbGVjdDwvdGV4dD48bGluZSBzdHlsZT0ic3Ryb2tlOiMxODE4MTg7c3Ryb2tlLXdpZHRoOjAuNTsiIHgxPSI2MzAuNSIgeDI9IjgwMy41IiB5MT0iMzQyIiB5Mj0iMzQyIi8+PGVsbGlwc2UgY3g9IjY0MC41IiBjeT0iMzU0Ljk5MjIiIGZpbGw9Im5vbmUiIHJ4PSIzIiByeT0iMyIgc3R5bGU9InN0cm9rZTojMDM4MDQ4O3N0cm9rZS13aWR0aDoxLjA7Ii8+PHRleHQgZmlsbD0iIzAwMDAwMCIgZm9udC1mYW1pbHk9InNhbnMtc2VyaWYiIGZvbnQtc2l6ZT0iMTQiIGxlbmd0aEFkanVzdD0ic3BhY2luZyIgdGV4dExlbmd0aD0iNDkiIHg9IjY0OS41IiB5PSIzNTkuMjM0NCI+aWQ6IGludDwvdGV4dD48ZWxsaXBzZSBjeD0iNjQwLjUiIGN5PSIzNjkuOTc2NiIgZmlsbD0ibm9uZSIgcng9IjMiIHJ5PSIzIiBzdHlsZT0ic3Ryb2tlOiMwMzgwNDg7c3Ryb2tlLXdpZHRoOjEuMDsiLz48dGV4dCBmaWxsPSIjMDAwMDAwIiBmb250LWZhbWlseT0ic2Fucy1zZXJpZiIgZm9udC1zaXplPSIxNCIgbGVuZ3RoQWRqdXN0PSJzcGFjaW5nIiB0ZXh0TGVuZ3RoPSI4NCIgeD0iNjQ5LjUiIHk9IjM3NC4yMTg4Ij51c2VyX2lkOiBpbnQ8L3RleHQ+PGVsbGlwc2UgY3g9IjY0MC41IiBjeT0iMzg0Ljk2MDkiIGZpbGw9Im5vbmUiIHJ4PSIzIiByeT0iMyIgc3R5bGU9InN0cm9rZTojMDM4MDQ4O3N0cm9rZS13aWR0aDoxLjA7Ii8+PHRleHQgZmlsbD0iIzAwMDAwMCIgZm9udC1mYW1pbHk9InNhbnMtc2VyaWYiIGZvbnQtc2l6ZT0iMTQiIGxlbmd0aEFkanVzdD0ic3BhY2luZyIgdGV4dExlbmd0aD0iODQiIHg9IjY0OS41IiB5PSIzODkuMjAzMSI+c29uZ19pZDogaW50PC90ZXh0PjxlbGxpcHNlIGN4PSI2NDAuNSIgY3k9IjM5OS45NDUzIiBmaWxsPSJub25lIiByeD0iMyIgcnk9IjMiIHN0eWxlPSJzdHJva2U6IzAzODA0ODtzdHJva2Utd2lkdGg6MS4wOyIvPjx0ZXh0IGZpbGw9IiMwMDAwMDAiIGZvbnQtZmFtaWx5PSJzYW5zLXNlcmlmIiBmb250LXNpemU9IjE0IiBsZW5ndGhBZGp1c3Q9InNwYWNpbmciIHRleHRMZW5ndGg9IjExOSIgeD0iNjQ5LjUiIHk9IjQwNC4xODc1Ij5zb25nX2xpc3RfaWQ6IGludDwvdGV4dD48ZWxsaXBzZSBjeD0iNjQwLjUiIGN5PSI0MTQuOTI5NyIgZmlsbD0ibm9uZSIgcng9IjMiIHJ5PSIzIiBzdHlsZT0ic3Ryb2tlOiMwMzgwNDg7c3Ryb2tlLXdpZHRoOjEuMDsiLz48dGV4dCBmaWxsPSIjMDAwMDAwIiBmb250LWZhbWlseT0ic2Fucy1zZXJpZiIgZm9udC1zaXplPSIxNCIgbGVuZ3RoQWRqdXN0PSJzcGFjaW5nIiB0ZXh0TGVuZ3RoPSI5MSIgeD0iNjQ5LjUiIHk9IjQxOS4xNzE5Ij50eXBlOiB0aW55aW50PC90ZXh0PjxlbGxpcHNlIGN4PSI2NDAuNSIgY3k9IjQyOS45MTQxIiBmaWxsPSJub25lIiByeD0iMyIgcnk9IjMiIHN0eWxlPSJzdHJva2U6IzAzODA0ODtzdHJva2Utd2lkdGg6MS4wOyIvPjx0ZXh0IGZpbGw9IiMwMDAwMDAiIGZvbnQtZmFtaWx5PSJzYW5zLXNlcmlmIiBmb250LXNpemU9IjE0IiBsZW5ndGhBZGp1c3Q9InNwYWNpbmciIHRleHRMZW5ndGg9IjE0OSIgeD0iNjQ5LjUiIHk9IjQzNC4xNTYzIj5jcmVhdGVfdGltZTogZGF0ZXRpbWU8L3RleHQ+PGxpbmUgc3R5bGU9InN0cm9rZTojMTgxODE4O3N0cm9rZS13aWR0aDowLjU7IiB4MT0iNjMwLjUiIHgyPSI4MDMuNSIgeTE9IjQzOS45MDYzIiB5Mj0iNDM5LjkwNjMiLz48L2c+PCEtLWNsYXNzIExpc3RTb25nLS0+PGcgaWQ9ImVsZW1fTGlzdFNvbmciPjxyZWN0IGNvZGVMaW5lPSI4MyIgZmlsbD0iI0YxRjFGMSIgaGVpZ2h0PSI5Mi45NTMxIiBpZD0iTGlzdFNvbmciIHJ4PSIyLjUiIHJ5PSIyLjUiIHN0eWxlPSJzdHJva2U6IzE4MTgxODtzdHJva2Utd2lkdGg6MC41OyIgd2lkdGg9IjE0NSIgeD0iNDQ5LjUiIHk9IjMzMi41Ii8+PGVsbGlwc2UgY3g9IjQ5MC4xNSIgY3k9IjM0OC41IiBmaWxsPSIjQUREMUIyIiByeD0iMTEiIHJ5PSIxMSIgc3R5bGU9InN0cm9rZTojMTgxODE4O3N0cm9rZS13aWR0aDoxLjA7Ii8+PHBhdGggZD0iTTQ4Ny43NzUsMzUyLjc1IEw0ODcuNzc1LDM1NC41IEw0OTIuNzEyNSwzNTQuNSBMNDkyLjcxMjUsMzUyLjc1IEw0ODcuNzc1LDM1Mi43NSBaIE00ODguNDYyNSwzNTMuNDM3NSBRNDg4LjQ2MjUsMzUzLjQzNzUgNDg4LjQ2MjUsMzQ0LjI1IEw0ODYuNzEyNSwzNDQuMjUgUTQ4Ni43MTI1LDM0NC4yNSA0ODYuNzEyNSwzNTMuNDM3NSBMNDg4LjQ2MjUsMzUzLjQzNzUgWiBNNDkyLjAyNSwzNTMuNDM3NSBMNDkzLjc3NSwzNTMuNDM3NSBRNDkzLjc3NSwzNTMuNDM3NSA0OTMuNzc1LDM1MC42MjUgTDQ5Mi4wMjUsMzUwLjYyNSBRNDkyLjAyNSwzNTAuNjI1IDQ5Mi4wMjUsMzUzLjQzNzUgWiBNNDkyLjAyNSwzNDQuMjUgUTQ5Mi4wMjUsMzQ0LjI1IDQ5Mi4wMjUsMzQ3LjA2MjUgTDQ5My43NzUsMzQ3LjA2MjUgUTQ5My43NzUsMzQ3LjA2MjUgNDkzLjc3NSwzNDQuMjUgTDQ5Mi4wMjUsMzQ0LjI1IFogTTQ4Ny43NzUsMzQ0LjkzNzUgTDQ5Mi43MTI1LDM0NC45Mzc1IEw0OTIuNzEyNSwzNDMuMTg3NSBMNDg3Ljc3NSwzNDMuMTg3NSBMNDg3Ljc3NSwzNDQuOTM3NSBaICIgZmlsbD0iIzAwMDAwMCIvPjx0ZXh0IGZpbGw9IiMwMDAwMDAiIGZvbnQtZmFtaWx5PSJzYW5zLXNlcmlmIiBmb250LXNpemU9IjE0IiBsZW5ndGhBZGp1c3Q9InNwYWNpbmciIHRleHRMZW5ndGg9IjU2IiB4PSI1MDkuODUiIHk9IjM1NC4yNDIyIj5MaXN0U29uZzwvdGV4dD48bGluZSBzdHlsZT0ic3Ryb2tlOiMxODE4MTg7c3Ryb2tlLXdpZHRoOjAuNTsiIHgxPSI0NTAuNSIgeDI9IjU5My41IiB5MT0iMzY0LjUiIHkyPSIzNjQuNSIvPjxlbGxpcHNlIGN4PSI0NjAuNSIgY3k9IjM3Ny40OTIyIiBmaWxsPSJub25lIiByeD0iMyIgcnk9IjMiIHN0eWxlPSJzdHJva2U6IzAzODA0ODtzdHJva2Utd2lkdGg6MS4wOyIvPjx0ZXh0IGZpbGw9IiMwMDAwMDAiIGZvbnQtZmFtaWx5PSJzYW5zLXNlcmlmIiBmb250LXNpemU9IjE0IiBsZW5ndGhBZGp1c3Q9InNwYWNpbmciIHRleHRMZW5ndGg9IjQ5IiB4PSI0NjkuNSIgeT0iMzgxLjczNDQiPmlkOiBpbnQ8L3RleHQ+PGVsbGlwc2UgY3g9IjQ2MC41IiBjeT0iMzkyLjQ3NjYiIGZpbGw9Im5vbmUiIHJ4PSIzIiByeT0iMyIgc3R5bGU9InN0cm9rZTojMDM4MDQ4O3N0cm9rZS13aWR0aDoxLjA7Ii8+PHRleHQgZmlsbD0iIzAwMDAwMCIgZm9udC1mYW1pbHk9InNhbnMtc2VyaWYiIGZvbnQtc2l6ZT0iMTQiIGxlbmd0aEFkanVzdD0ic3BhY2luZyIgdGV4dExlbmd0aD0iODQiIHg9IjQ2OS41IiB5PSIzOTYuNzE4OCI+c29uZ19pZDogaW50PC90ZXh0PjxlbGxpcHNlIGN4PSI0NjAuNSIgY3k9IjQwNy40NjA5IiBmaWxsPSJub25lIiByeD0iMyIgcnk9IjMiIHN0eWxlPSJzdHJva2U6IzAzODA0ODtzdHJva2Utd2lkdGg6MS4wOyIvPjx0ZXh0IGZpbGw9IiMwMDAwMDAiIGZvbnQtZmFtaWx5PSJzYW5zLXNlcmlmIiBmb250LXNpemU9IjE0IiBsZW5ndGhBZGp1c3Q9InNwYWNpbmciIHRleHRMZW5ndGg9IjExOSIgeD0iNDY5LjUiIHk9IjQxMS43MDMxIj5zb25nX2xpc3RfaWQ6IGludDwvdGV4dD48bGluZSBzdHlsZT0ic3Ryb2tlOiMxODE4MTg7c3Ryb2tlLXdpZHRoOjAuNTsiIHgxPSI0NTAuNSIgeDI9IjU5My41IiB5MT0iNDE3LjQ1MzEiIHkyPSI0MTcuNDUzMSIvPjwvZz48IS0tY2xhc3MgVXNlclN1cHBvcnQtLT48ZyBpZD0iZWxlbV9Vc2VyU3VwcG9ydCI+PHJlY3QgY29kZUxpbmU9Ijg5IiBmaWxsPSIjRjFGMUYxIiBoZWlnaHQ9IjkyLjk1MzEiIGlkPSJVc2VyU3VwcG9ydCIgcng9IjIuNSIgcnk9IjIuNSIgc3R5bGU9InN0cm9rZTojMTgxODE4O3N0cm9rZS13aWR0aDowLjU7IiB3aWR0aD0iMTY4IiB4PSIxMjUxIiB5PSIzMzIuNSIvPjxlbGxpcHNlIGN4PSIxMjkyLjU1IiBjeT0iMzQ4LjUiIGZpbGw9IiNBREQxQjIiIHJ4PSIxMSIgcnk9IjExIiBzdHlsZT0ic3Ryb2tlOiMxODE4MTg7c3Ryb2tlLXdpZHRoOjEuMDsiLz48cGF0aCBkPSJNMTI5MC4xNzUsMzUyLjc1IEwxMjkwLjE3NSwzNTQuNSBMMTI5NS4xMTI1LDM1NC41IEwxMjk1LjExMjUsMzUyLjc1IEwxMjkwLjE3NSwzNTIuNzUgWiBNMTI5MC44NjI1LDM1My40Mzc1IFExMjkwLjg2MjUsMzUzLjQzNzUgMTI5MC44NjI1LDM0NC4yNSBMMTI4OS4xMTI1LDM0NC4yNSBRMTI4OS4xMTI1LDM0NC4yNSAxMjg5LjExMjUsMzUzLjQzNzUgTDEyOTAuODYyNSwzNTMuNDM3NSBaIE0xMjk0LjQyNSwzNTMuNDM3NSBMMTI5Ni4xNzUsMzUzLjQzNzUgUTEyOTYuMTc1LDM1My40Mzc1IDEyOTYuMTc1LDM1MC42MjUgTDEyOTQuNDI1LDM1MC42MjUgUTEyOTQuNDI1LDM1MC42MjUgMTI5NC40MjUsMzUzLjQzNzUgWiBNMTI5NC40MjUsMzQ0LjI1IFExMjk0LjQyNSwzNDQuMjUgMTI5NC40MjUsMzQ3LjA2MjUgTDEyOTYuMTc1LDM0Ny4wNjI1IFExMjk2LjE3NSwzNDcuMDYyNSAxMjk2LjE3NSwzNDQuMjUgTDEyOTQuNDI1LDM0NC4yNSBaIE0xMjkwLjE3NSwzNDQuOTM3NSBMMTI5NS4xMTI1LDM0NC45Mzc1IEwxMjk1LjExMjUsMzQzLjE4NzUgTDEyOTAuMTc1LDM0My4xODc1IEwxMjkwLjE3NSwzNDQuOTM3NSBaICIgZmlsbD0iIzAwMDAwMCIvPjx0ZXh0IGZpbGw9IiMwMDAwMDAiIGZvbnQtZmFtaWx5PSJzYW5zLXNlcmlmIiBmb250LXNpemU9IjE0IiBsZW5ndGhBZGp1c3Q9InNwYWNpbmciIHRleHRMZW5ndGg9Ijc3IiB4PSIxMzEyLjQ1IiB5PSIzNTQuMjQyMiI+VXNlclN1cHBvcnQ8L3RleHQ+PGxpbmUgc3R5bGU9InN0cm9rZTojMTgxODE4O3N0cm9rZS13aWR0aDowLjU7IiB4MT0iMTI1MiIgeDI9IjE0MTgiIHkxPSIzNjQuNSIgeTI9IjM2NC41Ii8+PGVsbGlwc2UgY3g9IjEyNjIiIGN5PSIzNzcuNDkyMiIgZmlsbD0ibm9uZSIgcng9IjMiIHJ5PSIzIiBzdHlsZT0ic3Ryb2tlOiMwMzgwNDg7c3Ryb2tlLXdpZHRoOjEuMDsiLz48dGV4dCBmaWxsPSIjMDAwMDAwIiBmb250LWZhbWlseT0ic2Fucy1zZXJpZiIgZm9udC1zaXplPSIxNCIgbGVuZ3RoQWRqdXN0PSJzcGFjaW5nIiB0ZXh0TGVuZ3RoPSI0OSIgeD0iMTI3MSIgeT0iMzgxLjczNDQiPmlkOiBpbnQ8L3RleHQ+PGVsbGlwc2UgY3g9IjEyNjIiIGN5PSIzOTIuNDc2NiIgZmlsbD0ibm9uZSIgcng9IjMiIHJ5PSIzIiBzdHlsZT0ic3Ryb2tlOiMwMzgwNDg7c3Ryb2tlLXdpZHRoOjEuMDsiLz48dGV4dCBmaWxsPSIjMDAwMDAwIiBmb250LWZhbWlseT0ic2Fucy1zZXJpZiIgZm9udC1zaXplPSIxNCIgbGVuZ3RoQWRqdXN0PSJzcGFjaW5nIiB0ZXh0TGVuZ3RoPSIxMDciIHg9IjEyNzEiIHk9IjM5Ni43MTg4Ij5jb21tZW50X2lkOiBpbnQ8L3RleHQ+PGxpbmUgc3R5bGU9InN0cm9rZTojMTgxODE4O3N0cm9rZS13aWR0aDowLjU7IiB4MT0iMTI1MiIgeDI9IjE0MTgiIHkxPSI0MDIuNDY4OCIgeTI9IjQwMi40Njg4Ii8+PGVsbGlwc2UgY3g9IjEyNjIiIGN5PSI0MTUuNDYwOSIgZmlsbD0iIzg0QkU4NCIgcng9IjMiIHJ5PSIzIiBzdHlsZT0ic3Ryb2tlOiMwMzgwNDg7c3Ryb2tlLXdpZHRoOjEuMDsiLz48dGV4dCBmaWxsPSIjMDAwMDAwIiBmb250LWZhbWlseT0ic2Fucy1zZXJpZiIgZm9udC1zaXplPSIxNCIgbGVuZ3RoQWRqdXN0PSJzcGFjaW5nIiB0ZXh0TGVuZ3RoPSIxNDIiIHg9IjEyNzEiIHk9IjQxOS43MDMxIj51c2VyX2lkOiB2YXJjaGFyKDQ1KTwvdGV4dD48L2c+PCEtLWxpbmsgQ29uc3VtZXIgdG8gQ29tbWVudC0tPjxnIGlkPSJsaW5rX0NvbnN1bWVyX0NvbW1lbnQiPjxwYXRoIGNvZGVMaW5lPSI5NSIgZD0iTTEwNDUsMjIwLjI5IEMxMDM4LjUyLDIzNS43IDEwMzEuMTgsMjUxLjA1IDEwMjMsMjY1IEMxMDE3LjA4LDI3NS4xIDEwMTMuODEzNCwyODAuMzc3NiAxMDA2LjU1MzQsMjkwLjEyNzYgIiBmaWxsPSJub25lIiBpZD0iQ29uc3VtZXItdG8tQ29tbWVudCIgc3R5bGU9InN0cm9rZTojMTgxODE4O3N0cm9rZS13aWR0aDoxLjA7Ii8+PHBvbHlnb24gZmlsbD0iIzE4MTgxOCIgcG9pbnRzPSIxMDAyLjk3LDI5NC45NCwxMDExLjU1MzQsMjkwLjExMDMsMTAwNS45NTYyLDI5MC45Mjk3LDEwMDUuMTM2OCwyODUuMzMyNSwxMDAyLjk3LDI5NC45NCIgc3R5bGU9InN0cm9rZTojMTgxODE4O3N0cm9rZS13aWR0aDoxLjA7Ii8+PHRleHQgZmlsbD0iIzAwMDAwMCIgZm9udC1mYW1pbHk9InNhbnMtc2VyaWYiIGZvbnQtc2l6ZT0iMTMiIGxlbmd0aEFkanVzdD0ic3BhY2luZyIgdGV4dExlbmd0aD0iMjUiIHg9IjEwMzAiIHk9IjI2My4yODkxIj4xLi4qPC90ZXh0PjwvZz48IS0tbGluayBDb25zdW1lciB0byBDb2xsZWN0LS0+PGcgaWQ9ImxpbmtfQ29uc3VtZXJfQ29sbGVjdCI+PHBhdGggY29kZUxpbmU9Ijk2IiBkPSJNOTg3LjE4LDE5NC43NiBDOTU3LjA1LDIxOS4wMSA5MjIuNjQsMjQ0LjU5IDg4OSwyNjUgQzg2MS4xMSwyODEuOTMgODQ5LjksMjc4LjA5IDgyMiwyOTUgQzgxNC40NSwyOTkuNTggODExLjczODMsMzAxLjE2OTEgODA0LjIyODMsMzA2LjQ0OTEgIiBmaWxsPSJub25lIiBpZD0iQ29uc3VtZXItdG8tQ29sbGVjdCIgc3R5bGU9InN0cm9rZTojMTgxODE4O3N0cm9rZS13aWR0aDoxLjA7Ii8+PHBvbHlnb24gZmlsbD0iIzE4MTgxOCIgcG9pbnRzPSI3OTkuMzIsMzA5LjksODA4Ljk4MywzMDcuOTk1OSw4MDMuNDEwMywzMDcuMDI0Myw4MDQuMzgxOSwzMDEuNDUxNSw3OTkuMzIsMzA5LjkiIHN0eWxlPSJzdHJva2U6IzE4MTgxODtzdHJva2Utd2lkdGg6MS4wOyIvPjx0ZXh0IGZpbGw9IiMwMDAwMDAiIGZvbnQtZmFtaWx5PSJzYW5zLXNlcmlmIiBmb250LXNpemU9IjEzIiBsZW5ndGhBZGp1c3Q9InNwYWNpbmciIHRleHRMZW5ndGg9IjI1IiB4PSI5MTIiIHk9IjI2My4yODkxIj4xLi4qPC90ZXh0PjwvZz48IS0tbGluayBDb25zdW1lciB0byBSYW5rTGlzdC0tPjxnIGlkPSJsaW5rX0NvbnN1bWVyX1JhbmtMaXN0Ij48cGF0aCBjb2RlTGluZT0iOTciIGQ9Ik0xMTAwLjY1LDIyMC4xNiBDMTEwOC4wMiwyNTYuMSAxMTE0LjczNywyODguODUxOCAxMTIwLjg4NywzMTguOTAxOCAiIGZpbGw9Im5vbmUiIGlkPSJDb25zdW1lci10by1SYW5rTGlzdCIgc3R5bGU9InN0cm9rZTojMTgxODE4O3N0cm9rZS13aWR0aDoxLjA7Ii8+PHBvbHlnb24gZmlsbD0iIzE4MTgxOCIgcG9pbnRzPSIxMTIyLjA5LDMyNC43OCwxMTI0LjIwNDIsMzE1LjE2MDgsMTEyMS4wODc1LDMxOS44ODE1LDExMTYuMzY2NywzMTYuNzY0OCwxMTIyLjA5LDMyNC43OCIgc3R5bGU9InN0cm9rZTojMTgxODE4O3N0cm9rZS13aWR0aDoxLjA7Ii8+PHRleHQgZmlsbD0iIzAwMDAwMCIgZm9udC1mYW1pbHk9InNhbnMtc2VyaWYiIGZvbnQtc2l6ZT0iMTMiIGxlbmd0aEFkanVzdD0ic3BhY2luZyIgdGV4dExlbmd0aD0iMjUiIHg9IjExMTAiIHk9IjI2My4yODkxIj4xLi4qPC90ZXh0PjwvZz48IS0tbGluayBDb25zdW1lciB0byBVc2VyU3VwcG9ydC0tPjxnIGlkPSJsaW5rX0NvbnN1bWVyX1VzZXJTdXBwb3J0Ij48cGF0aCBjb2RlTGluZT0iOTgiIGQ9Ik0xMTcwLjcsMjA4Ljg5IEMxMjExLjQ0LDI1MC44MiAxMjUzLjM1OTMsMjkzLjk2NjMgMTI4Ni4zMjkzLDMyNy45MDYzICIgZmlsbD0ibm9uZSIgaWQ9IkNvbnN1bWVyLXRvLVVzZXJTdXBwb3J0IiBzdHlsZT0ic3Ryb2tlOiMxODE4MTg7c3Ryb2tlLXdpZHRoOjEuMDsiLz48cG9seWdvbiBmaWxsPSIjMTgxODE4IiBwb2ludHM9IjEyOTAuNTEsMzMyLjIxLDEyODcuMTA4MSwzMjIuOTY3MywxMjg3LjAyNjEsMzI4LjYyMzYsMTI4MS4zNjk4LDMyOC41NDE2LDEyOTAuNTEsMzMyLjIxIiBzdHlsZT0ic3Ryb2tlOiMxODE4MTg7c3Ryb2tlLXdpZHRoOjEuMDsiLz48dGV4dCBmaWxsPSIjMDAwMDAwIiBmb250LWZhbWlseT0ic2Fucy1zZXJpZiIgZm9udC1zaXplPSIxMyIgbGVuZ3RoQWRqdXN0PSJzcGFjaW5nIiB0ZXh0TGVuZ3RoPSIyNSIgeD0iMTIyMyIgeT0iMjYzLjI4OTEiPjEuLio8L3RleHQ+PC9nPjwhLS1saW5rIFNvbmdMaXN0IHRvIENvbW1lbnQtLT48ZyBpZD0ibGlua19Tb25nTGlzdF9Db21tZW50Ij48cGF0aCBjb2RlTGluZT0iMTAwIiBkPSJNODQyLjksMTc1LjEyIEM4NDQuMzksMjAzLjA5IDg0OC4zOSwyMzYuMzcgODU4LDI2NSBDODYxLjM2LDI3NS4wMiA4NjMuMDUzNiwyNzkuNzMgODY3Ljk3MzYsMjg5LjUxICIgZmlsbD0ibm9uZSIgaWQ9IlNvbmdMaXN0LXRvLUNvbW1lbnQiIHN0eWxlPSJzdHJva2U6IzE4MTgxODtzdHJva2Utd2lkdGg6MS4wOyIvPjxwb2x5Z29uIGZpbGw9IiMxODE4MTgiIHBvaW50cz0iODcwLjY3LDI5NC44Nyw4NzAuMTk4NywyODUuMDMyNCw4NjguNDIzLDI5MC40MDM0LDg2My4wNTIsMjg4LjYyNzcsODcwLjY3LDI5NC44NyIgc3R5bGU9InN0cm9rZTojMTgxODE4O3N0cm9rZS13aWR0aDoxLjA7Ii8+PHRleHQgZmlsbD0iIzAwMDAwMCIgZm9udC1mYW1pbHk9InNhbnMtc2VyaWYiIGZvbnQtc2l6ZT0iMTMiIGxlbmd0aEFkanVzdD0ic3BhY2luZyIgdGV4dExlbmd0aD0iMjUiIHg9Ijg1OSIgeT0iMjYzLjI4OTEiPjEuLio8L3RleHQ+PC9nPjwhLS1saW5rIFNvbmdMaXN0IHRvIFJhbmtMaXN0LS0+PGcgaWQ9ImxpbmtfU29uZ0xpc3RfUmFua0xpc3QiPjxwYXRoIGNvZGVMaW5lPSIxMDEiIGQ9Ik04OTYuMTQsMTc1LjIgQzkyMi40OSwyMDMuODIgOTU1LjU3LDIzNy42MSA5ODgsMjY1IEMxMDA2LjA4LDI4MC4yNyAxMDEzLjA2LDI4MC44MSAxMDMyLDI5NSBDMTA0NC41MywzMDQuMzkgMTA1Mi45OTExLDMxMC45NjkxIDEwNjUuNDYxMSwzMjEuMDg5MSAiIGZpbGw9Im5vbmUiIGlkPSJTb25nTGlzdC10by1SYW5rTGlzdCIgc3R5bGU9InN0cm9rZTojMTgxODE4O3N0cm9rZS13aWR0aDoxLjA7Ii8+PHBvbHlnb24gZmlsbD0iIzE4MTgxOCIgcG9pbnRzPSIxMDcwLjEyLDMyNC44NywxMDY1LjY1MjMsMzE2LjA5MjgsMTA2Ni4yMzc2LDMyMS43MTkzLDEwNjAuNjExMSwzMjIuMzA0NiwxMDcwLjEyLDMyNC44NyIgc3R5bGU9InN0cm9rZTojMTgxODE4O3N0cm9rZS13aWR0aDoxLjA7Ii8+PHRleHQgZmlsbD0iIzAwMDAwMCIgZm9udC1mYW1pbHk9InNhbnMtc2VyaWYiIGZvbnQtc2l6ZT0iMTMiIGxlbmd0aEFkanVzdD0ic3BhY2luZyIgdGV4dExlbmd0aD0iMjUiIHg9Ijk4OSIgeT0iMjYzLjI4OTEiPjEuLio8L3RleHQ+PC9nPjwhLS1saW5rIFNvbmdMaXN0IHRvIENvbGxlY3QtLT48ZyBpZD0ibGlua19Tb25nTGlzdF9Db2xsZWN0Ij48cGF0aCBjb2RlTGluZT0iMTAyIiBkPSJNNzc0LjM0LDE3NS4yIEM3NTQuNTMsMTk2LjcgNzM1LjI0LDIyMi40NiA3MjQsMjUwIEM3MTYuNDMsMjY4LjU0IDcxMy41Nzk2LDI4My44NzU2IDcxMi43MTk2LDMwMy43MzU2ICIgZmlsbD0ibm9uZSIgaWQ9IlNvbmdMaXN0LXRvLUNvbGxlY3QiIHN0eWxlPSJzdHJva2U6IzE4MTgxODtzdHJva2Utd2lkdGg6MS4wOyIvPjxwb2x5Z29uIGZpbGw9IiMxODE4MTgiIHBvaW50cz0iNzEyLjQ2LDMwOS43Myw3MTYuODQ1NiwzMDAuOTExNSw3MTIuNjc2MywzMDQuNzM0Nyw3MDguODUzMSwzMDAuNTY1NCw3MTIuNDYsMzA5LjczIiBzdHlsZT0ic3Ryb2tlOiMxODE4MTg7c3Ryb2tlLXdpZHRoOjEuMDsiLz48dGV4dCBmaWxsPSIjMDAwMDAwIiBmb250LWZhbWlseT0ic2Fucy1zZXJpZiIgZm9udC1zaXplPSIxMyIgbGVuZ3RoQWRqdXN0PSJzcGFjaW5nIiB0ZXh0TGVuZ3RoPSIyNSIgeD0iNzI1IiB5PSIyNjMuMjg5MSI+MS4uKjwvdGV4dD48L2c+PCEtLWxpbmsgU29uZ0xpc3QgdG8gTGlzdFNvbmctLT48ZyBpZD0ibGlua19Tb25nTGlzdF9MaXN0U29uZyI+PHBhdGggY29kZUxpbmU9IjEwMyIgZD0iTTc2Mi4zNCwxNzQuOTUgQzcxNy4zOCwyMDkuMjkgNjYwLjc4LDI1My41NyA2MTIsMjk1IEM1OTguMDcsMzA2LjgzIDU4Ny43NTAxLDMxNi4wMTE3IDU3NC4zMzAxLDMyOC4zOTE3ICIgZmlsbD0ibm9uZSIgaWQ9IlNvbmdMaXN0LXRvLUxpc3RTb25nIiBzdHlsZT0ic3Ryb2tlOiMxODE4MTg7c3Ryb2tlLXdpZHRoOjEuMDsiLz48cG9seWdvbiBmaWxsPSIjMTgxODE4IiBwb2ludHM9IjU2OS45MiwzMzIuNDYsNTc5LjI0NzMsMzI5LjI5NzYsNTczLjU5NTEsMzI5LjA2OTcsNTczLjgyMjksMzIzLjQxNzUsNTY5LjkyLDMzMi40NiIgc3R5bGU9InN0cm9rZTojMTgxODE4O3N0cm9rZS13aWR0aDoxLjA7Ii8+PHRleHQgZmlsbD0iIzAwMDAwMCIgZm9udC1mYW1pbHk9InNhbnMtc2VyaWYiIGZvbnQtc2l6ZT0iMTMiIGxlbmd0aEFkanVzdD0ic3BhY2luZyIgdGV4dExlbmd0aD0iMjUiIHg9IjY2MyIgeT0iMjYzLjI4OTEiPjEuLio8L3RleHQ+PC9nPjwhLS1saW5rIFNvbmcgdG8gQ29tbWVudC0tPjxnIGlkPSJsaW5rX1NvbmdfQ29tbWVudCI+PHBhdGggY29kZUxpbmU9IjEwNSIgZD0iTTY0My42NiwxNzEuNjYgQzY5Ni4wNywyMDYuNDEgNzYzLjYsMjUyLjE5IDgyMiwyOTUgQzgyNy43MiwyOTkuMTkgODI4Ljc4MTYsMjk5LjkzMTQgODM0LjY0MTYsMzA0LjM4MTQgIiBmaWxsPSJub25lIiBpZD0iU29uZy10by1Db21tZW50IiBzdHlsZT0ic3Ryb2tlOiMxODE4MTg7c3Ryb2tlLXdpZHRoOjEuMDsiLz48cG9seWdvbiBmaWxsPSIjMTgxODE4IiBwb2ludHM9IjgzOS40MiwzMDguMDEsODM0LjY3MTUsMjk5LjM4MTUsODM1LjQzOCwzMDQuOTg2MSw4MjkuODMzMywzMDUuNzUyNiw4MzkuNDIsMzA4LjAxIiBzdHlsZT0ic3Ryb2tlOiMxODE4MTg7c3Ryb2tlLXdpZHRoOjEuMDsiLz48dGV4dCBmaWxsPSIjMDAwMDAwIiBmb250LWZhbWlseT0ic2Fucy1zZXJpZiIgZm9udC1zaXplPSIxMyIgbGVuZ3RoQWRqdXN0PSJzcGFjaW5nIiB0ZXh0TGVuZ3RoPSIyNSIgeD0iNzgwIiB5PSIyNjMuMjg5MSI+MS4uKjwvdGV4dD48L2c+PCEtLWxpbmsgU29uZyB0byBDb2xsZWN0LS0+PGcgaWQ9ImxpbmtfU29uZ19Db2xsZWN0Ij48cGF0aCBjb2RlTGluZT0iMTA2IiBkPSJNNTY2LjI0LDIwNS4xMiBDNTcxLjEzLDIyNS43NSA1NzguMzUsMjQ2LjkgNTg5LDI2NSBDNTk1LjU0LDI3Ni4xMSA2MDcuOTAyNiwyODguNzY5OCA2MjcuMzQyNiwzMDUuODQ5OCAiIGZpbGw9Im5vbmUiIGlkPSJTb25nLXRvLUNvbGxlY3QiIHN0eWxlPSJzdHJva2U6IzE4MTgxODtzdHJva2Utd2lkdGg6MS4wOyIvPjxwb2x5Z29uIGZpbGw9IiMxODE4MTgiIHBvaW50cz0iNjMxLjg1LDMwOS44MSw2MjcuNzI5LDMwMC44NjQ3LDYyOC4wOTM4LDMwNi41MDk4LDYyMi40NDg3LDMwNi44NzQ2LDYzMS44NSwzMDkuODEiIHN0eWxlPSJzdHJva2U6IzE4MTgxODtzdHJva2Utd2lkdGg6MS4wOyIvPjx0ZXh0IGZpbGw9IiMwMDAwMDAiIGZvbnQtZmFtaWx5PSJzYW5zLXNlcmlmIiBmb250LXNpemU9IjEzIiBsZW5ndGhBZGp1c3Q9InNwYWNpbmciIHRleHRMZW5ndGg9IjI1IiB4PSI1OTAiIHk9IjI2My4yODkxIj4xLi4qPC90ZXh0PjwvZz48IS0tbGluayBTb25nIHRvIFNpbmdlci0tPjxnIGlkPSJsaW5rX1NvbmdfU2luZ2VyIj48cGF0aCBjb2RlTGluZT0iMTA3IiBkPSJNNDcxLDIwNS4xOCBDNDQxLjI3LDIzNi44OSA0MTIuMzQzNCwyNjcuNzUyNSAzODMuOTAzNCwyOTguMDkyNSAiIGZpbGw9Im5vbmUiIGlkPSJTb25nLXRvLVNpbmdlciIgc3R5bGU9InN0cm9rZTojMTgxODE4O3N0cm9rZS13aWR0aDoxLjA7Ii8+PHBvbHlnb24gZmlsbD0iIzE4MTgxOCIgcG9pbnRzPSIzNzkuOCwzMDIuNDcsMzg4Ljg3MzQsMjk4LjYzOTMsMzgzLjIxOTUsMjk4LjgyMjEsMzgzLjAzNjcsMjkzLjE2ODIsMzc5LjgsMzAyLjQ3IiBzdHlsZT0ic3Ryb2tlOiMxODE4MTg7c3Ryb2tlLXdpZHRoOjEuMDsiLz48dGV4dCBmaWxsPSIjMDAwMDAwIiBmb250LWZhbWlseT0ic2Fucy1zZXJpZiIgZm9udC1zaXplPSIxMyIgbGVuZ3RoQWRqdXN0PSJzcGFjaW5nIiB0ZXh0TGVuZ3RoPSI3IiB4PSI0MjciIHk9IjI2My4yODkxIj4xPC90ZXh0PjwvZz48IS0tbGluayBTb25nIHRvIExpc3RTb25nLS0+PGcgaWQ9ImxpbmtfU29uZ19MaXN0U29uZyI+PHBhdGggY29kZUxpbmU9IjEwOCIgZD0iTTUyOC40MiwyMDUuMzMgQzUyNC45MiwyMjAuMTMgNTIxLjkxLDIzNS40IDUyMCwyNTAgQzUxOS4xNCwyNTYuNjEgNTE5Ljk0LDI1OC4zMyA1MjAsMjY1IEM1MjAuMiwyODcuMTcgNTIwLjQ5MzQsMzA1Ljc5MTEgNTIwLjg5MzQsMzI2LjM3MTEgIiBmaWxsPSJub25lIiBpZD0iU29uZy10by1MaXN0U29uZyIgc3R5bGU9InN0cm9rZTojMTgxODE4O3N0cm9rZS13aWR0aDoxLjA7Ii8+PHBvbHlnb24gZmlsbD0iIzE4MTgxOCIgcG9pbnRzPSI1MjEuMDEsMzMyLjM3LDUyNC44MzQ0LDMyMy4yOTQsNTIwLjkxMjgsMzI3LjM3MDksNTE2LjgzNTksMzIzLjQ0OTQsNTIxLjAxLDMzMi4zNyIgc3R5bGU9InN0cm9rZTojMTgxODE4O3N0cm9rZS13aWR0aDoxLjA7Ii8+PHRleHQgZmlsbD0iIzAwMDAwMCIgZm9udC1mYW1pbHk9InNhbnMtc2VyaWYiIGZvbnQtc2l6ZT0iMTMiIGxlbmd0aEFkanVzdD0ic3BhY2luZyIgdGV4dExlbmd0aD0iMjUiIHg9IjUyMSIgeT0iMjYzLjI4OTEiPjEuLio8L3RleHQ+PC9nPjwhLS1saW5rIEFkbWluIHRvIEJhbm5lci0tPjxnIGlkPSJsaW5rX0FkbWluX0Jhbm5lciI+PHBhdGggY29kZUxpbmU9IjExMCIgZD0iTTk1LDE2MC4xIEM5NSwyMTAuOTIgOTUsMjg2LjE5IDk1LDMzMy44ICIgZmlsbD0ibm9uZSIgaWQ9IkFkbWluLXRvLUJhbm5lciIgc3R5bGU9InN0cm9rZTojMTgxODE4O3N0cm9rZS13aWR0aDoxLjA7Ii8+PHBvbHlnb24gZmlsbD0iIzE4MTgxOCIgcG9pbnRzPSI5NSwzMzkuOCw5OSwzMzAuOCw5NSwzMzQuOCw5MSwzMzAuOCw5NSwzMzkuOCIgc3R5bGU9InN0cm9rZTojMTgxODE4O3N0cm9rZS13aWR0aDoxLjA7Ii8+PHRleHQgZmlsbD0iIzAwMDAwMCIgZm9udC1mYW1pbHk9InNhbnMtc2VyaWYiIGZvbnQtc2l6ZT0iMTMiIGxlbmd0aEFkanVzdD0ic3BhY2luZyIgdGV4dExlbmd0aD0iMjUiIHg9Ijk2IiB5PSIyNjMuMjg5MSI+MS4uKjwvdGV4dD48L2c+PCEtLVNSQz1bakxOOUppQ201QnBkQXdvVU00SkwwaHRhVzBJelNnQlk3QmNFckxmdVlSb0tIZVhfbnJiZ09pVUVJWUxvb3ZreVVKRlo5T1gyZlMxcG9HVzdObmNtcG9xV1BHdThyX3FSWG1wZHUwMGJzYUR2elJZd3hra0xSVm1LaWxJbnhvbjNCVUtCdjFwQjE2VDVxNl9SX01oT2puUFM2UFJpRDBmQk5yN1JkZkFxTjJuRWVDQjc3Nloyd3U2Q2xVMnV1OE9ENlhtUFBmM0c3QkpMMXlVbzlMQmxTcjEyWkpMWGtBeklXUTBjV2lUb1dXVWVlT3BnSEg5UmRnOFg2YjZRZ2VuV0JnT0R1UmphSUFhYllxS21NZWJCVkxmRUFLZzNWRG5WdDh0V2t1SGNySGVncFpGWXB6QnVnMnpFVDNlNk1paTY2S21tYWF3dlVvTEE5bm5nZWNiWXRvUWM5c3FnTkctZmJXbGwwMzY2a1B1dUZxNzhvaWdFYlFZcjRqSUh1RGZvX3RhcHd4aDJ1U3VwTFNWaVhCejFfWjZBUnFqc0FMYVVYRmZoT3VtZTkyR0VIZ3E1ZkhaekpxT25oXzVpZDlwNnpUSkhFNlV1OHRrdHdaVWNnZUhDLUtGVDNZYUloZUZodDV0OFR0VEZSZEZiT0JRU3BzemM4VGg1NmFWVC1pUlhlTXh0SFVSRUw3SXdYdXh2Vy1QMGQ4VXc5VjE3ZnlVY0VMa2FsdnlSTzUyREpFYi1sR3RPX3A1RnEweTBdLS0+PC9nPjwvc3ZnPg==;" parent="1" vertex="1">
            <mxGeometry x="100" y="490" width="1426" height="469" as="geometry" />
          </mxCell>
        </UserObject>
        <UserObject label="" plantUmlData="{&#xa;  &quot;data&quot;: &quot;@startuml\n[*] --&gt; 停止\n\n停止 --&gt; 播放 : 点击播放\n播放 --&gt; 暂停 : 点击暂停\n暂停 --&gt; 播放 : 点击播放\n播放 --&gt; 停止 : 点击停止\n播放 --&gt; 停止 : 播放完成\n@enduml\n&quot;,&#xa;  &quot;format&quot;: &quot;svg&quot;&#xa;}" id="4L9ICEicornQjW7cZm7l-16">
          <mxCell style="shape=image;noLabel=1;verticalAlign=top;aspect=fixed;imageAspect=0;image=data:image/svg+xml,PD94bWwgdmVyc2lvbj0iMS4wIiBlbmNvZGluZz0idXMtYXNjaWkiIHN0YW5kYWxvbmU9Im5vIj8+PHN2ZyB4bWxucz0iaHR0cDovL3d3dy53My5vcmcvMjAwMC9zdmciIHhtbG5zOnhsaW5rPSJodHRwOi8vd3d3LnczLm9yZy8xOTk5L3hsaW5rIiBjb250ZW50U3R5bGVUeXBlPSJ0ZXh0L2NzcyIgaGVpZ2h0PSIzOTNweCIgcHJlc2VydmVBc3BlY3RSYXRpbz0ibm9uZSIgc3R5bGU9IndpZHRoOjIzOXB4O2hlaWdodDozOTNweDtiYWNrZ3JvdW5kOiNGRkZGRkY7IiB2ZXJzaW9uPSIxLjEiIHZpZXdCb3g9IjAgMCAyMzkgMzkzIiB3aWR0aD0iMjM5cHgiIHpvb21BbmRQYW49Im1hZ25pZnkiPjxkZWZzLz48Zz48ZWxsaXBzZSBjeD0iMTIxLjkxIiBjeT0iMTYiIGZpbGw9IiMyMjIyMjIiIHJ4PSIxMCIgcnk9IjEwIiBzdHlsZT0ic3Ryb2tlOiMyMjIyMjI7c3Ryb2tlLXdpZHRoOjEuMDsiLz48ZyBpZD0iJiMyMDU3MjsmIzI3NDkwOyI+PHJlY3QgZmlsbD0iI0YxRjFGMSIgaGVpZ2h0PSI1MCIgcng9IjEyLjUiIHJ5PSIxMi41IiBzdHlsZT0ic3Ryb2tlOiMxODE4MTg7c3Ryb2tlLXdpZHRoOjAuNTsiIHdpZHRoPSI1MCIgeD0iOTYuOTEiIHk9Ijg3Ii8+PGxpbmUgc3R5bGU9InN0cm9rZTojMTgxODE4O3N0cm9rZS13aWR0aDowLjU7IiB4MT0iOTYuOTEiIHgyPSIxNDYuOTEiIHkxPSIxMTEuOTg0NCIgeTI9IjExMS45ODQ0Ii8+PHRleHQgZmlsbD0iIzAwMDAwMCIgZm9udC1mYW1pbHk9InNhbnMtc2VyaWYiIGZvbnQtc2l6ZT0iMTQiIGxlbmd0aEFkanVzdD0ic3BhY2luZyIgdGV4dExlbmd0aD0iMjgiIHg9IjEwNy45MSIgeT0iMTA1LjIzNDQiPiYjMjA1NzI7JiMyNzQ5MDs8L3RleHQ+PC9nPjxnIGlkPSImIzI1NzczOyYjMjU5MTg7Ij48cmVjdCBmaWxsPSIjRjFGMUYxIiBoZWlnaHQ9IjUwIiByeD0iMTIuNSIgcnk9IjEyLjUiIHN0eWxlPSJzdHJva2U6IzE4MTgxODtzdHJva2Utd2lkdGg6MC41OyIgd2lkdGg9IjUwIiB4PSI5Ni45MSIgeT0iMjEyIi8+PGxpbmUgc3R5bGU9InN0cm9rZTojMTgxODE4O3N0cm9rZS13aWR0aDowLjU7IiB4MT0iOTYuOTEiIHgyPSIxNDYuOTEiIHkxPSIyMzYuOTg0NCIgeTI9IjIzNi45ODQ0Ii8+PHRleHQgZmlsbD0iIzAwMDAwMCIgZm9udC1mYW1pbHk9InNhbnMtc2VyaWYiIGZvbnQtc2l6ZT0iMTQiIGxlbmd0aEFkanVzdD0ic3BhY2luZyIgdGV4dExlbmd0aD0iMjgiIHg9IjEwNy45MSIgeT0iMjMwLjIzNDQiPiYjMjU3NzM7JiMyNTkxODs8L3RleHQ+PC9nPjxnIGlkPSImIzI2MjQyOyYjMjA1NzI7Ij48cmVjdCBmaWxsPSIjRjFGMUYxIiBoZWlnaHQ9IjUwIiByeD0iMTIuNSIgcnk9IjEyLjUiIHN0eWxlPSJzdHJva2U6IzE4MTgxODtzdHJva2Utd2lkdGg6MC41OyIgd2lkdGg9IjUwIiB4PSI5Ni45MSIgeT0iMzM3Ii8+PGxpbmUgc3R5bGU9InN0cm9rZTojMTgxODE4O3N0cm9rZS13aWR0aDowLjU7IiB4MT0iOTYuOTEiIHgyPSIxNDYuOTEiIHkxPSIzNjEuOTg0NCIgeTI9IjM2MS45ODQ0Ii8+PHRleHQgZmlsbD0iIzAwMDAwMCIgZm9udC1mYW1pbHk9InNhbnMtc2VyaWYiIGZvbnQtc2l6ZT0iMTQiIGxlbmd0aEFkanVzdD0ic3BhY2luZyIgdGV4dExlbmd0aD0iMjgiIHg9IjEwNy45MSIgeT0iMzU1LjIzNDQiPiYjMjYyNDI7JiMyMDU3Mjs8L3RleHQ+PC9nPjwhLS1saW5rICpzdGFydCogdG8gPz8tLT48ZyBpZD0ibGlua18qc3RhcnQqXyYjMjA1NzI7JiMyNzQ5MDsiPjxwYXRoIGQ9Ik0xMjEuOTEsMjYuMDEgQzEyMS45MSwzOS44OSAxMjEuOTEsNjAuOTcgMTIxLjkxLDgwLjg0ICIgZmlsbD0ibm9uZSIgaWQ9IipzdGFydCotdG8tJiMyMDU3MjsmIzI3NDkwOyIgc3R5bGU9InN0cm9rZTojMTgxODE4O3N0cm9rZS13aWR0aDoxLjA7Ii8+PHBvbHlnb24gZmlsbD0iIzE4MTgxOCIgcG9pbnRzPSIxMjEuOTEsODYuODQsMTI1LjkxLDc3Ljg0LDEyMS45MSw4MS44NCwxMTcuOTEsNzcuODQsMTIxLjkxLDg2Ljg0IiBzdHlsZT0ic3Ryb2tlOiMxODE4MTg7c3Ryb2tlLXdpZHRoOjEuMDsiLz48L2c+PCEtLWxpbmsgPz8gdG8gPz8tLT48ZyBpZD0ibGlua18mIzIwNTcyOyYjMjc0OTA7XyYjMjU3NzM7JiMyNTkxODsiPjxwYXRoIGQ9Ik05Ni40OSwxMTkuMjggQzczLjI1LDEyNi41MSA0MC4yNCwxNDAuOTEgMjQuOTEsMTY3IEM2LDE5OS4xNiA1Ni4yMDAzLDIxOC42NTkxIDkwLjg2MDMsMjI4LjMxOTEgIiBmaWxsPSJub25lIiBpZD0iJiMyMDU3MjsmIzI3NDkwOy10by0mIzI1NzczOyYjMjU5MTg7IiBzdHlsZT0ic3Ryb2tlOiMxODE4MTg7c3Ryb2tlLXdpZHRoOjEuMDsiLz48cG9seWdvbiBmaWxsPSIjMTgxODE4IiBwb2ludHM9Ijk2LjY0LDIyOS45Myw4OS4wNDQzLDIyMy42NjA2LDkxLjgyMzYsMjI4LjU4NzYsODYuODk2NSwyMzEuMzY2OSw5Ni42NCwyMjkuOTMiIHN0eWxlPSJzdHJva2U6IzE4MTgxODtzdHJva2Utd2lkdGg6MS4wOyIvPjx0ZXh0IGZpbGw9IiMwMDAwMDAiIGZvbnQtZmFtaWx5PSJzYW5zLXNlcmlmIiBmb250LXNpemU9IjEzIiBsZW5ndGhBZGp1c3Q9InNwYWNpbmciIHRleHRMZW5ndGg9IjUyIiB4PSIyNS45MSIgeT0iMTgwLjI4OTEiPiYjMjg4NTc7JiMyMDk4NzsmIzI1NzczOyYjMjU5MTg7PC90ZXh0PjwvZz48IS0tbGluayA/PyB0byA/Py0tPjxnIGlkPSJsaW5rXyYjMjU3NzM7JiMyNTkxODtfJiMyMDU3MjsmIzI3NDkwOyI+PHBhdGggZD0iTTEyMC4wMSwyMTEuNzQgQzExOS4xOSwxOTguNTIgMTE4LjQ5LDE4MS44NiAxMTguOTEsMTY3IEMxMTkuMTgsMTU3LjI0IDExOS4zNjAxLDE1Mi40ODkyIDExOS45MjAxLDE0My4xNjkyICIgZmlsbD0ibm9uZSIgaWQ9IiYjMjU3NzM7JiMyNTkxODstdG8tJiMyMDU3MjsmIzI3NDkwOyIgc3R5bGU9InN0cm9rZTojMTgxODE4O3N0cm9rZS13aWR0aDoxLjA7Ii8+PHBvbHlnb24gZmlsbD0iIzE4MTgxOCIgcG9pbnRzPSIxMjAuMjgsMTM3LjE4LDExNS43NDc0LDE0NS45MjM5LDExOS45ODAxLDE0Mi4xNzEsMTIzLjczMywxNDYuNDAzNywxMjAuMjgsMTM3LjE4IiBzdHlsZT0ic3Ryb2tlOiMxODE4MTg7c3Ryb2tlLXdpZHRoOjEuMDsiLz48dGV4dCBmaWxsPSIjMDAwMDAwIiBmb250LWZhbWlseT0ic2Fucy1zZXJpZiIgZm9udC1zaXplPSIxMyIgbGVuZ3RoQWRqdXN0PSJzcGFjaW5nIiB0ZXh0TGVuZ3RoPSI1MiIgeD0iMTE5LjkxIiB5PSIxODAuMjg5MSI+JiMyODg1NzsmIzIwOTg3OyYjMjA1NzI7JiMyNzQ5MDs8L3RleHQ+PC9nPjwhLS1saW5rID8/IHRvID8/LS0+PGcgaWQ9ImxpbmtfJiMyNTc3MzsmIzI1OTE4O18mIzIwNTcyOyYjMjc0OTA7Ij48cGF0aCBkPSJNMTQ2Ljk2LDIyMS4yMSBDMTY1LjM5LDIwOC4yNCAxODUuOCwxODguMTkgMTc2LjkxLDE2NyBDMTcwLjc1LDE1Mi4zMiAxNjMuMDY0NSwxNDMuNDMwNyAxNTEuNjQ0NSwxMzQuMDQwNyAiIGZpbGw9Im5vbmUiIGlkPSImIzI1NzczOyYjMjU5MTg7LXRvLSYjMjA1NzI7JiMyNzQ5MDstMSIgc3R5bGU9InN0cm9rZTojMTgxODE4O3N0cm9rZS13aWR0aDoxLjA7Ii8+PHBvbHlnb24gZmlsbD0iIzE4MTgxOCIgcG9pbnRzPSIxNDcuMDEsMTMwLjIzLDE1MS40MjEzLDEzOS4wMzU3LDE1MC44NzIxLDEzMy40MDU2LDE1Ni41MDIyLDEzMi44NTY0LDE0Ny4wMSwxMzAuMjMiIHN0eWxlPSJzdHJva2U6IzE4MTgxODtzdHJva2Utd2lkdGg6MS4wOyIvPjx0ZXh0IGZpbGw9IiMwMDAwMDAiIGZvbnQtZmFtaWx5PSJzYW5zLXNlcmlmIiBmb250LXNpemU9IjEzIiBsZW5ndGhBZGp1c3Q9InNwYWNpbmciIHRleHRMZW5ndGg9IjUyIiB4PSIxNzkuOTEiIHk9IjE4MC4yODkxIj4mIzI1NzczOyYjMjU5MTg7JiMyMzQzNjsmIzI1MTA0OzwvdGV4dD48L2c+PCEtLWxpbmsgPz8gdG8gPz8tLT48ZyBpZD0ibGlua18mIzI1NzczOyYjMjU5MTg7XyYjMjYyNDI7JiMyMDU3MjsiPjxwYXRoIGQ9Ik05Ni42NywyNTcuODkgQzg2Ljk5LDI2Ny4xIDc3LjA0LDI3OC45MSA3MS45MSwyOTIgQzY0LjE5LDMxMS43IDc2LjA0MjUsMzI3LjEyNTEgOTIuMTIyNSwzNDAuMjU1MSAiIGZpbGw9Im5vbmUiIGlkPSImIzI1NzczOyYjMjU5MTg7LXRvLSYjMjYyNDI7JiMyMDU3MjsiIHN0eWxlPSJzdHJva2U6IzE4MTgxODtzdHJva2Utd2lkdGg6MS4wOyIvPjxwb2x5Z29uIGZpbGw9IiMxODE4MTgiIHBvaW50cz0iOTYuNzcsMzQ0LjA1LDkyLjMyODcsMzM1LjI1OTQsOTIuODk3MSwzNDAuODg3Niw4Ny4yNjg5LDM0MS40NTYsOTYuNzcsMzQ0LjA1IiBzdHlsZT0ic3Ryb2tlOiMxODE4MTg7c3Ryb2tlLXdpZHRoOjEuMDsiLz48dGV4dCBmaWxsPSIjMDAwMDAwIiBmb250LWZhbWlseT0ic2Fucy1zZXJpZiIgZm9udC1zaXplPSIxMyIgbGVuZ3RoQWRqdXN0PSJzcGFjaW5nIiB0ZXh0TGVuZ3RoPSI1MiIgeD0iNzIuOTEiIHk9IjMwNS4yODkxIj4mIzI4ODU3OyYjMjA5ODc7JiMyNjI0MjsmIzIwNTcyOzwvdGV4dD48L2c+PCEtLWxpbmsgPz8gdG8gPz8tLT48ZyBpZD0ibGlua18mIzI2MjQyOyYjMjA1NzI7XyYjMjU3NzM7JiMyNTkxODsiPjxwYXRoIGQ9Ik0xMjYuOTcsMzM2Ljc4IEMxMjkuMTYsMzIzLjU3IDEzMS4wMSwzMDYuOTEgMTI5LjkxLDI5MiBDMTI5LjE4LDI4Mi4xNyAxMjguNjcyLDI3Ny4zNDU2IDEyNy4xOTIsMjY4LjAzNTYgIiBmaWxsPSJub25lIiBpZD0iJiMyNjI0MjsmIzIwNTcyOy10by0mIzI1NzczOyYjMjU5MTg7IiBzdHlsZT0ic3Ryb2tlOiMxODE4MTg7c3Ryb2tlLXdpZHRoOjEuMDsiLz48cG9seWdvbiBmaWxsPSIjMTgxODE4IiBwb2ludHM9IjEyNi4yNSwyNjIuMTEsMTIzLjcxMjYsMjcxLjYyNjQsMTI3LjAzNSwyNjcuMDQ4LDEzMS42MTM0LDI3MC4zNzA0LDEyNi4yNSwyNjIuMTEiIHN0eWxlPSJzdHJva2U6IzE4MTgxODtzdHJva2Utd2lkdGg6MS4wOyIvPjx0ZXh0IGZpbGw9IiMwMDAwMDAiIGZvbnQtZmFtaWx5PSJzYW5zLXNlcmlmIiBmb250LXNpemU9IjEzIiBsZW5ndGhBZGp1c3Q9InNwYWNpbmciIHRleHRMZW5ndGg9IjUyIiB4PSIxMzAuOTEiIHk9IjMwNS4yODkxIj4mIzI4ODU3OyYjMjA5ODc7JiMyNTc3MzsmIzI1OTE4OzwvdGV4dD48L2c+PCEtLVNSQz1bWXpRQUxUM0xqTER1c1paZHNUZjVONW1HNllwcVJEQlFQckZzQUxXZkY2X1EtUkh6RHVKQjFISzVBdlpMMTVJRUswM2NTYTU1WUo4MVFYakMwVEdIczFIMG45d2t3dGRNQ0c0MF0tLT48L2c+PC9zdmc+;" parent="1" vertex="1">
            <mxGeometry x="40" y="1640" width="239" height="393" as="geometry" />
          </mxCell>
        </UserObject>
        <UserObject label="" plantUmlData="{&#xa;  &quot;data&quot;: &quot;@startuml\n[*] --&gt; 未登录\n\n未登录 --&gt; 登录 : 登录成功\n登录 --&gt; 未登录 : 退出登录\n@enduml\n&quot;,&#xa;  &quot;format&quot;: &quot;svg&quot;&#xa;}" id="4L9ICEicornQjW7cZm7l-17">
          <mxCell style="shape=image;noLabel=1;verticalAlign=top;aspect=fixed;imageAspect=0;image=data:image/svg+xml,PD94bWwgdmVyc2lvbj0iMS4wIiBlbmNvZGluZz0idXMtYXNjaWkiIHN0YW5kYWxvbmU9Im5vIj8+PHN2ZyB4bWxucz0iaHR0cDovL3d3dy53My5vcmcvMjAwMC9zdmciIHhtbG5zOnhsaW5rPSJodHRwOi8vd3d3LnczLm9yZy8xOTk5L3hsaW5rIiBjb250ZW50U3R5bGVUeXBlPSJ0ZXh0L2NzcyIgaGVpZ2h0PSIyNjhweCIgcHJlc2VydmVBc3BlY3RSYXRpbz0ibm9uZSIgc3R5bGU9IndpZHRoOjEzMnB4O2hlaWdodDoyNjhweDtiYWNrZ3JvdW5kOiNGRkZGRkY7IiB2ZXJzaW9uPSIxLjEiIHZpZXdCb3g9IjAgMCAxMzIgMjY4IiB3aWR0aD0iMTMycHgiIHpvb21BbmRQYW49Im1hZ25pZnkiPjxkZWZzLz48Zz48ZWxsaXBzZSBjeD0iNjMuNzIiIGN5PSIxNiIgZmlsbD0iIzIyMjIyMiIgcng9IjEwIiByeT0iMTAiIHN0eWxlPSJzdHJva2U6IzIyMjIyMjtzdHJva2Utd2lkdGg6MS4wOyIvPjxnIGlkPSImIzI2NDEwOyYjMzAzMzE7JiMyNDQwNTsiPjxyZWN0IGZpbGw9IiNGMUYxRjEiIGhlaWdodD0iNTAiIHJ4PSIxMi41IiByeT0iMTIuNSIgc3R5bGU9InN0cm9rZTojMTgxODE4O3N0cm9rZS13aWR0aDowLjU7IiB3aWR0aD0iNjIiIHg9IjMyLjcyIiB5PSI4NyIvPjxsaW5lIHN0eWxlPSJzdHJva2U6IzE4MTgxODtzdHJva2Utd2lkdGg6MC41OyIgeDE9IjMyLjcyIiB4Mj0iOTQuNzIiIHkxPSIxMTEuOTg0NCIgeTI9IjExMS45ODQ0Ii8+PHRleHQgZmlsbD0iIzAwMDAwMCIgZm9udC1mYW1pbHk9InNhbnMtc2VyaWYiIGZvbnQtc2l6ZT0iMTQiIGxlbmd0aEFkanVzdD0ic3BhY2luZyIgdGV4dExlbmd0aD0iNDIiIHg9IjQyLjcyIiB5PSIxMDUuMjM0NCI+JiMyNjQxMDsmIzMwMzMxOyYjMjQ0MDU7PC90ZXh0PjwvZz48ZyBpZD0iJiMzMDMzMTsmIzI0NDA1OyI+PHJlY3QgZmlsbD0iI0YxRjFGMSIgaGVpZ2h0PSI1MCIgcng9IjEyLjUiIHJ5PSIxMi41IiBzdHlsZT0ic3Ryb2tlOiMxODE4MTg7c3Ryb2tlLXdpZHRoOjAuNTsiIHdpZHRoPSI1MCIgeD0iMzguNzIiIHk9IjIxMiIvPjxsaW5lIHN0eWxlPSJzdHJva2U6IzE4MTgxODtzdHJva2Utd2lkdGg6MC41OyIgeDE9IjM4LjcyIiB4Mj0iODguNzIiIHkxPSIyMzYuOTg0NCIgeTI9IjIzNi45ODQ0Ii8+PHRleHQgZmlsbD0iIzAwMDAwMCIgZm9udC1mYW1pbHk9InNhbnMtc2VyaWYiIGZvbnQtc2l6ZT0iMTQiIGxlbmd0aEFkanVzdD0ic3BhY2luZyIgdGV4dExlbmd0aD0iMjgiIHg9IjQ5LjcyIiB5PSIyMzAuMjM0NCI+JiMzMDMzMTsmIzI0NDA1OzwvdGV4dD48L2c+PCEtLWxpbmsgKnN0YXJ0KiB0byA/Pz8tLT48ZyBpZD0ibGlua18qc3RhcnQqXyYjMjY0MTA7JiMzMDMzMTsmIzI0NDA1OyI+PHBhdGggZD0iTTYzLjcyLDI2LjAxIEM2My43MiwzOS44OSA2My43Miw2MC45NyA2My43Miw4MC44NCAiIGZpbGw9Im5vbmUiIGlkPSIqc3RhcnQqLXRvLSYjMjY0MTA7JiMzMDMzMTsmIzI0NDA1OyIgc3R5bGU9InN0cm9rZTojMTgxODE4O3N0cm9rZS13aWR0aDoxLjA7Ii8+PHBvbHlnb24gZmlsbD0iIzE4MTgxOCIgcG9pbnRzPSI2My43Miw4Ni44NCw2Ny43Miw3Ny44NCw2My43Miw4MS44NCw1OS43Miw3Ny44NCw2My43Miw4Ni44NCIgc3R5bGU9InN0cm9rZTojMTgxODE4O3N0cm9rZS13aWR0aDoxLjA7Ii8+PC9nPjwhLS1saW5rID8/PyB0byA/Py0tPjxnIGlkPSJsaW5rXyYjMjY0MTA7JiMzMDMzMTsmIzI0NDA1O18mIzMwMzMxOyYjMjQ0MDU7Ij48cGF0aCBkPSJNMzQuMjUsMTM3LjA3IEMyNiwxNDUuNTcgMTguMSwxNTUuODIgMTMuNzIsMTY3IEM2LDE4Ni43IDE3Ljg1MjUsMjAyLjEyNTEgMzMuOTMyNSwyMTUuMjU1MSAiIGZpbGw9Im5vbmUiIGlkPSImIzI2NDEwOyYjMzAzMzE7JiMyNDQwNTstdG8tJiMzMDMzMTsmIzI0NDA1OyIgc3R5bGU9InN0cm9rZTojMTgxODE4O3N0cm9rZS13aWR0aDoxLjA7Ii8+PHBvbHlnb24gZmlsbD0iIzE4MTgxOCIgcG9pbnRzPSIzOC41OCwyMTkuMDUsMzQuMTM4NywyMTAuMjU5NCwzNC43MDcxLDIxNS44ODc2LDI5LjA3ODksMjE2LjQ1NiwzOC41OCwyMTkuMDUiIHN0eWxlPSJzdHJva2U6IzE4MTgxODtzdHJva2Utd2lkdGg6MS4wOyIvPjx0ZXh0IGZpbGw9IiMwMDAwMDAiIGZvbnQtZmFtaWx5PSJzYW5zLXNlcmlmIiBmb250LXNpemU9IjEzIiBsZW5ndGhBZGp1c3Q9InNwYWNpbmciIHRleHRMZW5ndGg9IjUyIiB4PSIxNC43MiIgeT0iMTgwLjI4OTEiPiYjMzAzMzE7JiMyNDQwNTsmIzI1MTA0OyYjMjExNTE7PC90ZXh0PjwvZz48IS0tbGluayA/PyB0byA/Pz8tLT48ZyBpZD0ibGlua18mIzMwMzMxOyYjMjQ0MDU7XyYjMjY0MTA7JiMzMDMzMTsmIzI0NDA1OyI+PHBhdGggZD0iTTY4Ljc4LDIxMS43OCBDNzAuOTcsMTk4LjU3IDcyLjgxLDE4MS45MSA3MS43MiwxNjcgQzcwLjk5LDE1Ny4xNyA3MC40NjU4LDE1Mi4zNDY2IDY4Ljk5NTgsMTQzLjAzNjYgIiBmaWxsPSJub25lIiBpZD0iJiMzMDMzMTsmIzI0NDA1Oy10by0mIzI2NDEwOyYjMzAzMzE7JiMyNDQwNTsiIHN0eWxlPSJzdHJva2U6IzE4MTgxODtzdHJva2Utd2lkdGg6MS4wOyIvPjxwb2x5Z29uIGZpbGw9IiMxODE4MTgiIHBvaW50cz0iNjguMDYsMTM3LjExLDY1LjUxMjYsMTQ2LjYyMzcsNjguODM5OCwxNDIuMDQ4OCw3My40MTQ3LDE0NS4zNzYsNjguMDYsMTM3LjExIiBzdHlsZT0ic3Ryb2tlOiMxODE4MTg7c3Ryb2tlLXdpZHRoOjEuMDsiLz48dGV4dCBmaWxsPSIjMDAwMDAwIiBmb250LWZhbWlseT0ic2Fucy1zZXJpZiIgZm9udC1zaXplPSIxMyIgbGVuZ3RoQWRqdXN0PSJzcGFjaW5nIiB0ZXh0TGVuZ3RoPSI1MiIgeD0iNzIuNzIiIHk9IjE4MC4yODkxIj4mIzM2ODY0OyYjMjA5ODY7JiMzMDMzMTsmIzI0NDA1OzwvdGV4dD48L2c+PCEtLVNSQz1bWXpRQUxUM0xqTER1RGNWTHl2Y3hkLXdUb2lLNVB1OGJlNG1oQUVEUG51SWROVkV2YTFHV2I1aWZsNm5lVURnLTJ5ODUwMDAwXS0tPjwvZz48L3N2Zz4=;" parent="1" vertex="1">
            <mxGeometry x="330" y="1640" width="132" height="268" as="geometry" />
          </mxCell>
        </UserObject>
        <UserObject label="" plantUmlData="{&#xa;  &quot;data&quot;: &quot;@startuml\nactor 用户\nparticipant 客户端\nparticipant 服务端\nparticipant 数据库\n\n用户 -&gt; 客户端 : 点击歌曲\n客户端 -&gt; 服务端 : 请求歌曲信息\n服务端 -&gt; 数据库 : 查询歌曲信息\n数据库 -&gt; 服务端 : 返回歌曲信息\n服务端 -&gt; 客户端 : 返回歌曲信息\n客户端 -&gt; 服务端 : 请求歌曲文件\n服务端 -&gt; 文件服务器 : 获取歌曲文件\n文件服务器 -&gt; 服务端 : 返回歌曲文件\n服务端 -&gt; 客户端 : 返回歌曲文件\n客户端 -&gt; 用户 : 播放音乐\n@enduml\n&quot;,&#xa;  &quot;format&quot;: &quot;svg&quot;&#xa;}" id="4L9ICEicornQjW7cZm7l-20">
          <mxCell style="shape=image;noLabel=1;verticalAlign=top;aspect=fixed;imageAspect=0;image=data:image/svg+xml,PD94bWwgdmVyc2lvbj0iMS4wIiBlbmNvZGluZz0idXMtYXNjaWkiIHN0YW5kYWxvbmU9Im5vIj8+PHN2ZyB4bWxucz0iaHR0cDovL3d3dy53My5vcmcvMjAwMC9zdmciIHhtbG5zOnhsaW5rPSJodHRwOi8vd3d3LnczLm9yZy8xOTk5L3hsaW5rIiBjb250ZW50U3R5bGVUeXBlPSJ0ZXh0L2NzcyIgaGVpZ2h0PSI0NThweCIgcHJlc2VydmVBc3BlY3RSYXRpbz0ibm9uZSIgc3R5bGU9IndpZHRoOjQzMHB4O2hlaWdodDo0NThweDtiYWNrZ3JvdW5kOiNGRkZGRkY7IiB2ZXJzaW9uPSIxLjEiIHZpZXdCb3g9IjAgMCA0MzAgNDU4IiB3aWR0aD0iNDMwcHgiIHpvb21BbmRQYW49Im1hZ25pZnkiPjxkZWZzLz48Zz48bGluZSBzdHlsZT0ic3Ryb2tlOiMxODE4MTg7c3Ryb2tlLXdpZHRoOjAuNTtzdHJva2UtZGFzaGFycmF5OjUuMCw1LjA7IiB4MT0iMjIiIHgyPSIyMiIgeTE9Ijc5Ljk4NDQiIHkyPSIzNzkuMTI1Ii8+PGxpbmUgc3R5bGU9InN0cm9rZTojMTgxODE4O3N0cm9rZS13aWR0aDowLjU7c3Ryb2tlLWRhc2hhcnJheTo1LjAsNS4wOyIgeDE9Ijk4IiB4Mj0iOTgiIHkxPSI3OS45ODQ0IiB5Mj0iMzc5LjEyNSIvPjxsaW5lIHN0eWxlPSJzdHJva2U6IzE4MTgxODtzdHJva2Utd2lkdGg6MC41O3N0cm9rZS1kYXNoYXJyYXk6NS4wLDUuMDsiIHgxPSIyMDAiIHgyPSIyMDAiIHkxPSI3OS45ODQ0IiB5Mj0iMzc5LjEyNSIvPjxsaW5lIHN0eWxlPSJzdHJva2U6IzE4MTgxODtzdHJva2Utd2lkdGg6MC41O3N0cm9rZS1kYXNoYXJyYXk6NS4wLDUuMDsiIHgxPSIzMDIiIHgyPSIzMDIiIHkxPSI3OS45ODQ0IiB5Mj0iMzc5LjEyNSIvPjxsaW5lIHN0eWxlPSJzdHJva2U6IzE4MTgxODtzdHJva2Utd2lkdGg6MC41O3N0cm9rZS1kYXNoYXJyYXk6NS4wLDUuMDsiIHgxPSIzODIiIHgyPSIzODIiIHkxPSI3OS45ODQ0IiB5Mj0iMzc5LjEyNSIvPjx0ZXh0IGZpbGw9IiMwMDAwMDAiIGZvbnQtZmFtaWx5PSJzYW5zLXNlcmlmIiBmb250LXNpemU9IjE0IiBsZW5ndGhBZGp1c3Q9InNwYWNpbmciIHRleHRMZW5ndGg9IjI4IiB4PSI1IiB5PSI3OC4yMzQ0Ij4mIzI5OTkyOyYjMjUxNDM7PC90ZXh0PjxlbGxpcHNlIGN4PSIyMiIgY3k9IjEzLjUiIGZpbGw9IiNFMkUyRjAiIHJ4PSI4IiByeT0iOCIgc3R5bGU9InN0cm9rZTojMTgxODE4O3N0cm9rZS13aWR0aDowLjU7Ii8+PHBhdGggZD0iTTIyLDIxLjUgTDIyLDQ4LjUgTTksMjkuNSBMMzUsMjkuNSBNMjIsNDguNSBMOSw2My41IE0yMiw0OC41IEwzNSw2My41ICIgZmlsbD0ibm9uZSIgc3R5bGU9InN0cm9rZTojMTgxODE4O3N0cm9rZS13aWR0aDowLjU7Ii8+PHRleHQgZmlsbD0iIzAwMDAwMCIgZm9udC1mYW1pbHk9InNhbnMtc2VyaWYiIGZvbnQtc2l6ZT0iMTQiIGxlbmd0aEFkanVzdD0ic3BhY2luZyIgdGV4dExlbmd0aD0iMjgiIHg9IjUiIHk9IjM5MS4zNTk0Ij4mIzI5OTkyOyYjMjUxNDM7PC90ZXh0PjxlbGxpcHNlIGN4PSIyMiIgY3k9IjQwMS42MDk0IiBmaWxsPSIjRTJFMkYwIiByeD0iOCIgcnk9IjgiIHN0eWxlPSJzdHJva2U6IzE4MTgxODtzdHJva2Utd2lkdGg6MC41OyIvPjxwYXRoIGQ9Ik0yMiw0MDkuNjA5NCBMMjIsNDM2LjYwOTQgTTksNDE3LjYwOTQgTDM1LDQxNy42MDk0IE0yMiw0MzYuNjA5NCBMOSw0NTEuNjA5NCBNMjIsNDM2LjYwOTQgTDM1LDQ1MS42MDk0ICIgZmlsbD0ibm9uZSIgc3R5bGU9InN0cm9rZTojMTgxODE4O3N0cm9rZS13aWR0aDowLjU7Ii8+PHJlY3QgZmlsbD0iI0UyRTJGMCIgaGVpZ2h0PSIyOC45ODQ0IiByeD0iMi41IiByeT0iMi41IiBzdHlsZT0ic3Ryb2tlOiMxODE4MTg7c3Ryb2tlLXdpZHRoOjAuNTsiIHdpZHRoPSI1NiIgeD0iNzAiIHk9IjUwIi8+PHRleHQgZmlsbD0iIzAwMDAwMCIgZm9udC1mYW1pbHk9InNhbnMtc2VyaWYiIGZvbnQtc2l6ZT0iMTQiIGxlbmd0aEFkanVzdD0ic3BhY2luZyIgdGV4dExlbmd0aD0iNDIiIHg9Ijc3IiB5PSI3MC4yMzQ0Ij4mIzIzNDU4OyYjMjUxNDM7JiMzMTQ3MTs8L3RleHQ+PHJlY3QgZmlsbD0iI0UyRTJGMCIgaGVpZ2h0PSIyOC45ODQ0IiByeD0iMi41IiByeT0iMi41IiBzdHlsZT0ic3Ryb2tlOiMxODE4MTg7c3Ryb2tlLXdpZHRoOjAuNTsiIHdpZHRoPSI1NiIgeD0iNzAiIHk9IjM3OC4xMjUiLz48dGV4dCBmaWxsPSIjMDAwMDAwIiBmb250LWZhbWlseT0ic2Fucy1zZXJpZiIgZm9udC1zaXplPSIxNCIgbGVuZ3RoQWRqdXN0PSJzcGFjaW5nIiB0ZXh0TGVuZ3RoPSI0MiIgeD0iNzciIHk9IjM5OC4zNTk0Ij4mIzIzNDU4OyYjMjUxNDM7JiMzMTQ3MTs8L3RleHQ+PHJlY3QgZmlsbD0iI0UyRTJGMCIgaGVpZ2h0PSIyOC45ODQ0IiByeD0iMi41IiByeT0iMi41IiBzdHlsZT0ic3Ryb2tlOiMxODE4MTg7c3Ryb2tlLXdpZHRoOjAuNTsiIHdpZHRoPSI1NiIgeD0iMTcyIiB5PSI1MCIvPjx0ZXh0IGZpbGw9IiMwMDAwMDAiIGZvbnQtZmFtaWx5PSJzYW5zLXNlcmlmIiBmb250LXNpemU9IjE0IiBsZW5ndGhBZGp1c3Q9InNwYWNpbmciIHRleHRMZW5ndGg9IjQyIiB4PSIxNzkiIHk9IjcwLjIzNDQiPiYjMjYzODE7JiMyMTE1MzsmIzMxNDcxOzwvdGV4dD48cmVjdCBmaWxsPSIjRTJFMkYwIiBoZWlnaHQ9IjI4Ljk4NDQiIHJ4PSIyLjUiIHJ5PSIyLjUiIHN0eWxlPSJzdHJva2U6IzE4MTgxODtzdHJva2Utd2lkdGg6MC41OyIgd2lkdGg9IjU2IiB4PSIxNzIiIHk9IjM3OC4xMjUiLz48dGV4dCBmaWxsPSIjMDAwMDAwIiBmb250LWZhbWlseT0ic2Fucy1zZXJpZiIgZm9udC1zaXplPSIxNCIgbGVuZ3RoQWRqdXN0PSJzcGFjaW5nIiB0ZXh0TGVuZ3RoPSI0MiIgeD0iMTc5IiB5PSIzOTguMzU5NCI+JiMyNjM4MTsmIzIxMTUzOyYjMzE0NzE7PC90ZXh0PjxyZWN0IGZpbGw9IiNFMkUyRjAiIGhlaWdodD0iMjguOTg0NCIgcng9IjIuNSIgcnk9IjIuNSIgc3R5bGU9InN0cm9rZTojMTgxODE4O3N0cm9rZS13aWR0aDowLjU7IiB3aWR0aD0iNTYiIHg9IjI3NCIgeT0iNTAiLz48dGV4dCBmaWxsPSIjMDAwMDAwIiBmb250LWZhbWlseT0ic2Fucy1zZXJpZiIgZm9udC1zaXplPSIxNCIgbGVuZ3RoQWRqdXN0PSJzcGFjaW5nIiB0ZXh0TGVuZ3RoPSI0MiIgeD0iMjgxIiB5PSI3MC4yMzQ0Ij4mIzI1OTY4OyYjMjU0NTQ7JiMyNDIxMTs8L3RleHQ+PHJlY3QgZmlsbD0iI0UyRTJGMCIgaGVpZ2h0PSIyOC45ODQ0IiByeD0iMi41IiByeT0iMi41IiBzdHlsZT0ic3Ryb2tlOiMxODE4MTg7c3Ryb2tlLXdpZHRoOjAuNTsiIHdpZHRoPSI1NiIgeD0iMjc0IiB5PSIzNzguMTI1Ii8+PHRleHQgZmlsbD0iIzAwMDAwMCIgZm9udC1mYW1pbHk9InNhbnMtc2VyaWYiIGZvbnQtc2l6ZT0iMTQiIGxlbmd0aEFkanVzdD0ic3BhY2luZyIgdGV4dExlbmd0aD0iNDIiIHg9IjI4MSIgeT0iMzk4LjM1OTQiPiYjMjU5Njg7JiMyNTQ1NDsmIzI0MjExOzwvdGV4dD48cmVjdCBmaWxsPSIjRTJFMkYwIiBoZWlnaHQ9IjI4Ljk4NDQiIHJ4PSIyLjUiIHJ5PSIyLjUiIHN0eWxlPSJzdHJva2U6IzE4MTgxODtzdHJva2Utd2lkdGg6MC41OyIgd2lkdGg9Ijg0IiB4PSIzNDAiIHk9IjUwIi8+PHRleHQgZmlsbD0iIzAwMDAwMCIgZm9udC1mYW1pbHk9InNhbnMtc2VyaWYiIGZvbnQtc2l6ZT0iMTQiIGxlbmd0aEFkanVzdD0ic3BhY2luZyIgdGV4dExlbmd0aD0iNzAiIHg9IjM0NyIgeT0iNzAuMjM0NCI+JiMyNTk5MTsmIzIwMjE0OyYjMjYzODE7JiMyMTE1MzsmIzIyMTIwOzwvdGV4dD48cmVjdCBmaWxsPSIjRTJFMkYwIiBoZWlnaHQ9IjI4Ljk4NDQiIHJ4PSIyLjUiIHJ5PSIyLjUiIHN0eWxlPSJzdHJva2U6IzE4MTgxODtzdHJva2Utd2lkdGg6MC41OyIgd2lkdGg9Ijg0IiB4PSIzNDAiIHk9IjM3OC4xMjUiLz48dGV4dCBmaWxsPSIjMDAwMDAwIiBmb250LWZhbWlseT0ic2Fucy1zZXJpZiIgZm9udC1zaXplPSIxNCIgbGVuZ3RoQWRqdXN0PSJzcGFjaW5nIiB0ZXh0TGVuZ3RoPSI3MCIgeD0iMzQ3IiB5PSIzOTguMzU5NCI+JiMyNTk5MTsmIzIwMjE0OyYjMjYzODE7JiMyMTE1MzsmIzIyMTIwOzwvdGV4dD48cG9seWdvbiBmaWxsPSIjMTgxODE4IiBwb2ludHM9Ijg2LDEwNS44OTg0LDk2LDEwOS44OTg0LDg2LDExMy44OTg0LDkwLDEwOS44OTg0IiBzdHlsZT0ic3Ryb2tlOiMxODE4MTg7c3Ryb2tlLXdpZHRoOjEuMDsiLz48bGluZSBzdHlsZT0ic3Ryb2tlOiMxODE4MTg7c3Ryb2tlLXdpZHRoOjEuMDsiIHgxPSIyMiIgeDI9IjkyIiB5MT0iMTA5Ljg5ODQiIHkyPSIxMDkuODk4NCIvPjx0ZXh0IGZpbGw9IiMwMDAwMDAiIGZvbnQtZmFtaWx5PSJzYW5zLXNlcmlmIiBmb250LXNpemU9IjEzIiBsZW5ndGhBZGp1c3Q9InNwYWNpbmciIHRleHRMZW5ndGg9IjUyIiB4PSIyOSIgeT0iMTA2LjI3MzQiPiYjMjg4NTc7JiMyMDk4NzsmIzI3NDY4OyYjMjYzNTQ7PC90ZXh0Pjxwb2x5Z29uIGZpbGw9IiMxODE4MTgiIHBvaW50cz0iMTg4LDEzMy44MTI1LDE5OCwxMzcuODEyNSwxODgsMTQxLjgxMjUsMTkyLDEzNy44MTI1IiBzdHlsZT0ic3Ryb2tlOiMxODE4MTg7c3Ryb2tlLXdpZHRoOjEuMDsiLz48bGluZSBzdHlsZT0ic3Ryb2tlOiMxODE4MTg7c3Ryb2tlLXdpZHRoOjEuMDsiIHgxPSI5OCIgeDI9IjE5NCIgeTE9IjEzNy44MTI1IiB5Mj0iMTM3LjgxMjUiLz48dGV4dCBmaWxsPSIjMDAwMDAwIiBmb250LWZhbWlseT0ic2Fucy1zZXJpZiIgZm9udC1zaXplPSIxMyIgbGVuZ3RoQWRqdXN0PSJzcGFjaW5nIiB0ZXh0TGVuZ3RoPSI3OCIgeD0iMTA1IiB5PSIxMzQuMTg3NSI+JiMzNTgzMTsmIzI3NzE0OyYjMjc0Njg7JiMyNjM1NDsmIzIwNDQ5OyYjMjQ2ODc7PC90ZXh0Pjxwb2x5Z29uIGZpbGw9IiMxODE4MTgiIHBvaW50cz0iMjkwLDE2MS43MjY2LDMwMCwxNjUuNzI2NiwyOTAsMTY5LjcyNjYsMjk0LDE2NS43MjY2IiBzdHlsZT0ic3Ryb2tlOiMxODE4MTg7c3Ryb2tlLXdpZHRoOjEuMDsiLz48bGluZSBzdHlsZT0ic3Ryb2tlOiMxODE4MTg7c3Ryb2tlLXdpZHRoOjEuMDsiIHgxPSIyMDAiIHgyPSIyOTYiIHkxPSIxNjUuNzI2NiIgeTI9IjE2NS43MjY2Ii8+PHRleHQgZmlsbD0iIzAwMDAwMCIgZm9udC1mYW1pbHk9InNhbnMtc2VyaWYiIGZvbnQtc2l6ZT0iMTMiIGxlbmd0aEFkanVzdD0ic3BhY2luZyIgdGV4dExlbmd0aD0iNzgiIHg9IjIwNyIgeT0iMTYyLjEwMTYiPiYjMjY1OTc7JiMzNTgxMDsmIzI3NDY4OyYjMjYzNTQ7JiMyMDQ0OTsmIzI0Njg3OzwvdGV4dD48cG9seWdvbiBmaWxsPSIjMTgxODE4IiBwb2ludHM9IjIxMSwxODkuNjQwNiwyMDEsMTkzLjY0MDYsMjExLDE5Ny42NDA2LDIwNywxOTMuNjQwNiIgc3R5bGU9InN0cm9rZTojMTgxODE4O3N0cm9rZS13aWR0aDoxLjA7Ii8+PGxpbmUgc3R5bGU9InN0cm9rZTojMTgxODE4O3N0cm9rZS13aWR0aDoxLjA7IiB4MT0iMjA1IiB4Mj0iMzAxIiB5MT0iMTkzLjY0MDYiIHkyPSIxOTMuNjQwNiIvPjx0ZXh0IGZpbGw9IiMwMDAwMDAiIGZvbnQtZmFtaWx5PSJzYW5zLXNlcmlmIiBmb250LXNpemU9IjEzIiBsZW5ndGhBZGp1c3Q9InNwYWNpbmciIHRleHRMZW5ndGg9Ijc4IiB4PSIyMTciIHk9IjE5MC4wMTU2Ij4mIzM2ODIwOyYjMjIyMzg7JiMyNzQ2ODsmIzI2MzU0OyYjMjA0NDk7JiMyNDY4Nzs8L3RleHQ+PHBvbHlnb24gZmlsbD0iIzE4MTgxOCIgcG9pbnRzPSIxMDksMjE3LjU1NDcsOTksMjIxLjU1NDcsMTA5LDIyNS41NTQ3LDEwNSwyMjEuNTU0NyIgc3R5bGU9InN0cm9rZTojMTgxODE4O3N0cm9rZS13aWR0aDoxLjA7Ii8+PGxpbmUgc3R5bGU9InN0cm9rZTojMTgxODE4O3N0cm9rZS13aWR0aDoxLjA7IiB4MT0iMTAzIiB4Mj0iMTk5IiB5MT0iMjIxLjU1NDciIHkyPSIyMjEuNTU0NyIvPjx0ZXh0IGZpbGw9IiMwMDAwMDAiIGZvbnQtZmFtaWx5PSJzYW5zLXNlcmlmIiBmb250LXNpemU9IjEzIiBsZW5ndGhBZGp1c3Q9InNwYWNpbmciIHRleHRMZW5ndGg9Ijc4IiB4PSIxMTUiIHk9IjIxNy45Mjk3Ij4mIzM2ODIwOyYjMjIyMzg7JiMyNzQ2ODsmIzI2MzU0OyYjMjA0NDk7JiMyNDY4Nzs8L3RleHQ+PHBvbHlnb24gZmlsbD0iIzE4MTgxOCIgcG9pbnRzPSIxODgsMjQ1LjQ2ODgsMTk4LDI0OS40Njg4LDE4OCwyNTMuNDY4OCwxOTIsMjQ5LjQ2ODgiIHN0eWxlPSJzdHJva2U6IzE4MTgxODtzdHJva2Utd2lkdGg6MS4wOyIvPjxsaW5lIHN0eWxlPSJzdHJva2U6IzE4MTgxODtzdHJva2Utd2lkdGg6MS4wOyIgeDE9Ijk4IiB4Mj0iMTk0IiB5MT0iMjQ5LjQ2ODgiIHkyPSIyNDkuNDY4OCIvPjx0ZXh0IGZpbGw9IiMwMDAwMDAiIGZvbnQtZmFtaWx5PSJzYW5zLXNlcmlmIiBmb250LXNpemU9IjEzIiBsZW5ndGhBZGp1c3Q9InNwYWNpbmciIHRleHRMZW5ndGg9Ijc4IiB4PSIxMDUiIHk9IjI0NS44NDM4Ij4mIzM1ODMxOyYjMjc3MTQ7JiMyNzQ2ODsmIzI2MzU0OyYjMjU5OTE7JiMyMDIxNDs8L3RleHQ+PHBvbHlnb24gZmlsbD0iIzE4MTgxOCIgcG9pbnRzPSIzNzAsMjczLjM4MjgsMzgwLDI3Ny4zODI4LDM3MCwyODEuMzgyOCwzNzQsMjc3LjM4MjgiIHN0eWxlPSJzdHJva2U6IzE4MTgxODtzdHJva2Utd2lkdGg6MS4wOyIvPjxsaW5lIHN0eWxlPSJzdHJva2U6IzE4MTgxODtzdHJva2Utd2lkdGg6MS4wOyIgeDE9IjIwMCIgeDI9IjM3NiIgeTE9IjI3Ny4zODI4IiB5Mj0iMjc3LjM4MjgiLz48dGV4dCBmaWxsPSIjMDAwMDAwIiBmb250LWZhbWlseT0ic2Fucy1zZXJpZiIgZm9udC1zaXplPSIxMyIgbGVuZ3RoQWRqdXN0PSJzcGFjaW5nIiB0ZXh0TGVuZ3RoPSI3OCIgeD0iMjA3IiB5PSIyNzMuNzU3OCI+JiMzMzcxOTsmIzIxNDYyOyYjMjc0Njg7JiMyNjM1NDsmIzI1OTkxOyYjMjAyMTQ7PC90ZXh0Pjxwb2x5Z29uIGZpbGw9IiMxODE4MTgiIHBvaW50cz0iMjExLDMwMS4yOTY5LDIwMSwzMDUuMjk2OSwyMTEsMzA5LjI5NjksMjA3LDMwNS4yOTY5IiBzdHlsZT0ic3Ryb2tlOiMxODE4MTg7c3Ryb2tlLXdpZHRoOjEuMDsiLz48bGluZSBzdHlsZT0ic3Ryb2tlOiMxODE4MTg7c3Ryb2tlLXdpZHRoOjEuMDsiIHgxPSIyMDUiIHgyPSIzODEiIHkxPSIzMDUuMjk2OSIgeTI9IjMwNS4yOTY5Ii8+PHRleHQgZmlsbD0iIzAwMDAwMCIgZm9udC1mYW1pbHk9InNhbnMtc2VyaWYiIGZvbnQtc2l6ZT0iMTMiIGxlbmd0aEFkanVzdD0ic3BhY2luZyIgdGV4dExlbmd0aD0iNzgiIHg9IjIxNyIgeT0iMzAxLjY3MTkiPiYjMzY4MjA7JiMyMjIzODsmIzI3NDY4OyYjMjYzNTQ7JiMyNTk5MTsmIzIwMjE0OzwvdGV4dD48cG9seWdvbiBmaWxsPSIjMTgxODE4IiBwb2ludHM9IjEwOSwzMjkuMjEwOSw5OSwzMzMuMjEwOSwxMDksMzM3LjIxMDksMTA1LDMzMy4yMTA5IiBzdHlsZT0ic3Ryb2tlOiMxODE4MTg7c3Ryb2tlLXdpZHRoOjEuMDsiLz48bGluZSBzdHlsZT0ic3Ryb2tlOiMxODE4MTg7c3Ryb2tlLXdpZHRoOjEuMDsiIHgxPSIxMDMiIHgyPSIxOTkiIHkxPSIzMzMuMjEwOSIgeTI9IjMzMy4yMTA5Ii8+PHRleHQgZmlsbD0iIzAwMDAwMCIgZm9udC1mYW1pbHk9InNhbnMtc2VyaWYiIGZvbnQtc2l6ZT0iMTMiIGxlbmd0aEFkanVzdD0ic3BhY2luZyIgdGV4dExlbmd0aD0iNzgiIHg9IjExNSIgeT0iMzI5LjU4NTkiPiYjMzY4MjA7JiMyMjIzODsmIzI3NDY4OyYjMjYzNTQ7JiMyNTk5MTsmIzIwMjE0OzwvdGV4dD48cG9seWdvbiBmaWxsPSIjMTgxODE4IiBwb2ludHM9IjMzLDM1Ny4xMjUsMjMsMzYxLjEyNSwzMywzNjUuMTI1LDI5LDM2MS4xMjUiIHN0eWxlPSJzdHJva2U6IzE4MTgxODtzdHJva2Utd2lkdGg6MS4wOyIvPjxsaW5lIHN0eWxlPSJzdHJva2U6IzE4MTgxODtzdHJva2Utd2lkdGg6MS4wOyIgeDE9IjI3IiB4Mj0iOTciIHkxPSIzNjEuMTI1IiB5Mj0iMzYxLjEyNSIvPjx0ZXh0IGZpbGw9IiMwMDAwMDAiIGZvbnQtZmFtaWx5PSJzYW5zLXNlcmlmIiBmb250LXNpemU9IjEzIiBsZW5ndGhBZGp1c3Q9InNwYWNpbmciIHRleHRMZW5ndGg9IjUyIiB4PSIzOSIgeT0iMzU3LjUiPiYjMjU3NzM7JiMyNTkxODsmIzM4ODk5OyYjMjAwNDg7PC90ZXh0PjwhLS1TUkM9W0lxbWtvSXpJVTN2Ym5SRUV4TG01WUtLYmNTY1AxT2J2OUdmRnJvcTIyWnJWbEh2NXpEY1N0Z1RUMnA1NGZzdnVyaGxrd1F4OU41bUdhbkhxeEgwNkE1V2ZGNl9RLVJIenp4RXJGU3pjUi05MkkwMUxtR3E0Z2RnblZsa3BaS3FHTEtfc0J0cE1rOXVCOEdySTJ4QzZnRlJQX0FLbHJZejJMR2tOSFpUdF92SWRpLVZYRFhWUGZMWks0a05VUHpGUWQtcFVYa1BVaTFYNHdFZEM1STBUVlRrVnphejNyTzZjMjhfUmlUYzFvLXJHaklYa1h5T0RDRjBjaE5xc1BUX0ItUGtWeDltMDAwMDBdLS0+PC9nPjwvc3ZnPg==;" parent="1" vertex="1">
            <mxGeometry x="20" y="1110" width="430" height="458" as="geometry" />
          </mxCell>
        </UserObject>
        <UserObject label="" plantUmlData="{&#xa;  &quot;data&quot;: &quot;@startuml\nactor 用户\nparticipant 客户端\nparticipant 服务端\nparticipant 数据库\n\n用户 -&gt; 客户端 : 输入账号密码\n客户端 -&gt; 服务端 : 发送登录请求\n服务端 -&gt; 数据库 : 验证账号密码\n数据库 -&gt; 服务端 : 返回验证结果\nalt 登录成功\n    服务端 -&gt; 客户端 : 返回登录结果\n    客户端 -&gt; 客户端 : 存储会话信息\nelse 登录失败\n    服务端 -&gt; 客户端 : 返回登录失败\nend\n@enduml\n&quot;,&#xa;  &quot;format&quot;: &quot;svg&quot;&#xa;}" id="4L9ICEicornQjW7cZm7l-21">
          <mxCell style="shape=image;noLabel=1;verticalAlign=top;aspect=fixed;imageAspect=0;image=data:image/svg+xml,PD94bWwgdmVyc2lvbj0iMS4wIiBlbmNvZGluZz0idXMtYXNjaWkiIHN0YW5kYWxvbmU9Im5vIj8+PHN2ZyB4bWxucz0iaHR0cDovL3d3dy53My5vcmcvMjAwMC9zdmciIHhtbG5zOnhsaW5rPSJodHRwOi8vd3d3LnczLm9yZy8xOTk5L3hsaW5rIiBjb250ZW50U3R5bGVUeXBlPSJ0ZXh0L2NzcyIgaGVpZ2h0PSI0MzFweCIgcHJlc2VydmVBc3BlY3RSYXRpbz0ibm9uZSIgc3R5bGU9IndpZHRoOjM2MnB4O2hlaWdodDo0MzFweDtiYWNrZ3JvdW5kOiNGRkZGRkY7IiB2ZXJzaW9uPSIxLjEiIHZpZXdCb3g9IjAgMCAzNjIgNDMxIiB3aWR0aD0iMzYycHgiIHpvb21BbmRQYW49Im1hZ25pZnkiPjxkZWZzLz48Zz48cmVjdCBmaWxsPSJub25lIiBoZWlnaHQ9IjEyNi40Mjk3IiBzdHlsZT0ic3Ryb2tlOiMwMDAwMDA7c3Ryb2tlLXdpZHRoOjEuNTsiIHdpZHRoPSIxNzgiIHg9Ijg2IiB5PSIyMDguNjQwNiIvPjxsaW5lIHN0eWxlPSJzdHJva2U6IzE4MTgxODtzdHJva2Utd2lkdGg6MC41O3N0cm9rZS1kYXNoYXJyYXk6NS4wLDUuMDsiIHgxPSIyMiIgeDI9IjIyIiB5MT0iNzkuOTg0NCIgeTI9IjM1Mi4wNzAzIi8+PGxpbmUgc3R5bGU9InN0cm9rZTojMTgxODE4O3N0cm9rZS13aWR0aDowLjU7c3Ryb2tlLWRhc2hhcnJheTo1LjAsNS4wOyIgeDE9IjEyNCIgeDI9IjEyNCIgeTE9Ijc5Ljk4NDQiIHkyPSIzNTIuMDcwMyIvPjxsaW5lIHN0eWxlPSJzdHJva2U6IzE4MTgxODtzdHJva2Utd2lkdGg6MC41O3N0cm9rZS1kYXNoYXJyYXk6NS4wLDUuMDsiIHgxPSIyMjYiIHgyPSIyMjYiIHkxPSI3OS45ODQ0IiB5Mj0iMzUyLjA3MDMiLz48bGluZSBzdHlsZT0ic3Ryb2tlOiMxODE4MTg7c3Ryb2tlLXdpZHRoOjAuNTtzdHJva2UtZGFzaGFycmF5OjUuMCw1LjA7IiB4MT0iMzI4IiB4Mj0iMzI4IiB5MT0iNzkuOTg0NCIgeTI9IjM1Mi4wNzAzIi8+PHRleHQgZmlsbD0iIzAwMDAwMCIgZm9udC1mYW1pbHk9InNhbnMtc2VyaWYiIGZvbnQtc2l6ZT0iMTQiIGxlbmd0aEFkanVzdD0ic3BhY2luZyIgdGV4dExlbmd0aD0iMjgiIHg9IjUiIHk9Ijc4LjIzNDQiPiYjMjk5OTI7JiMyNTE0Mzs8L3RleHQ+PGVsbGlwc2UgY3g9IjIyIiBjeT0iMTMuNSIgZmlsbD0iI0UyRTJGMCIgcng9IjgiIHJ5PSI4IiBzdHlsZT0ic3Ryb2tlOiMxODE4MTg7c3Ryb2tlLXdpZHRoOjAuNTsiLz48cGF0aCBkPSJNMjIsMjEuNSBMMjIsNDguNSBNOSwyOS41IEwzNSwyOS41IE0yMiw0OC41IEw5LDYzLjUgTTIyLDQ4LjUgTDM1LDYzLjUgIiBmaWxsPSJub25lIiBzdHlsZT0ic3Ryb2tlOiMxODE4MTg7c3Ryb2tlLXdpZHRoOjAuNTsiLz48dGV4dCBmaWxsPSIjMDAwMDAwIiBmb250LWZhbWlseT0ic2Fucy1zZXJpZiIgZm9udC1zaXplPSIxNCIgbGVuZ3RoQWRqdXN0PSJzcGFjaW5nIiB0ZXh0TGVuZ3RoPSIyOCIgeD0iNSIgeT0iMzY0LjMwNDciPiYjMjk5OTI7JiMyNTE0Mzs8L3RleHQ+PGVsbGlwc2UgY3g9IjIyIiBjeT0iMzc0LjU1NDciIGZpbGw9IiNFMkUyRjAiIHJ4PSI4IiByeT0iOCIgc3R5bGU9InN0cm9rZTojMTgxODE4O3N0cm9rZS13aWR0aDowLjU7Ii8+PHBhdGggZD0iTTIyLDM4Mi41NTQ3IEwyMiw0MDkuNTU0NyBNOSwzOTAuNTU0NyBMMzUsMzkwLjU1NDcgTTIyLDQwOS41NTQ3IEw5LDQyNC41NTQ3IE0yMiw0MDkuNTU0NyBMMzUsNDI0LjU1NDcgIiBmaWxsPSJub25lIiBzdHlsZT0ic3Ryb2tlOiMxODE4MTg7c3Ryb2tlLXdpZHRoOjAuNTsiLz48cmVjdCBmaWxsPSIjRTJFMkYwIiBoZWlnaHQ9IjI4Ljk4NDQiIHJ4PSIyLjUiIHJ5PSIyLjUiIHN0eWxlPSJzdHJva2U6IzE4MTgxODtzdHJva2Utd2lkdGg6MC41OyIgd2lkdGg9IjU2IiB4PSI5NiIgeT0iNTAiLz48dGV4dCBmaWxsPSIjMDAwMDAwIiBmb250LWZhbWlseT0ic2Fucy1zZXJpZiIgZm9udC1zaXplPSIxNCIgbGVuZ3RoQWRqdXN0PSJzcGFjaW5nIiB0ZXh0TGVuZ3RoPSI0MiIgeD0iMTAzIiB5PSI3MC4yMzQ0Ij4mIzIzNDU4OyYjMjUxNDM7JiMzMTQ3MTs8L3RleHQ+PHJlY3QgZmlsbD0iI0UyRTJGMCIgaGVpZ2h0PSIyOC45ODQ0IiByeD0iMi41IiByeT0iMi41IiBzdHlsZT0ic3Ryb2tlOiMxODE4MTg7c3Ryb2tlLXdpZHRoOjAuNTsiIHdpZHRoPSI1NiIgeD0iOTYiIHk9IjM1MS4wNzAzIi8+PHRleHQgZmlsbD0iIzAwMDAwMCIgZm9udC1mYW1pbHk9InNhbnMtc2VyaWYiIGZvbnQtc2l6ZT0iMTQiIGxlbmd0aEFkanVzdD0ic3BhY2luZyIgdGV4dExlbmd0aD0iNDIiIHg9IjEwMyIgeT0iMzcxLjMwNDciPiYjMjM0NTg7JiMyNTE0MzsmIzMxNDcxOzwvdGV4dD48cmVjdCBmaWxsPSIjRTJFMkYwIiBoZWlnaHQ9IjI4Ljk4NDQiIHJ4PSIyLjUiIHJ5PSIyLjUiIHN0eWxlPSJzdHJva2U6IzE4MTgxODtzdHJva2Utd2lkdGg6MC41OyIgd2lkdGg9IjU2IiB4PSIxOTgiIHk9IjUwIi8+PHRleHQgZmlsbD0iIzAwMDAwMCIgZm9udC1mYW1pbHk9InNhbnMtc2VyaWYiIGZvbnQtc2l6ZT0iMTQiIGxlbmd0aEFkanVzdD0ic3BhY2luZyIgdGV4dExlbmd0aD0iNDIiIHg9IjIwNSIgeT0iNzAuMjM0NCI+JiMyNjM4MTsmIzIxMTUzOyYjMzE0NzE7PC90ZXh0PjxyZWN0IGZpbGw9IiNFMkUyRjAiIGhlaWdodD0iMjguOTg0NCIgcng9IjIuNSIgcnk9IjIuNSIgc3R5bGU9InN0cm9rZTojMTgxODE4O3N0cm9rZS13aWR0aDowLjU7IiB3aWR0aD0iNTYiIHg9IjE5OCIgeT0iMzUxLjA3MDMiLz48dGV4dCBmaWxsPSIjMDAwMDAwIiBmb250LWZhbWlseT0ic2Fucy1zZXJpZiIgZm9udC1zaXplPSIxNCIgbGVuZ3RoQWRqdXN0PSJzcGFjaW5nIiB0ZXh0TGVuZ3RoPSI0MiIgeD0iMjA1IiB5PSIzNzEuMzA0NyI+JiMyNjM4MTsmIzIxMTUzOyYjMzE0NzE7PC90ZXh0PjxyZWN0IGZpbGw9IiNFMkUyRjAiIGhlaWdodD0iMjguOTg0NCIgcng9IjIuNSIgcnk9IjIuNSIgc3R5bGU9InN0cm9rZTojMTgxODE4O3N0cm9rZS13aWR0aDowLjU7IiB3aWR0aD0iNTYiIHg9IjMwMCIgeT0iNTAiLz48dGV4dCBmaWxsPSIjMDAwMDAwIiBmb250LWZhbWlseT0ic2Fucy1zZXJpZiIgZm9udC1zaXplPSIxNCIgbGVuZ3RoQWRqdXN0PSJzcGFjaW5nIiB0ZXh0TGVuZ3RoPSI0MiIgeD0iMzA3IiB5PSI3MC4yMzQ0Ij4mIzI1OTY4OyYjMjU0NTQ7JiMyNDIxMTs8L3RleHQ+PHJlY3QgZmlsbD0iI0UyRTJGMCIgaGVpZ2h0PSIyOC45ODQ0IiByeD0iMi41IiByeT0iMi41IiBzdHlsZT0ic3Ryb2tlOiMxODE4MTg7c3Ryb2tlLXdpZHRoOjAuNTsiIHdpZHRoPSI1NiIgeD0iMzAwIiB5PSIzNTEuMDcwMyIvPjx0ZXh0IGZpbGw9IiMwMDAwMDAiIGZvbnQtZmFtaWx5PSJzYW5zLXNlcmlmIiBmb250LXNpemU9IjE0IiBsZW5ndGhBZGp1c3Q9InNwYWNpbmciIHRleHRMZW5ndGg9IjQyIiB4PSIzMDciIHk9IjM3MS4zMDQ3Ij4mIzI1OTY4OyYjMjU0NTQ7JiMyNDIxMTs8L3RleHQ+PHBvbHlnb24gZmlsbD0iIzE4MTgxOCIgcG9pbnRzPSIxMTIsMTA1Ljg5ODQsMTIyLDEwOS44OTg0LDExMiwxMTMuODk4NCwxMTYsMTA5Ljg5ODQiIHN0eWxlPSJzdHJva2U6IzE4MTgxODtzdHJva2Utd2lkdGg6MS4wOyIvPjxsaW5lIHN0eWxlPSJzdHJva2U6IzE4MTgxODtzdHJva2Utd2lkdGg6MS4wOyIgeDE9IjIyIiB4Mj0iMTE4IiB5MT0iMTA5Ljg5ODQiIHkyPSIxMDkuODk4NCIvPjx0ZXh0IGZpbGw9IiMwMDAwMDAiIGZvbnQtZmFtaWx5PSJzYW5zLXNlcmlmIiBmb250LXNpemU9IjEzIiBsZW5ndGhBZGp1c3Q9InNwYWNpbmciIHRleHRMZW5ndGg9Ijc4IiB4PSIyOSIgeT0iMTA2LjI3MzQiPiYjMzY3NTU7JiMyMDgzNzsmIzM2MTM0OyYjMjE0OTU7JiMyMzQ5NDsmIzMwNzIxOzwvdGV4dD48cG9seWdvbiBmaWxsPSIjMTgxODE4IiBwb2ludHM9IjIxNCwxMzMuODEyNSwyMjQsMTM3LjgxMjUsMjE0LDE0MS44MTI1LDIxOCwxMzcuODEyNSIgc3R5bGU9InN0cm9rZTojMTgxODE4O3N0cm9rZS13aWR0aDoxLjA7Ii8+PGxpbmUgc3R5bGU9InN0cm9rZTojMTgxODE4O3N0cm9rZS13aWR0aDoxLjA7IiB4MT0iMTI0IiB4Mj0iMjIwIiB5MT0iMTM3LjgxMjUiIHkyPSIxMzcuODEyNSIvPjx0ZXh0IGZpbGw9IiMwMDAwMDAiIGZvbnQtZmFtaWx5PSJzYW5zLXNlcmlmIiBmb250LXNpemU9IjEzIiBsZW5ndGhBZGp1c3Q9InNwYWNpbmciIHRleHRMZW5ndGg9Ijc4IiB4PSIxMzEiIHk9IjEzNC4xODc1Ij4mIzIxNDU3OyYjMzY4NjU7JiMzMDMzMTsmIzI0NDA1OyYjMzU4MzE7JiMyNzcxNDs8L3RleHQ+PHBvbHlnb24gZmlsbD0iIzE4MTgxOCIgcG9pbnRzPSIzMTYsMTYxLjcyNjYsMzI2LDE2NS43MjY2LDMxNiwxNjkuNzI2NiwzMjAsMTY1LjcyNjYiIHN0eWxlPSJzdHJva2U6IzE4MTgxODtzdHJva2Utd2lkdGg6MS4wOyIvPjxsaW5lIHN0eWxlPSJzdHJva2U6IzE4MTgxODtzdHJva2Utd2lkdGg6MS4wOyIgeDE9IjIyNiIgeDI9IjMyMiIgeTE9IjE2NS43MjY2IiB5Mj0iMTY1LjcyNjYiLz48dGV4dCBmaWxsPSIjMDAwMDAwIiBmb250LWZhbWlseT0ic2Fucy1zZXJpZiIgZm9udC1zaXplPSIxMyIgbGVuZ3RoQWRqdXN0PSJzcGFjaW5nIiB0ZXh0TGVuZ3RoPSI3OCIgeD0iMjMzIiB5PSIxNjIuMTAxNiI+JiMzOTU2NDsmIzM1Nzc3OyYjMzYxMzQ7JiMyMTQ5NTsmIzIzNDk0OyYjMzA3MjE7PC90ZXh0Pjxwb2x5Z29uIGZpbGw9IiMxODE4MTgiIHBvaW50cz0iMjM3LDE4OS42NDA2LDIyNywxOTMuNjQwNiwyMzcsMTk3LjY0MDYsMjMzLDE5My42NDA2IiBzdHlsZT0ic3Ryb2tlOiMxODE4MTg7c3Ryb2tlLXdpZHRoOjEuMDsiLz48bGluZSBzdHlsZT0ic3Ryb2tlOiMxODE4MTg7c3Ryb2tlLXdpZHRoOjEuMDsiIHgxPSIyMzEiIHgyPSIzMjciIHkxPSIxOTMuNjQwNiIgeTI9IjE5My42NDA2Ii8+PHRleHQgZmlsbD0iIzAwMDAwMCIgZm9udC1mYW1pbHk9InNhbnMtc2VyaWYiIGZvbnQtc2l6ZT0iMTMiIGxlbmd0aEFkanVzdD0ic3BhY2luZyIgdGV4dExlbmd0aD0iNzgiIHg9IjI0MyIgeT0iMTkwLjAxNTYiPiYjMzY4MjA7JiMyMjIzODsmIzM5NTY0OyYjMzU3Nzc7JiMzMjQ2NzsmIzI2NTI0OzwvdGV4dD48cGF0aCBkPSJNODYsMjA4LjY0MDYgTDE1MCwyMDguNjQwNiBMMTUwLDIxNC41NTQ3IEwxNDAsMjI0LjU1NDcgTDg2LDIyNC41NTQ3IEw4NiwyMDguNjQwNiAiIGZpbGw9IiNFRUVFRUUiIHN0eWxlPSJzdHJva2U6IzAwMDAwMDtzdHJva2Utd2lkdGg6MS41OyIvPjxyZWN0IGZpbGw9Im5vbmUiIGhlaWdodD0iMTI2LjQyOTciIHN0eWxlPSJzdHJva2U6IzAwMDAwMDtzdHJva2Utd2lkdGg6MS41OyIgd2lkdGg9IjE3OCIgeD0iODYiIHk9IjIwOC42NDA2Ii8+PHRleHQgZmlsbD0iIzAwMDAwMCIgZm9udC1mYW1pbHk9InNhbnMtc2VyaWYiIGZvbnQtc2l6ZT0iMTMiIGZvbnQtd2VpZ2h0PSJib2xkIiBsZW5ndGhBZGp1c3Q9InNwYWNpbmciIHRleHRMZW5ndGg9IjE5IiB4PSIxMDEiIHk9IjIyMS45Mjk3Ij5hbHQ8L3RleHQ+PHRleHQgZmlsbD0iIzAwMDAwMCIgZm9udC1mYW1pbHk9InNhbnMtc2VyaWYiIGZvbnQtc2l6ZT0iMTEiIGZvbnQtd2VpZ2h0PSJib2xkIiBsZW5ndGhBZGp1c3Q9InNwYWNpbmciIHRleHRMZW5ndGg9IjU2IiB4PSIxNjUiIHk9IjIyMS4wMzkxIj5bJiMzMDMzMTsmIzI0NDA1OyYjMjUxMDQ7JiMyMTE1MTtdPC90ZXh0Pjxwb2x5Z29uIGZpbGw9IiMxODE4MTgiIHBvaW50cz0iMTM1LDI0MC40Njg4LDEyNSwyNDQuNDY4OCwxMzUsMjQ4LjQ2ODgsMTMxLDI0NC40Njg4IiBzdHlsZT0ic3Ryb2tlOiMxODE4MTg7c3Ryb2tlLXdpZHRoOjEuMDsiLz48bGluZSBzdHlsZT0ic3Ryb2tlOiMxODE4MTg7c3Ryb2tlLXdpZHRoOjEuMDsiIHgxPSIxMjkiIHgyPSIyMjUiIHkxPSIyNDQuNDY4OCIgeTI9IjI0NC40Njg4Ii8+PHRleHQgZmlsbD0iIzAwMDAwMCIgZm9udC1mYW1pbHk9InNhbnMtc2VyaWYiIGZvbnQtc2l6ZT0iMTMiIGxlbmd0aEFkanVzdD0ic3BhY2luZyIgdGV4dExlbmd0aD0iNzgiIHg9IjE0MSIgeT0iMjQwLjg0MzgiPiYjMzY4MjA7JiMyMjIzODsmIzMwMzMxOyYjMjQ0MDU7JiMzMjQ2NzsmIzI2NTI0OzwvdGV4dD48bGluZSBzdHlsZT0ic3Ryb2tlOiMxODE4MTg7c3Ryb2tlLXdpZHRoOjEuMDsiIHgxPSIxMjQiIHgyPSIxNjYiIHkxPSIyNzIuMzgyOCIgeTI9IjI3Mi4zODI4Ii8+PGxpbmUgc3R5bGU9InN0cm9rZTojMTgxODE4O3N0cm9rZS13aWR0aDoxLjA7IiB4MT0iMTY2IiB4Mj0iMTY2IiB5MT0iMjcyLjM4MjgiIHkyPSIyODUuMzgyOCIvPjxsaW5lIHN0eWxlPSJzdHJva2U6IzE4MTgxODtzdHJva2Utd2lkdGg6MS4wOyIgeDE9IjEyNSIgeDI9IjE2NiIgeTE9IjI4NS4zODI4IiB5Mj0iMjg1LjM4MjgiLz48cG9seWdvbiBmaWxsPSIjMTgxODE4IiBwb2ludHM9IjEzNSwyODEuMzgyOCwxMjUsMjg1LjM4MjgsMTM1LDI4OS4zODI4LDEzMSwyODUuMzgyOCIgc3R5bGU9InN0cm9rZTojMTgxODE4O3N0cm9rZS13aWR0aDoxLjA7Ii8+PHRleHQgZmlsbD0iIzAwMDAwMCIgZm9udC1mYW1pbHk9InNhbnMtc2VyaWYiIGZvbnQtc2l6ZT0iMTMiIGxlbmd0aEFkanVzdD0ic3BhY2luZyIgdGV4dExlbmd0aD0iNzgiIHg9IjEzMSIgeT0iMjY4Ljc1NzgiPiYjMjMzODQ7JiMyMDY0ODsmIzIwMjUwOyYjMzU4MDU7JiMyMDQ0OTsmIzI0Njg3OzwvdGV4dD48bGluZSBzdHlsZT0ic3Ryb2tlOiMwMDAwMDA7c3Ryb2tlLXdpZHRoOjEuMDtzdHJva2UtZGFzaGFycmF5OjIuMCwyLjA7IiB4MT0iODYiIHgyPSIyNjQiIHkxPSIyOTQuMzgyOCIgeTI9IjI5NC4zODI4Ii8+PHRleHQgZmlsbD0iIzAwMDAwMCIgZm9udC1mYW1pbHk9InNhbnMtc2VyaWYiIGZvbnQtc2l6ZT0iMTEiIGZvbnQtd2VpZ2h0PSJib2xkIiBsZW5ndGhBZGp1c3Q9InNwYWNpbmciIHRleHRMZW5ndGg9IjU2IiB4PSI5MSIgeT0iMzA0Ljc4MTMiPlsmIzMwMzMxOyYjMjQ0MDU7JiMyMjgzMzsmIzM2MTMzO108L3RleHQ+PHBvbHlnb24gZmlsbD0iIzE4MTgxOCIgcG9pbnRzPSIxMzUsMzIzLjA3MDMsMTI1LDMyNy4wNzAzLDEzNSwzMzEuMDcwMywxMzEsMzI3LjA3MDMiIHN0eWxlPSJzdHJva2U6IzE4MTgxODtzdHJva2Utd2lkdGg6MS4wOyIvPjxsaW5lIHN0eWxlPSJzdHJva2U6IzE4MTgxODtzdHJva2Utd2lkdGg6MS4wOyIgeDE9IjEyOSIgeDI9IjIyNSIgeTE9IjMyNy4wNzAzIiB5Mj0iMzI3LjA3MDMiLz48dGV4dCBmaWxsPSIjMDAwMDAwIiBmb250LWZhbWlseT0ic2Fucy1zZXJpZiIgZm9udC1zaXplPSIxMyIgbGVuZ3RoQWRqdXN0PSJzcGFjaW5nIiB0ZXh0TGVuZ3RoPSI3OCIgeD0iMTQxIiB5PSIzMjMuNDQ1MyI+JiMzNjgyMDsmIzIyMjM4OyYjMzAzMzE7JiMyNDQwNTsmIzIyODMzOyYjMzYxMzM7PC90ZXh0PjwhLS1TUkM9W1pPelIzaTUwNjhOVlBuTXAwSGxtTzJ5RFZNV1kyNXMwSWFXWjEyYzlRd2FXM001ODk0clNELUVWY1V4MnE1QjNZdGF5dnZsbHY1VUlVWlFGTVRrYmZlVG9JYnhOYWJmRW9VV09EYkNIaUhNSEtaZ2lHek52SUpqUk1qXzBtSzhlQ0U1TzhYQldFRU9OMnlmcGxiejBtbURJT0hDM0hSTFd0cmgxR2dGYjVtdE1FeUF2bXViN1RvS0tyR19zRElQT1ZyZFpuOTJ5S1Z0YnZUU3MzRXBXMXBqUXIxdVk5UXRaTzhZUUpRWUU0SFBGNmZFRVUwZTJGWEd5VUVjR0pueE1OSVl2anJFVmF6N2p3YjIzODNMVEtDRDVjRXR1Vmx4X09pWWhjVEdUXS0tPjwvZz48L3N2Zz4=;" parent="1" vertex="1">
            <mxGeometry x="480" y="1110" width="362" height="431" as="geometry" />
          </mxCell>
        </UserObject>
        <UserObject label="" plantUmlData="{&#xa;  &quot;data&quot;: &quot;@startuml\nactor 用户\nparticipant 客户端\nparticipant 服务端\nparticipant 数据库\n\n用户 -&gt; 客户端 : 点击评分\n客户端 -&gt; 服务端 : 发送评分请求\n服务端 -&gt; 数据库 : 保存评分\n数据库 -&gt; 服务端 : 返回保存结果\n服务端 -&gt; 客户端 : 返回评分结果\n客户端 -&gt; 用户 : 显示评分结果\n@enduml\n&quot;,&#xa;  &quot;format&quot;: &quot;svg&quot;&#xa;}" id="4L9ICEicornQjW7cZm7l-22">
          <mxCell style="shape=image;noLabel=1;verticalAlign=top;aspect=fixed;imageAspect=0;image=data:image/svg+xml,PD94bWwgdmVyc2lvbj0iMS4wIiBlbmNvZGluZz0idXMtYXNjaWkiIHN0YW5kYWxvbmU9Im5vIj8+PHN2ZyB4bWxucz0iaHR0cDovL3d3dy53My5vcmcvMjAwMC9zdmciIHhtbG5zOnhsaW5rPSJodHRwOi8vd3d3LnczLm9yZy8xOTk5L3hsaW5rIiBjb250ZW50U3R5bGVUeXBlPSJ0ZXh0L2NzcyIgaGVpZ2h0PSIzNDZweCIgcHJlc2VydmVBc3BlY3RSYXRpbz0ibm9uZSIgc3R5bGU9IndpZHRoOjM2MnB4O2hlaWdodDozNDZweDtiYWNrZ3JvdW5kOiNGRkZGRkY7IiB2ZXJzaW9uPSIxLjEiIHZpZXdCb3g9IjAgMCAzNjIgMzQ2IiB3aWR0aD0iMzYycHgiIHpvb21BbmRQYW49Im1hZ25pZnkiPjxkZWZzLz48Zz48bGluZSBzdHlsZT0ic3Ryb2tlOiMxODE4MTg7c3Ryb2tlLXdpZHRoOjAuNTtzdHJva2UtZGFzaGFycmF5OjUuMCw1LjA7IiB4MT0iMjIiIHgyPSIyMiIgeTE9Ijc5Ljk4NDQiIHkyPSIyNjcuNDY4OCIvPjxsaW5lIHN0eWxlPSJzdHJva2U6IzE4MTgxODtzdHJva2Utd2lkdGg6MC41O3N0cm9rZS1kYXNoYXJyYXk6NS4wLDUuMDsiIHgxPSIxMjQiIHgyPSIxMjQiIHkxPSI3OS45ODQ0IiB5Mj0iMjY3LjQ2ODgiLz48bGluZSBzdHlsZT0ic3Ryb2tlOiMxODE4MTg7c3Ryb2tlLXdpZHRoOjAuNTtzdHJva2UtZGFzaGFycmF5OjUuMCw1LjA7IiB4MT0iMjI2IiB4Mj0iMjI2IiB5MT0iNzkuOTg0NCIgeTI9IjI2Ny40Njg4Ii8+PGxpbmUgc3R5bGU9InN0cm9rZTojMTgxODE4O3N0cm9rZS13aWR0aDowLjU7c3Ryb2tlLWRhc2hhcnJheTo1LjAsNS4wOyIgeDE9IjMyOCIgeDI9IjMyOCIgeTE9Ijc5Ljk4NDQiIHkyPSIyNjcuNDY4OCIvPjx0ZXh0IGZpbGw9IiMwMDAwMDAiIGZvbnQtZmFtaWx5PSJzYW5zLXNlcmlmIiBmb250LXNpemU9IjE0IiBsZW5ndGhBZGp1c3Q9InNwYWNpbmciIHRleHRMZW5ndGg9IjI4IiB4PSI1IiB5PSI3OC4yMzQ0Ij4mIzI5OTkyOyYjMjUxNDM7PC90ZXh0PjxlbGxpcHNlIGN4PSIyMiIgY3k9IjEzLjUiIGZpbGw9IiNFMkUyRjAiIHJ4PSI4IiByeT0iOCIgc3R5bGU9InN0cm9rZTojMTgxODE4O3N0cm9rZS13aWR0aDowLjU7Ii8+PHBhdGggZD0iTTIyLDIxLjUgTDIyLDQ4LjUgTTksMjkuNSBMMzUsMjkuNSBNMjIsNDguNSBMOSw2My41IE0yMiw0OC41IEwzNSw2My41ICIgZmlsbD0ibm9uZSIgc3R5bGU9InN0cm9rZTojMTgxODE4O3N0cm9rZS13aWR0aDowLjU7Ii8+PHRleHQgZmlsbD0iIzAwMDAwMCIgZm9udC1mYW1pbHk9InNhbnMtc2VyaWYiIGZvbnQtc2l6ZT0iMTQiIGxlbmd0aEFkanVzdD0ic3BhY2luZyIgdGV4dExlbmd0aD0iMjgiIHg9IjUiIHk9IjI3OS43MDMxIj4mIzI5OTkyOyYjMjUxNDM7PC90ZXh0PjxlbGxpcHNlIGN4PSIyMiIgY3k9IjI4OS45NTMxIiBmaWxsPSIjRTJFMkYwIiByeD0iOCIgcnk9IjgiIHN0eWxlPSJzdHJva2U6IzE4MTgxODtzdHJva2Utd2lkdGg6MC41OyIvPjxwYXRoIGQ9Ik0yMiwyOTcuOTUzMSBMMjIsMzI0Ljk1MzEgTTksMzA1Ljk1MzEgTDM1LDMwNS45NTMxIE0yMiwzMjQuOTUzMSBMOSwzMzkuOTUzMSBNMjIsMzI0Ljk1MzEgTDM1LDMzOS45NTMxICIgZmlsbD0ibm9uZSIgc3R5bGU9InN0cm9rZTojMTgxODE4O3N0cm9rZS13aWR0aDowLjU7Ii8+PHJlY3QgZmlsbD0iI0UyRTJGMCIgaGVpZ2h0PSIyOC45ODQ0IiByeD0iMi41IiByeT0iMi41IiBzdHlsZT0ic3Ryb2tlOiMxODE4MTg7c3Ryb2tlLXdpZHRoOjAuNTsiIHdpZHRoPSI1NiIgeD0iOTYiIHk9IjUwIi8+PHRleHQgZmlsbD0iIzAwMDAwMCIgZm9udC1mYW1pbHk9InNhbnMtc2VyaWYiIGZvbnQtc2l6ZT0iMTQiIGxlbmd0aEFkanVzdD0ic3BhY2luZyIgdGV4dExlbmd0aD0iNDIiIHg9IjEwMyIgeT0iNzAuMjM0NCI+JiMyMzQ1ODsmIzI1MTQzOyYjMzE0NzE7PC90ZXh0PjxyZWN0IGZpbGw9IiNFMkUyRjAiIGhlaWdodD0iMjguOTg0NCIgcng9IjIuNSIgcnk9IjIuNSIgc3R5bGU9InN0cm9rZTojMTgxODE4O3N0cm9rZS13aWR0aDowLjU7IiB3aWR0aD0iNTYiIHg9Ijk2IiB5PSIyNjYuNDY4OCIvPjx0ZXh0IGZpbGw9IiMwMDAwMDAiIGZvbnQtZmFtaWx5PSJzYW5zLXNlcmlmIiBmb250LXNpemU9IjE0IiBsZW5ndGhBZGp1c3Q9InNwYWNpbmciIHRleHRMZW5ndGg9IjQyIiB4PSIxMDMiIHk9IjI4Ni43MDMxIj4mIzIzNDU4OyYjMjUxNDM7JiMzMTQ3MTs8L3RleHQ+PHJlY3QgZmlsbD0iI0UyRTJGMCIgaGVpZ2h0PSIyOC45ODQ0IiByeD0iMi41IiByeT0iMi41IiBzdHlsZT0ic3Ryb2tlOiMxODE4MTg7c3Ryb2tlLXdpZHRoOjAuNTsiIHdpZHRoPSI1NiIgeD0iMTk4IiB5PSI1MCIvPjx0ZXh0IGZpbGw9IiMwMDAwMDAiIGZvbnQtZmFtaWx5PSJzYW5zLXNlcmlmIiBmb250LXNpemU9IjE0IiBsZW5ndGhBZGp1c3Q9InNwYWNpbmciIHRleHRMZW5ndGg9IjQyIiB4PSIyMDUiIHk9IjcwLjIzNDQiPiYjMjYzODE7JiMyMTE1MzsmIzMxNDcxOzwvdGV4dD48cmVjdCBmaWxsPSIjRTJFMkYwIiBoZWlnaHQ9IjI4Ljk4NDQiIHJ4PSIyLjUiIHJ5PSIyLjUiIHN0eWxlPSJzdHJva2U6IzE4MTgxODtzdHJva2Utd2lkdGg6MC41OyIgd2lkdGg9IjU2IiB4PSIxOTgiIHk9IjI2Ni40Njg4Ii8+PHRleHQgZmlsbD0iIzAwMDAwMCIgZm9udC1mYW1pbHk9InNhbnMtc2VyaWYiIGZvbnQtc2l6ZT0iMTQiIGxlbmd0aEFkanVzdD0ic3BhY2luZyIgdGV4dExlbmd0aD0iNDIiIHg9IjIwNSIgeT0iMjg2LjcwMzEiPiYjMjYzODE7JiMyMTE1MzsmIzMxNDcxOzwvdGV4dD48cmVjdCBmaWxsPSIjRTJFMkYwIiBoZWlnaHQ9IjI4Ljk4NDQiIHJ4PSIyLjUiIHJ5PSIyLjUiIHN0eWxlPSJzdHJva2U6IzE4MTgxODtzdHJva2Utd2lkdGg6MC41OyIgd2lkdGg9IjU2IiB4PSIzMDAiIHk9IjUwIi8+PHRleHQgZmlsbD0iIzAwMDAwMCIgZm9udC1mYW1pbHk9InNhbnMtc2VyaWYiIGZvbnQtc2l6ZT0iMTQiIGxlbmd0aEFkanVzdD0ic3BhY2luZyIgdGV4dExlbmd0aD0iNDIiIHg9IjMwNyIgeT0iNzAuMjM0NCI+JiMyNTk2ODsmIzI1NDU0OyYjMjQyMTE7PC90ZXh0PjxyZWN0IGZpbGw9IiNFMkUyRjAiIGhlaWdodD0iMjguOTg0NCIgcng9IjIuNSIgcnk9IjIuNSIgc3R5bGU9InN0cm9rZTojMTgxODE4O3N0cm9rZS13aWR0aDowLjU7IiB3aWR0aD0iNTYiIHg9IjMwMCIgeT0iMjY2LjQ2ODgiLz48dGV4dCBmaWxsPSIjMDAwMDAwIiBmb250LWZhbWlseT0ic2Fucy1zZXJpZiIgZm9udC1zaXplPSIxNCIgbGVuZ3RoQWRqdXN0PSJzcGFjaW5nIiB0ZXh0TGVuZ3RoPSI0MiIgeD0iMzA3IiB5PSIyODYuNzAzMSI+JiMyNTk2ODsmIzI1NDU0OyYjMjQyMTE7PC90ZXh0Pjxwb2x5Z29uIGZpbGw9IiMxODE4MTgiIHBvaW50cz0iMTEyLDEwNS44OTg0LDEyMiwxMDkuODk4NCwxMTIsMTEzLjg5ODQsMTE2LDEwOS44OTg0IiBzdHlsZT0ic3Ryb2tlOiMxODE4MTg7c3Ryb2tlLXdpZHRoOjEuMDsiLz48bGluZSBzdHlsZT0ic3Ryb2tlOiMxODE4MTg7c3Ryb2tlLXdpZHRoOjEuMDsiIHgxPSIyMiIgeDI9IjExOCIgeTE9IjEwOS44OTg0IiB5Mj0iMTA5Ljg5ODQiLz48dGV4dCBmaWxsPSIjMDAwMDAwIiBmb250LWZhbWlseT0ic2Fucy1zZXJpZiIgZm9udC1zaXplPSIxMyIgbGVuZ3RoQWRqdXN0PSJzcGFjaW5nIiB0ZXh0TGVuZ3RoPSI1MiIgeD0iMjkiIHk9IjEwNi4yNzM0Ij4mIzI4ODU3OyYjMjA5ODc7JiMzNTc4MDsmIzIwOTk4OzwvdGV4dD48cG9seWdvbiBmaWxsPSIjMTgxODE4IiBwb2ludHM9IjIxNCwxMzMuODEyNSwyMjQsMTM3LjgxMjUsMjE0LDE0MS44MTI1LDIxOCwxMzcuODEyNSIgc3R5bGU9InN0cm9rZTojMTgxODE4O3N0cm9rZS13aWR0aDoxLjA7Ii8+PGxpbmUgc3R5bGU9InN0cm9rZTojMTgxODE4O3N0cm9rZS13aWR0aDoxLjA7IiB4MT0iMTI0IiB4Mj0iMjIwIiB5MT0iMTM3LjgxMjUiIHkyPSIxMzcuODEyNSIvPjx0ZXh0IGZpbGw9IiMwMDAwMDAiIGZvbnQtZmFtaWx5PSJzYW5zLXNlcmlmIiBmb250LXNpemU9IjEzIiBsZW5ndGhBZGp1c3Q9InNwYWNpbmciIHRleHRMZW5ndGg9Ijc4IiB4PSIxMzEiIHk9IjEzNC4xODc1Ij4mIzIxNDU3OyYjMzY4NjU7JiMzNTc4MDsmIzIwOTk4OyYjMzU4MzE7JiMyNzcxNDs8L3RleHQ+PHBvbHlnb24gZmlsbD0iIzE4MTgxOCIgcG9pbnRzPSIzMTYsMTYxLjcyNjYsMzI2LDE2NS43MjY2LDMxNiwxNjkuNzI2NiwzMjAsMTY1LjcyNjYiIHN0eWxlPSJzdHJva2U6IzE4MTgxODtzdHJva2Utd2lkdGg6MS4wOyIvPjxsaW5lIHN0eWxlPSJzdHJva2U6IzE4MTgxODtzdHJva2Utd2lkdGg6MS4wOyIgeDE9IjIyNiIgeDI9IjMyMiIgeTE9IjE2NS43MjY2IiB5Mj0iMTY1LjcyNjYiLz48dGV4dCBmaWxsPSIjMDAwMDAwIiBmb250LWZhbWlseT0ic2Fucy1zZXJpZiIgZm9udC1zaXplPSIxMyIgbGVuZ3RoQWRqdXN0PSJzcGFjaW5nIiB0ZXh0TGVuZ3RoPSI1MiIgeD0iMjMzIiB5PSIxNjIuMTAxNiI+JiMyMDQ0NTsmIzIzMzg0OyYjMzU3ODA7JiMyMDk5ODs8L3RleHQ+PHBvbHlnb24gZmlsbD0iIzE4MTgxOCIgcG9pbnRzPSIyMzcsMTg5LjY0MDYsMjI3LDE5My42NDA2LDIzNywxOTcuNjQwNiwyMzMsMTkzLjY0MDYiIHN0eWxlPSJzdHJva2U6IzE4MTgxODtzdHJva2Utd2lkdGg6MS4wOyIvPjxsaW5lIHN0eWxlPSJzdHJva2U6IzE4MTgxODtzdHJva2Utd2lkdGg6MS4wOyIgeDE9IjIzMSIgeDI9IjMyNyIgeTE9IjE5My42NDA2IiB5Mj0iMTkzLjY0MDYiLz48dGV4dCBmaWxsPSIjMDAwMDAwIiBmb250LWZhbWlseT0ic2Fucy1zZXJpZiIgZm9udC1zaXplPSIxMyIgbGVuZ3RoQWRqdXN0PSJzcGFjaW5nIiB0ZXh0TGVuZ3RoPSI3OCIgeD0iMjQzIiB5PSIxOTAuMDE1NiI+JiMzNjgyMDsmIzIyMjM4OyYjMjA0NDU7JiMyMzM4NDsmIzMyNDY3OyYjMjY1MjQ7PC90ZXh0Pjxwb2x5Z29uIGZpbGw9IiMxODE4MTgiIHBvaW50cz0iMTM1LDIxNy41NTQ3LDEyNSwyMjEuNTU0NywxMzUsMjI1LjU1NDcsMTMxLDIyMS41NTQ3IiBzdHlsZT0ic3Ryb2tlOiMxODE4MTg7c3Ryb2tlLXdpZHRoOjEuMDsiLz48bGluZSBzdHlsZT0ic3Ryb2tlOiMxODE4MTg7c3Ryb2tlLXdpZHRoOjEuMDsiIHgxPSIxMjkiIHgyPSIyMjUiIHkxPSIyMjEuNTU0NyIgeTI9IjIyMS41NTQ3Ii8+PHRleHQgZmlsbD0iIzAwMDAwMCIgZm9udC1mYW1pbHk9InNhbnMtc2VyaWYiIGZvbnQtc2l6ZT0iMTMiIGxlbmd0aEFkanVzdD0ic3BhY2luZyIgdGV4dExlbmd0aD0iNzgiIHg9IjE0MSIgeT0iMjE3LjkyOTciPiYjMzY4MjA7JiMyMjIzODsmIzM1NzgwOyYjMjA5OTg7JiMzMjQ2NzsmIzI2NTI0OzwvdGV4dD48cG9seWdvbiBmaWxsPSIjMTgxODE4IiBwb2ludHM9IjMzLDI0NS40Njg4LDIzLDI0OS40Njg4LDMzLDI1My40Njg4LDI5LDI0OS40Njg4IiBzdHlsZT0ic3Ryb2tlOiMxODE4MTg7c3Ryb2tlLXdpZHRoOjEuMDsiLz48bGluZSBzdHlsZT0ic3Ryb2tlOiMxODE4MTg7c3Ryb2tlLXdpZHRoOjEuMDsiIHgxPSIyNyIgeDI9IjEyMyIgeTE9IjI0OS40Njg4IiB5Mj0iMjQ5LjQ2ODgiLz48dGV4dCBmaWxsPSIjMDAwMDAwIiBmb250LWZhbWlseT0ic2Fucy1zZXJpZiIgZm9udC1zaXplPSIxMyIgbGVuZ3RoQWRqdXN0PSJzcGFjaW5nIiB0ZXh0TGVuZ3RoPSI3OCIgeD0iMzkiIHk9IjI0NS44NDM4Ij4mIzI2MTc0OyYjMzEwMzQ7JiMzNTc4MDsmIzIwOTk4OyYjMzI0Njc7JiMyNjUyNDs8L3RleHQ+PCEtLVNSQz1bSXFta29JeklVM3ZiblJFRXhMbTVZS0tiY1NjUDFPYnY5R2ZGcm9xMjJaclZsSHY1ekRjU3RnVFQycDU0ZnN2dXJobGt3UXg5TjVtR2FuSHF4SDA2QTVXZkY2X1EtUkh6enVsckJLeXhzaFdHNGExTFMwRTFnZnhzSnRwUHEwWEh6TUJ6emNTUmN4V0dxWTJyQzZrMFFmX2lkX2pxeEdvZVlHVzlEMURWeDlfb1RGT3lZRGhka29TX2NwUzdyS0hhRHFCS0dhbzRnYUxuQVRIZExXaEZQa254bGNHTmlhODBdLS0+PC9nPjwvc3ZnPg==;" parent="1" vertex="1">
            <mxGeometry x="879" y="1110" width="362" height="346" as="geometry" />
          </mxCell>
        </UserObject>
        <UserObject label="" plantUmlData="{&#xa;  &quot;data&quot;: &quot;@startuml\nstart\n:输入注册信息;\n:验证信息;\nif (信息合法?) then (yes)\n  :保存用户信息;\n  :返回注册成功;\nelse (no)\n  :返回错误信息;\nendif\nstop\n@enduml\n&quot;,&#xa;  &quot;format&quot;: &quot;svg&quot;&#xa;}" id="4L9ICEicornQjW7cZm7l-25">
          <mxCell style="shape=image;noLabel=1;verticalAlign=top;aspect=fixed;imageAspect=0;image=data:image/svg+xml,PD94bWwgdmVyc2lvbj0iMS4wIiBlbmNvZGluZz0idXMtYXNjaWkiIHN0YW5kYWxvbmU9Im5vIj8+PHN2ZyB4bWxucz0iaHR0cDovL3d3dy53My5vcmcvMjAwMC9zdmciIHhtbG5zOnhsaW5rPSJodHRwOi8vd3d3LnczLm9yZy8xOTk5L3hsaW5rIiBjb250ZW50U3R5bGVUeXBlPSJ0ZXh0L2NzcyIgaGVpZ2h0PSIzNThweCIgcHJlc2VydmVBc3BlY3RSYXRpbz0ibm9uZSIgc3R5bGU9IndpZHRoOjIyNnB4O2hlaWdodDozNThweDtiYWNrZ3JvdW5kOiNGRkZGRkY7IiB2ZXJzaW9uPSIxLjEiIHZpZXdCb3g9IjAgMCAyMjYgMzU4IiB3aWR0aD0iMjI2cHgiIHpvb21BbmRQYW49Im1hZ25pZnkiPjxkZWZzLz48Zz48ZWxsaXBzZSBjeD0iMTEzIiBjeT0iMjAiIGZpbGw9IiMyMjIyMjIiIHJ4PSIxMCIgcnk9IjEwIiBzdHlsZT0ic3Ryb2tlOiMyMjIyMjI7c3Ryb2tlLXdpZHRoOjEuMDsiLz48cmVjdCBmaWxsPSIjRjFGMUYxIiBoZWlnaHQ9IjMyLjg0MzgiIHJ4PSIxMi41IiByeT0iMTIuNSIgc3R5bGU9InN0cm9rZTojMTgxODE4O3N0cm9rZS13aWR0aDowLjU7IiB3aWR0aD0iOTIiIHg9IjY3IiB5PSI1MCIvPjx0ZXh0IGZpbGw9IiMwMDAwMDAiIGZvbnQtZmFtaWx5PSJzYW5zLXNlcmlmIiBmb250LXNpemU9IjEyIiBsZW5ndGhBZGp1c3Q9InNwYWNpbmciIHRleHRMZW5ndGg9IjcyIiB4PSI3NyIgeT0iNzEuMzQzOCI+JiMzNjc1NTsmIzIwODM3OyYjMjc4ODA7JiMyMDg3NjsmIzIwNDQ5OyYjMjQ2ODc7PC90ZXh0PjxyZWN0IGZpbGw9IiNGMUYxRjEiIGhlaWdodD0iMzIuODQzOCIgcng9IjEyLjUiIHJ5PSIxMi41IiBzdHlsZT0ic3Ryb2tlOiMxODE4MTg7c3Ryb2tlLXdpZHRoOjAuNTsiIHdpZHRoPSI2OCIgeD0iNzkiIHk9IjEwMi44NDM4Ii8+PHRleHQgZmlsbD0iIzAwMDAwMCIgZm9udC1mYW1pbHk9InNhbnMtc2VyaWYiIGZvbnQtc2l6ZT0iMTIiIGxlbmd0aEFkanVzdD0ic3BhY2luZyIgdGV4dExlbmd0aD0iNDgiIHg9Ijg5IiB5PSIxMjQuMTg3NSI+JiMzOTU2NDsmIzM1Nzc3OyYjMjA0NDk7JiMyNDY4Nzs8L3RleHQ+PHBvbHlnb24gZmlsbD0iI0YxRjFGMSIgcG9pbnRzPSI4OCwxNTUuNjg3NSwxMzgsMTU1LjY4NzUsMTUwLDE2Ny42ODc1LDEzOCwxNzkuNjg3NSw4OCwxNzkuNjg3NSw3NiwxNjcuNjg3NSw4OCwxNTUuNjg3NSIgc3R5bGU9InN0cm9rZTojMTgxODE4O3N0cm9rZS13aWR0aDowLjU7Ii8+PHRleHQgZmlsbD0iIzAwMDAwMCIgZm9udC1mYW1pbHk9InNhbnMtc2VyaWYiIGZvbnQtc2l6ZT0iMTEiIGxlbmd0aEFkanVzdD0ic3BhY2luZyIgdGV4dExlbmd0aD0iNTAiIHg9Ijg4IiB5PSIxNzIuMTk5MiI+JiMyMDQ0OTsmIzI0Njg3OyYjMjE1MTI7JiMyNzg2MTs/PC90ZXh0Pjx0ZXh0IGZpbGw9IiMwMDAwMDAiIGZvbnQtZmFtaWx5PSJzYW5zLXNlcmlmIiBmb250LXNpemU9IjExIiBsZW5ndGhBZGp1c3Q9InNwYWNpbmciIHRleHRMZW5ndGg9IjE4IiB4PSI1OCIgeT0iMTY2LjMxMjUiPnllczwvdGV4dD48dGV4dCBmaWxsPSIjMDAwMDAwIiBmb250LWZhbWlseT0ic2Fucy1zZXJpZiIgZm9udC1zaXplPSIxMSIgbGVuZ3RoQWRqdXN0PSJzcGFjaW5nIiB0ZXh0TGVuZ3RoPSIxMiIgeD0iMTUwIiB5PSIxNjYuMzEyNSI+bm88L3RleHQ+PHJlY3QgZmlsbD0iI0YxRjFGMSIgaGVpZ2h0PSIzMi44NDM4IiByeD0iMTIuNSIgcnk9IjEyLjUiIHN0eWxlPSJzdHJva2U6IzE4MTgxODtzdHJva2Utd2lkdGg6MC41OyIgd2lkdGg9IjkyIiB4PSIxMSIgeT0iMTg5LjY4NzUiLz48dGV4dCBmaWxsPSIjMDAwMDAwIiBmb250LWZhbWlseT0ic2Fucy1zZXJpZiIgZm9udC1zaXplPSIxMiIgbGVuZ3RoQWRqdXN0PSJzcGFjaW5nIiB0ZXh0TGVuZ3RoPSI3MiIgeD0iMjEiIHk9IjIxMS4wMzEzIj4mIzIwNDQ1OyYjMjMzODQ7JiMyOTk5MjsmIzI1MTQzOyYjMjA0NDk7JiMyNDY4Nzs8L3RleHQ+PHJlY3QgZmlsbD0iI0YxRjFGMSIgaGVpZ2h0PSIzMi44NDM4IiByeD0iMTIuNSIgcnk9IjEyLjUiIHN0eWxlPSJzdHJva2U6IzE4MTgxODtzdHJva2Utd2lkdGg6MC41OyIgd2lkdGg9IjkyIiB4PSIxMSIgeT0iMjQyLjUzMTMiLz48dGV4dCBmaWxsPSIjMDAwMDAwIiBmb250LWZhbWlseT0ic2Fucy1zZXJpZiIgZm9udC1zaXplPSIxMiIgbGVuZ3RoQWRqdXN0PSJzcGFjaW5nIiB0ZXh0TGVuZ3RoPSI3MiIgeD0iMjEiIHk9IjI2My44NzUiPiYjMzY4MjA7JiMyMjIzODsmIzI3ODgwOyYjMjA4NzY7JiMyNTEwNDsmIzIxMTUxOzwvdGV4dD48cmVjdCBmaWxsPSIjRjFGMUYxIiBoZWlnaHQ9IjMyLjg0MzgiIHJ4PSIxMi41IiByeT0iMTIuNSIgc3R5bGU9InN0cm9rZTojMTgxODE4O3N0cm9rZS13aWR0aDowLjU7IiB3aWR0aD0iOTIiIHg9IjEyMyIgeT0iMTg5LjY4NzUiLz48dGV4dCBmaWxsPSIjMDAwMDAwIiBmb250LWZhbWlseT0ic2Fucy1zZXJpZiIgZm9udC1zaXplPSIxMiIgbGVuZ3RoQWRqdXN0PSJzcGFjaW5nIiB0ZXh0TGVuZ3RoPSI3MiIgeD0iMTMzIiB5PSIyMTEuMDMxMyI+JiMzNjgyMDsmIzIyMjM4OyYjMzgxNjk7JiMzNTgyMzsmIzIwNDQ5OyYjMjQ2ODc7PC90ZXh0Pjxwb2x5Z29uIGZpbGw9IiNGMUYxRjEiIHBvaW50cz0iMTEzLDI4MS4zNzUsMTI1LDI5My4zNzUsMTEzLDMwNS4zNzUsMTAxLDI5My4zNzUsMTEzLDI4MS4zNzUiIHN0eWxlPSJzdHJva2U6IzE4MTgxODtzdHJva2Utd2lkdGg6MC41OyIvPjxlbGxpcHNlIGN4PSIxMTMiIGN5PSIzMzYuMzc1IiBmaWxsPSJub25lIiByeD0iMTEiIHJ5PSIxMSIgc3R5bGU9InN0cm9rZTojMjIyMjIyO3N0cm9rZS13aWR0aDoxLjA7Ii8+PGVsbGlwc2UgY3g9IjExMyIgY3k9IjMzNi4zNzUiIGZpbGw9IiMyMjIyMjIiIHJ4PSI2IiByeT0iNiIgc3R5bGU9InN0cm9rZTojMjIyMjIyO3N0cm9rZS13aWR0aDoxLjA7Ii8+PGxpbmUgc3R5bGU9InN0cm9rZTojMTgxODE4O3N0cm9rZS13aWR0aDoxLjA7IiB4MT0iMTEzIiB4Mj0iMTEzIiB5MT0iMzAiIHkyPSI1MCIvPjxwb2x5Z29uIGZpbGw9IiMxODE4MTgiIHBvaW50cz0iMTA5LDQwLDExMyw1MCwxMTcsNDAsMTEzLDQ0IiBzdHlsZT0ic3Ryb2tlOiMxODE4MTg7c3Ryb2tlLXdpZHRoOjEuMDsiLz48bGluZSBzdHlsZT0ic3Ryb2tlOiMxODE4MTg7c3Ryb2tlLXdpZHRoOjEuMDsiIHgxPSIxMTMiIHgyPSIxMTMiIHkxPSI4Mi44NDM4IiB5Mj0iMTAyLjg0MzgiLz48cG9seWdvbiBmaWxsPSIjMTgxODE4IiBwb2ludHM9IjEwOSw5Mi44NDM4LDExMywxMDIuODQzOCwxMTcsOTIuODQzOCwxMTMsOTYuODQzOCIgc3R5bGU9InN0cm9rZTojMTgxODE4O3N0cm9rZS13aWR0aDoxLjA7Ii8+PGxpbmUgc3R5bGU9InN0cm9rZTojMTgxODE4O3N0cm9rZS13aWR0aDoxLjA7IiB4MT0iNTciIHgyPSI1NyIgeTE9IjIyMi41MzEzIiB5Mj0iMjQyLjUzMTMiLz48cG9seWdvbiBmaWxsPSIjMTgxODE4IiBwb2ludHM9IjUzLDIzMi41MzEzLDU3LDI0Mi41MzEzLDYxLDIzMi41MzEzLDU3LDIzNi41MzEzIiBzdHlsZT0ic3Ryb2tlOiMxODE4MTg7c3Ryb2tlLXdpZHRoOjEuMDsiLz48bGluZSBzdHlsZT0ic3Ryb2tlOiMxODE4MTg7c3Ryb2tlLXdpZHRoOjEuMDsiIHgxPSI3NiIgeDI9IjU3IiB5MT0iMTY3LjY4NzUiIHkyPSIxNjcuNjg3NSIvPjxsaW5lIHN0eWxlPSJzdHJva2U6IzE4MTgxODtzdHJva2Utd2lkdGg6MS4wOyIgeDE9IjU3IiB4Mj0iNTciIHkxPSIxNjcuNjg3NSIgeTI9IjE4OS42ODc1Ii8+PHBvbHlnb24gZmlsbD0iIzE4MTgxOCIgcG9pbnRzPSI1MywxNzkuNjg3NSw1NywxODkuNjg3NSw2MSwxNzkuNjg3NSw1NywxODMuNjg3NSIgc3R5bGU9InN0cm9rZTojMTgxODE4O3N0cm9rZS13aWR0aDoxLjA7Ii8+PGxpbmUgc3R5bGU9InN0cm9rZTojMTgxODE4O3N0cm9rZS13aWR0aDoxLjA7IiB4MT0iMTUwIiB4Mj0iMTY5IiB5MT0iMTY3LjY4NzUiIHkyPSIxNjcuNjg3NSIvPjxsaW5lIHN0eWxlPSJzdHJva2U6IzE4MTgxODtzdHJva2Utd2lkdGg6MS4wOyIgeDE9IjE2OSIgeDI9IjE2OSIgeTE9IjE2Ny42ODc1IiB5Mj0iMTg5LjY4NzUiLz48cG9seWdvbiBmaWxsPSIjMTgxODE4IiBwb2ludHM9IjE2NSwxNzkuNjg3NSwxNjksMTg5LjY4NzUsMTczLDE3OS42ODc1LDE2OSwxODMuNjg3NSIgc3R5bGU9InN0cm9rZTojMTgxODE4O3N0cm9rZS13aWR0aDoxLjA7Ii8+PGxpbmUgc3R5bGU9InN0cm9rZTojMTgxODE4O3N0cm9rZS13aWR0aDoxLjA7IiB4MT0iNTciIHgyPSI1NyIgeTE9IjI3NS4zNzUiIHkyPSIyOTMuMzc1Ii8+PGxpbmUgc3R5bGU9InN0cm9rZTojMTgxODE4O3N0cm9rZS13aWR0aDoxLjA7IiB4MT0iNTciIHgyPSIxMDEiIHkxPSIyOTMuMzc1IiB5Mj0iMjkzLjM3NSIvPjxwb2x5Z29uIGZpbGw9IiMxODE4MTgiIHBvaW50cz0iOTEsMjg5LjM3NSwxMDEsMjkzLjM3NSw5MSwyOTcuMzc1LDk1LDI5My4zNzUiIHN0eWxlPSJzdHJva2U6IzE4MTgxODtzdHJva2Utd2lkdGg6MS4wOyIvPjxsaW5lIHN0eWxlPSJzdHJva2U6IzE4MTgxODtzdHJva2Utd2lkdGg6MS4wOyIgeDE9IjE2OSIgeDI9IjE2OSIgeTE9IjIyMi41MzEzIiB5Mj0iMjkzLjM3NSIvPjxsaW5lIHN0eWxlPSJzdHJva2U6IzE4MTgxODtzdHJva2Utd2lkdGg6MS4wOyIgeDE9IjE2OSIgeDI9IjEyNSIgeTE9IjI5My4zNzUiIHkyPSIyOTMuMzc1Ii8+PHBvbHlnb24gZmlsbD0iIzE4MTgxOCIgcG9pbnRzPSIxMzUsMjg5LjM3NSwxMjUsMjkzLjM3NSwxMzUsMjk3LjM3NSwxMzEsMjkzLjM3NSIgc3R5bGU9InN0cm9rZTojMTgxODE4O3N0cm9rZS13aWR0aDoxLjA7Ii8+PGxpbmUgc3R5bGU9InN0cm9rZTojMTgxODE4O3N0cm9rZS13aWR0aDoxLjA7IiB4MT0iMTEzIiB4Mj0iMTEzIiB5MT0iMTM1LjY4NzUiIHkyPSIxNTUuNjg3NSIvPjxwb2x5Z29uIGZpbGw9IiMxODE4MTgiIHBvaW50cz0iMTA5LDE0NS42ODc1LDExMywxNTUuNjg3NSwxMTcsMTQ1LjY4NzUsMTEzLDE0OS42ODc1IiBzdHlsZT0ic3Ryb2tlOiMxODE4MTg7c3Ryb2tlLXdpZHRoOjEuMDsiLz48bGluZSBzdHlsZT0ic3Ryb2tlOiMxODE4MTg7c3Ryb2tlLXdpZHRoOjEuMDsiIHgxPSIxMTMiIHgyPSIxMTMiIHkxPSIzMDUuMzc1IiB5Mj0iMzI1LjM3NSIvPjxwb2x5Z29uIGZpbGw9IiMxODE4MTgiIHBvaW50cz0iMTA5LDMxNS4zNzUsMTEzLDMyNS4zNzUsMTE3LDMxNS4zNzUsMTEzLDMxOS4zNzUiIHN0eWxlPSJzdHJva2U6IzE4MTgxODtzdHJva2Utd2lkdGg6MS4wOyIvPjwhLS1TUkM9W0FvdjlCMmhYaWRnblJfQkpyZ05GRGd6dXNqUnBQRl8yUHV0aGhSY2lOZ3hnVVI2LTRTUkRKNUZHV0IyVkprWHVqZGNnbFFQMklLUGdkZTk2UE1nbjlmVTJXak1KX05FVmhmdG5WQ2dBUG50Uk9QZzBtWV9zSnRhd1VueDR3NlNUNHZ2c3BSVmNJaXFmSmJOR29DbE5IMlh1RU1OY1lfTmhPVmZJeXI4b3F4WUFJXzhCMDAwMF0tLT48L2c+PC9zdmc+;" parent="1" vertex="1">
            <mxGeometry x="46.5" y="2070" width="226" height="358" as="geometry" />
          </mxCell>
        </UserObject>
        <UserObject label="" plantUmlData="{&#xa;  &quot;data&quot;: &quot;@startuml\nstart\n:选择新头像;\n:上传新头像;\n:更新用户头像信息;\n:返回修改成功;\nstop\n@enduml\n&quot;,&#xa;  &quot;format&quot;: &quot;svg&quot;&#xa;}" id="4L9ICEicornQjW7cZm7l-26">
          <mxCell style="shape=image;noLabel=1;verticalAlign=top;aspect=fixed;imageAspect=0;image=data:image/svg+xml,PD94bWwgdmVyc2lvbj0iMS4wIiBlbmNvZGluZz0idXMtYXNjaWkiIHN0YW5kYWxvbmU9Im5vIj8+PHN2ZyB4bWxucz0iaHR0cDovL3d3dy53My5vcmcvMjAwMC9zdmciIHhtbG5zOnhsaW5rPSJodHRwOi8vd3d3LnczLm9yZy8xOTk5L3hsaW5rIiBjb250ZW50U3R5bGVUeXBlPSJ0ZXh0L2NzcyIgaGVpZ2h0PSIyOTRweCIgcHJlc2VydmVBc3BlY3RSYXRpbz0ibm9uZSIgc3R5bGU9IndpZHRoOjEzOHB4O2hlaWdodDoyOTRweDtiYWNrZ3JvdW5kOiNGRkZGRkY7IiB2ZXJzaW9uPSIxLjEiIHZpZXdCb3g9IjAgMCAxMzggMjk0IiB3aWR0aD0iMTM4cHgiIHpvb21BbmRQYW49Im1hZ25pZnkiPjxkZWZzLz48Zz48ZWxsaXBzZSBjeD0iNjkiIGN5PSIyMCIgZmlsbD0iIzIyMjIyMiIgcng9IjEwIiByeT0iMTAiIHN0eWxlPSJzdHJva2U6IzIyMjIyMjtzdHJva2Utd2lkdGg6MS4wOyIvPjxyZWN0IGZpbGw9IiNGMUYxRjEiIGhlaWdodD0iMzIuODQzOCIgcng9IjEyLjUiIHJ5PSIxMi41IiBzdHlsZT0ic3Ryb2tlOiMxODE4MTg7c3Ryb2tlLXdpZHRoOjAuNTsiIHdpZHRoPSI4MCIgeD0iMjkiIHk9IjUwIi8+PHRleHQgZmlsbD0iIzAwMDAwMCIgZm9udC1mYW1pbHk9InNhbnMtc2VyaWYiIGZvbnQtc2l6ZT0iMTIiIGxlbmd0aEFkanVzdD0ic3BhY2luZyIgdGV4dExlbmd0aD0iNjAiIHg9IjM5IiB5PSI3MS4zNDM4Ij4mIzM2ODczOyYjMjUzMjE7JiMyNjAzMjsmIzIyODM2OyYjMjA2ODc7PC90ZXh0PjxyZWN0IGZpbGw9IiNGMUYxRjEiIGhlaWdodD0iMzIuODQzOCIgcng9IjEyLjUiIHJ5PSIxMi41IiBzdHlsZT0ic3Ryb2tlOiMxODE4MTg7c3Ryb2tlLXdpZHRoOjAuNTsiIHdpZHRoPSI4MCIgeD0iMjkiIHk9IjEwMi44NDM4Ii8+PHRleHQgZmlsbD0iIzAwMDAwMCIgZm9udC1mYW1pbHk9InNhbnMtc2VyaWYiIGZvbnQtc2l6ZT0iMTIiIGxlbmd0aEFkanVzdD0ic3BhY2luZyIgdGV4dExlbmd0aD0iNjAiIHg9IjM5IiB5PSIxMjQuMTg3NSI+JiMxOTk3ODsmIzIwMjU2OyYjMjYwMzI7JiMyMjgzNjsmIzIwNjg3OzwvdGV4dD48cmVjdCBmaWxsPSIjRjFGMUYxIiBoZWlnaHQ9IjMyLjg0MzgiIHJ4PSIxMi41IiByeT0iMTIuNSIgc3R5bGU9InN0cm9rZTojMTgxODE4O3N0cm9rZS13aWR0aDowLjU7IiB3aWR0aD0iMTE2IiB4PSIxMSIgeT0iMTU1LjY4NzUiLz48dGV4dCBmaWxsPSIjMDAwMDAwIiBmb250LWZhbWlseT0ic2Fucy1zZXJpZiIgZm9udC1zaXplPSIxMiIgbGVuZ3RoQWRqdXN0PSJzcGFjaW5nIiB0ZXh0TGVuZ3RoPSI5NiIgeD0iMjEiIHk9IjE3Ny4wMzEzIj4mIzI2MzU2OyYjMjYwMzI7JiMyOTk5MjsmIzI1MTQzOyYjMjI4MzY7JiMyMDY4NzsmIzIwNDQ5OyYjMjQ2ODc7PC90ZXh0PjxyZWN0IGZpbGw9IiNGMUYxRjEiIGhlaWdodD0iMzIuODQzOCIgcng9IjEyLjUiIHJ5PSIxMi41IiBzdHlsZT0ic3Ryb2tlOiMxODE4MTg7c3Ryb2tlLXdpZHRoOjAuNTsiIHdpZHRoPSI5MiIgeD0iMjMiIHk9IjIwOC41MzEzIi8+PHRleHQgZmlsbD0iIzAwMDAwMCIgZm9udC1mYW1pbHk9InNhbnMtc2VyaWYiIGZvbnQtc2l6ZT0iMTIiIGxlbmd0aEFkanVzdD0ic3BhY2luZyIgdGV4dExlbmd0aD0iNzIiIHg9IjMzIiB5PSIyMjkuODc1Ij4mIzM2ODIwOyYjMjIyMzg7JiMyMDQ2MjsmIzI1OTEzOyYjMjUxMDQ7JiMyMTE1MTs8L3RleHQ+PGVsbGlwc2UgY3g9IjY5IiBjeT0iMjcyLjM3NSIgZmlsbD0ibm9uZSIgcng9IjExIiByeT0iMTEiIHN0eWxlPSJzdHJva2U6IzIyMjIyMjtzdHJva2Utd2lkdGg6MS4wOyIvPjxlbGxpcHNlIGN4PSI2OSIgY3k9IjI3Mi4zNzUiIGZpbGw9IiMyMjIyMjIiIHJ4PSI2IiByeT0iNiIgc3R5bGU9InN0cm9rZTojMjIyMjIyO3N0cm9rZS13aWR0aDoxLjA7Ii8+PGxpbmUgc3R5bGU9InN0cm9rZTojMTgxODE4O3N0cm9rZS13aWR0aDoxLjA7IiB4MT0iNjkiIHgyPSI2OSIgeTE9IjMwIiB5Mj0iNTAiLz48cG9seWdvbiBmaWxsPSIjMTgxODE4IiBwb2ludHM9IjY1LDQwLDY5LDUwLDczLDQwLDY5LDQ0IiBzdHlsZT0ic3Ryb2tlOiMxODE4MTg7c3Ryb2tlLXdpZHRoOjEuMDsiLz48bGluZSBzdHlsZT0ic3Ryb2tlOiMxODE4MTg7c3Ryb2tlLXdpZHRoOjEuMDsiIHgxPSI2OSIgeDI9IjY5IiB5MT0iODIuODQzOCIgeTI9IjEwMi44NDM4Ii8+PHBvbHlnb24gZmlsbD0iIzE4MTgxOCIgcG9pbnRzPSI2NSw5Mi44NDM4LDY5LDEwMi44NDM4LDczLDkyLjg0MzgsNjksOTYuODQzOCIgc3R5bGU9InN0cm9rZTojMTgxODE4O3N0cm9rZS13aWR0aDoxLjA7Ii8+PGxpbmUgc3R5bGU9InN0cm9rZTojMTgxODE4O3N0cm9rZS13aWR0aDoxLjA7IiB4MT0iNjkiIHgyPSI2OSIgeTE9IjEzNS42ODc1IiB5Mj0iMTU1LjY4NzUiLz48cG9seWdvbiBmaWxsPSIjMTgxODE4IiBwb2ludHM9IjY1LDE0NS42ODc1LDY5LDE1NS42ODc1LDczLDE0NS42ODc1LDY5LDE0OS42ODc1IiBzdHlsZT0ic3Ryb2tlOiMxODE4MTg7c3Ryb2tlLXdpZHRoOjEuMDsiLz48bGluZSBzdHlsZT0ic3Ryb2tlOiMxODE4MTg7c3Ryb2tlLXdpZHRoOjEuMDsiIHgxPSI2OSIgeDI9IjY5IiB5MT0iMTg4LjUzMTMiIHkyPSIyMDguNTMxMyIvPjxwb2x5Z29uIGZpbGw9IiMxODE4MTgiIHBvaW50cz0iNjUsMTk4LjUzMTMsNjksMjA4LjUzMTMsNzMsMTk4LjUzMTMsNjksMjAyLjUzMTMiIHN0eWxlPSJzdHJva2U6IzE4MTgxODtzdHJva2Utd2lkdGg6MS4wOyIvPjxsaW5lIHN0eWxlPSJzdHJva2U6IzE4MTgxODtzdHJva2Utd2lkdGg6MS4wOyIgeDE9IjY5IiB4Mj0iNjkiIHkxPSIyNDEuMzc1IiB5Mj0iMjYxLjM3NSIvPjxwb2x5Z29uIGZpbGw9IiMxODE4MTgiIHBvaW50cz0iNjUsMjUxLjM3NSw2OSwyNjEuMzc1LDczLDI1MS4zNzUsNjksMjU1LjM3NSIgc3R5bGU9InN0cm9rZTojMTgxODE4O3N0cm9rZS13aWR0aDoxLjA7Ii8+PCEtLVNSQz1bQW92OUIyaFhpZGhQcUZjaVUtTXBRSGtVQmpkb2pCZFZjaWxnb093azl0aU04OGl5Y3hxNW83cS1QU01wWmtxR21JVng1cHZoTjAtS1VoNV9vakZQeXZ4aU5fVGlvaXZkN0hFVVRpc3R2WWVrb0l5MDAwMDBdLS0+PC9nPjwvc3ZnPg==;" parent="1" vertex="1">
            <mxGeometry x="344" y="2070" width="138" height="294" as="geometry" />
          </mxCell>
        </UserObject>
        <UserObject label="" plantUmlData="{&#xa;  &quot;data&quot;: &quot;@startuml\nstart\n:输入歌手信息;\n:保存歌手信息;\n:返回添加成功;\nstop\n@enduml\n&quot;,&#xa;  &quot;format&quot;: &quot;svg&quot;&#xa;}" id="4L9ICEicornQjW7cZm7l-27">
          <mxCell style="shape=image;noLabel=1;verticalAlign=top;aspect=fixed;imageAspect=0;image=data:image/svg+xml,PD94bWwgdmVyc2lvbj0iMS4wIiBlbmNvZGluZz0idXMtYXNjaWkiIHN0YW5kYWxvbmU9Im5vIj8+PHN2ZyB4bWxucz0iaHR0cDovL3d3dy53My5vcmcvMjAwMC9zdmciIHhtbG5zOnhsaW5rPSJodHRwOi8vd3d3LnczLm9yZy8xOTk5L3hsaW5rIiBjb250ZW50U3R5bGVUeXBlPSJ0ZXh0L2NzcyIgaGVpZ2h0PSIyNDFweCIgcHJlc2VydmVBc3BlY3RSYXRpbz0ibm9uZSIgc3R5bGU9IndpZHRoOjExNHB4O2hlaWdodDoyNDFweDtiYWNrZ3JvdW5kOiNGRkZGRkY7IiB2ZXJzaW9uPSIxLjEiIHZpZXdCb3g9IjAgMCAxMTQgMjQxIiB3aWR0aD0iMTE0cHgiIHpvb21BbmRQYW49Im1hZ25pZnkiPjxkZWZzLz48Zz48ZWxsaXBzZSBjeD0iNTciIGN5PSIyMCIgZmlsbD0iIzIyMjIyMiIgcng9IjEwIiByeT0iMTAiIHN0eWxlPSJzdHJva2U6IzIyMjIyMjtzdHJva2Utd2lkdGg6MS4wOyIvPjxyZWN0IGZpbGw9IiNGMUYxRjEiIGhlaWdodD0iMzIuODQzOCIgcng9IjEyLjUiIHJ5PSIxMi41IiBzdHlsZT0ic3Ryb2tlOiMxODE4MTg7c3Ryb2tlLXdpZHRoOjAuNTsiIHdpZHRoPSI5MiIgeD0iMTEiIHk9IjUwIi8+PHRleHQgZmlsbD0iIzAwMDAwMCIgZm9udC1mYW1pbHk9InNhbnMtc2VyaWYiIGZvbnQtc2l6ZT0iMTIiIGxlbmd0aEFkanVzdD0ic3BhY2luZyIgdGV4dExlbmd0aD0iNzIiIHg9IjIxIiB5PSI3MS4zNDM4Ij4mIzM2NzU1OyYjMjA4Mzc7JiMyNzQ2ODsmIzI1MTYzOyYjMjA0NDk7JiMyNDY4Nzs8L3RleHQ+PHJlY3QgZmlsbD0iI0YxRjFGMSIgaGVpZ2h0PSIzMi44NDM4IiByeD0iMTIuNSIgcnk9IjEyLjUiIHN0eWxlPSJzdHJva2U6IzE4MTgxODtzdHJva2Utd2lkdGg6MC41OyIgd2lkdGg9IjkyIiB4PSIxMSIgeT0iMTAyLjg0MzgiLz48dGV4dCBmaWxsPSIjMDAwMDAwIiBmb250LWZhbWlseT0ic2Fucy1zZXJpZiIgZm9udC1zaXplPSIxMiIgbGVuZ3RoQWRqdXN0PSJzcGFjaW5nIiB0ZXh0TGVuZ3RoPSI3MiIgeD0iMjEiIHk9IjEyNC4xODc1Ij4mIzIwNDQ1OyYjMjMzODQ7JiMyNzQ2ODsmIzI1MTYzOyYjMjA0NDk7JiMyNDY4Nzs8L3RleHQ+PHJlY3QgZmlsbD0iI0YxRjFGMSIgaGVpZ2h0PSIzMi44NDM4IiByeD0iMTIuNSIgcnk9IjEyLjUiIHN0eWxlPSJzdHJva2U6IzE4MTgxODtzdHJva2Utd2lkdGg6MC41OyIgd2lkdGg9IjkyIiB4PSIxMSIgeT0iMTU1LjY4NzUiLz48dGV4dCBmaWxsPSIjMDAwMDAwIiBmb250LWZhbWlseT0ic2Fucy1zZXJpZiIgZm9udC1zaXplPSIxMiIgbGVuZ3RoQWRqdXN0PSJzcGFjaW5nIiB0ZXh0TGVuZ3RoPSI3MiIgeD0iMjEiIHk9IjE3Ny4wMzEzIj4mIzM2ODIwOyYjMjIyMzg7JiMyODE1NTsmIzIxMTUyOyYjMjUxMDQ7JiMyMTE1MTs8L3RleHQ+PGVsbGlwc2UgY3g9IjU3IiBjeT0iMjE5LjUzMTMiIGZpbGw9Im5vbmUiIHJ4PSIxMSIgcnk9IjExIiBzdHlsZT0ic3Ryb2tlOiMyMjIyMjI7c3Ryb2tlLXdpZHRoOjEuMDsiLz48ZWxsaXBzZSBjeD0iNTciIGN5PSIyMTkuNTMxMyIgZmlsbD0iIzIyMjIyMiIgcng9IjYiIHJ5PSI2IiBzdHlsZT0ic3Ryb2tlOiMyMjIyMjI7c3Ryb2tlLXdpZHRoOjEuMDsiLz48bGluZSBzdHlsZT0ic3Ryb2tlOiMxODE4MTg7c3Ryb2tlLXdpZHRoOjEuMDsiIHgxPSI1NyIgeDI9IjU3IiB5MT0iMzAiIHkyPSI1MCIvPjxwb2x5Z29uIGZpbGw9IiMxODE4MTgiIHBvaW50cz0iNTMsNDAsNTcsNTAsNjEsNDAsNTcsNDQiIHN0eWxlPSJzdHJva2U6IzE4MTgxODtzdHJva2Utd2lkdGg6MS4wOyIvPjxsaW5lIHN0eWxlPSJzdHJva2U6IzE4MTgxODtzdHJva2Utd2lkdGg6MS4wOyIgeDE9IjU3IiB4Mj0iNTciIHkxPSI4Mi44NDM4IiB5Mj0iMTAyLjg0MzgiLz48cG9seWdvbiBmaWxsPSIjMTgxODE4IiBwb2ludHM9IjUzLDkyLjg0MzgsNTcsMTAyLjg0MzgsNjEsOTIuODQzOCw1Nyw5Ni44NDM4IiBzdHlsZT0ic3Ryb2tlOiMxODE4MTg7c3Ryb2tlLXdpZHRoOjEuMDsiLz48bGluZSBzdHlsZT0ic3Ryb2tlOiMxODE4MTg7c3Ryb2tlLXdpZHRoOjEuMDsiIHgxPSI1NyIgeDI9IjU3IiB5MT0iMTM1LjY4NzUiIHkyPSIxNTUuNjg3NSIvPjxwb2x5Z29uIGZpbGw9IiMxODE4MTgiIHBvaW50cz0iNTMsMTQ1LjY4NzUsNTcsMTU1LjY4NzUsNjEsMTQ1LjY4NzUsNTcsMTQ5LjY4NzUiIHN0eWxlPSJzdHJva2U6IzE4MTgxODtzdHJva2Utd2lkdGg6MS4wOyIvPjxsaW5lIHN0eWxlPSJzdHJva2U6IzE4MTgxODtzdHJva2Utd2lkdGg6MS4wOyIgeDE9IjU3IiB4Mj0iNTciIHkxPSIxODguNTMxMyIgeTI9IjIwOC41MzEzIi8+PHBvbHlnb24gZmlsbD0iIzE4MTgxOCIgcG9pbnRzPSI1MywxOTguNTMxMyw1NywyMDguNTMxMyw2MSwxOTguNTMxMyw1NywyMDIuNTMxMyIgc3R5bGU9InN0cm9rZTojMTgxODE4O3N0cm9rZS13aWR0aDoxLjA7Ii8+PCEtLVNSQz1bQW92OUIyaFhpZGduUl9CSnJnTkZybE95dy1uLWlkX1hpeVJycmJuTUpfUkZWUmZzMWZoV1lfckpkaXdVenNweHhnVFQydnZySjdaUURULVFneFdhbG0wMF0tLT48L2c+PC9zdmc+;" parent="1" vertex="1">
            <mxGeometry x="810" y="2123" width="114" height="241" as="geometry" />
          </mxCell>
        </UserObject>
        <UserObject label="" plantUmlData="{&quot;data&quot;:&quot;@startuml\npackage \&quot;客户端\&quot; {\n    [music-website.jar]\n}\n\npackage \&quot;管理端\&quot; {\n    [music-manage.jar]\n}\n\npackage \&quot;服务端\&quot; {\n    [music-server.jar]\n}\n\npackage \&quot;数据库\&quot; {\n    [MySQL]\n    [Redis]\n    [MinIO]\n}\n\n[music-website.jar] --&gt; [music-server.jar] : 通过HTTP API交互\n[music-manage.jar] --&gt; [music-server.jar] : 通过HTTP API交互\n[music-server.jar] --&gt; [MySQL] : 访问数据库\n[music-server.jar] --&gt; [Redis] : 使用缓存\n[music-server.jar] --&gt; [MinIO] : 存储和访问文件\n@enduml\n&quot;,&quot;format&quot;:&quot;svg&quot;}" id="4L9ICEicornQjW7cZm7l-28">
          <mxCell style="shape=image;noLabel=1;verticalAlign=top;aspect=fixed;imageAspect=0;image=data:image/svg+xml,PD94bWwgdmVyc2lvbj0iMS4wIiBlbmNvZGluZz0idXMtYXNjaWkiIHN0YW5kYWxvbmU9Im5vIj8+PHN2ZyB4bWxucz0iaHR0cDovL3d3dy53My5vcmcvMjAwMC9zdmciIHhtbG5zOnhsaW5rPSJodHRwOi8vd3d3LnczLm9yZy8xOTk5L3hsaW5rIiBjb250ZW50U3R5bGVUeXBlPSJ0ZXh0L2NzcyIgaGVpZ2h0PSIzODlweCIgcHJlc2VydmVBc3BlY3RSYXRpbz0ibm9uZSIgc3R5bGU9IndpZHRoOjQzNHB4O2hlaWdodDozODlweDtiYWNrZ3JvdW5kOiNGRkZGRkY7IiB2ZXJzaW9uPSIxLjEiIHZpZXdCb3g9IjAgMCA0MzQgMzg5IiB3aWR0aD0iNDM0cHgiIHpvb21BbmRQYW49Im1hZ25pZnkiPjxkZWZzLz48Zz48IS0tY2x1c3RlciA/Pz8tLT48ZyBpZD0iY2x1c3Rlcl8mIzIzNDU4OyYjMjUxNDM7JiMzMTQ3MTsiPjxwYXRoIGQ9Ik0yNS41LDYgTDY4LjUsNiBBMy43NSwzLjc1IDAgMCAxIDcxLDguNSBMNzgsMjYuOTg0NCBMMjE0LjUsMjYuOTg0NCBBMi41LDIuNSAwIDAgMSAyMTcsMjkuNDg0NCBMMjE3LDk3LjUgQTIuNSwyLjUgMCAwIDEgMjE0LjUsMTAwIEwyNS41LDEwMCBBMi41LDIuNSAwIDAgMSAyMyw5Ny41IEwyMyw4LjUgQTIuNSwyLjUgMCAwIDEgMjUuNSw2ICIgZmlsbD0ibm9uZSIgc3R5bGU9InN0cm9rZTojMDAwMDAwO3N0cm9rZS13aWR0aDoxLjU7Ii8+PGxpbmUgc3R5bGU9InN0cm9rZTojMDAwMDAwO3N0cm9rZS13aWR0aDoxLjU7IiB4MT0iMjMiIHgyPSI3OCIgeTE9IjI2Ljk4NDQiIHkyPSIyNi45ODQ0Ii8+PHRleHQgZmlsbD0iIzAwMDAwMCIgZm9udC1mYW1pbHk9InNhbnMtc2VyaWYiIGZvbnQtc2l6ZT0iMTQiIGZvbnQtd2VpZ2h0PSJib2xkIiBsZW5ndGhBZGp1c3Q9InNwYWNpbmciIHRleHRMZW5ndGg9IjQyIiB4PSIyNyIgeT0iMjEuMjM0NCI+JiMyMzQ1ODsmIzI1MTQzOyYjMzE0NzE7PC90ZXh0PjwvZz48IS0tY2x1c3RlciA/Pz8tLT48ZyBpZD0iY2x1c3Rlcl8mIzMxNjQ5OyYjMjk3MDI7JiMzMTQ3MTsiPjxwYXRoIGQ9Ik0yNDMuNSw2IEwyODYuNSw2IEEzLjc1LDMuNzUgMCAwIDEgMjg5LDguNSBMMjk2LDI2Ljk4NDQgTDQyNC41LDI2Ljk4NDQgQTIuNSwyLjUgMCAwIDEgNDI3LDI5LjQ4NDQgTDQyNyw5Ny41IEEyLjUsMi41IDAgMCAxIDQyNC41LDEwMCBMMjQzLjUsMTAwIEEyLjUsMi41IDAgMCAxIDI0MSw5Ny41IEwyNDEsOC41IEEyLjUsMi41IDAgMCAxIDI0My41LDYgIiBmaWxsPSJub25lIiBzdHlsZT0ic3Ryb2tlOiMwMDAwMDA7c3Ryb2tlLXdpZHRoOjEuNTsiLz48bGluZSBzdHlsZT0ic3Ryb2tlOiMwMDAwMDA7c3Ryb2tlLXdpZHRoOjEuNTsiIHgxPSIyNDEiIHgyPSIyOTYiIHkxPSIyNi45ODQ0IiB5Mj0iMjYuOTg0NCIvPjx0ZXh0IGZpbGw9IiMwMDAwMDAiIGZvbnQtZmFtaWx5PSJzYW5zLXNlcmlmIiBmb250LXNpemU9IjE0IiBmb250LXdlaWdodD0iYm9sZCIgbGVuZ3RoQWRqdXN0PSJzcGFjaW5nIiB0ZXh0TGVuZ3RoPSI0MiIgeD0iMjQ1IiB5PSIyMS4yMzQ0Ij4mIzMxNjQ5OyYjMjk3MDI7JiMzMTQ3MTs8L3RleHQ+PC9nPjwhLS1jbHVzdGVyID8/Py0tPjxnIGlkPSJjbHVzdGVyXyYjMjYzODE7JiMyMTE1MzsmIzMxNDcxOyI+PHBhdGggZD0iTTc4LjUsMTQ3IEwxMjEuNSwxNDcgQTMuNzUsMy43NSAwIDAgMSAxMjQsMTQ5LjUgTDEzMSwxNjcuOTg0NCBMMjU5LjUsMTY3Ljk4NDQgQTIuNSwyLjUgMCAwIDEgMjYyLDE3MC40ODQ0IEwyNjIsMjM4LjUgQTIuNSwyLjUgMCAwIDEgMjU5LjUsMjQxIEw3OC41LDI0MSBBMi41LDIuNSAwIDAgMSA3NiwyMzguNSBMNzYsMTQ5LjUgQTIuNSwyLjUgMCAwIDEgNzguNSwxNDcgIiBmaWxsPSJub25lIiBzdHlsZT0ic3Ryb2tlOiMwMDAwMDA7c3Ryb2tlLXdpZHRoOjEuNTsiLz48bGluZSBzdHlsZT0ic3Ryb2tlOiMwMDAwMDA7c3Ryb2tlLXdpZHRoOjEuNTsiIHgxPSI3NiIgeDI9IjEzMSIgeTE9IjE2Ny45ODQ0IiB5Mj0iMTY3Ljk4NDQiLz48dGV4dCBmaWxsPSIjMDAwMDAwIiBmb250LWZhbWlseT0ic2Fucy1zZXJpZiIgZm9udC1zaXplPSIxNCIgZm9udC13ZWlnaHQ9ImJvbGQiIGxlbmd0aEFkanVzdD0ic3BhY2luZyIgdGV4dExlbmd0aD0iNDIiIHg9IjgwIiB5PSIxNjIuMjM0NCI+JiMyNjM4MTsmIzIxMTUzOyYjMzE0NzE7PC90ZXh0PjwvZz48IS0tY2x1c3RlciA/Pz8tLT48ZyBpZD0iY2x1c3Rlcl8mIzI1OTY4OyYjMjU0NTQ7JiMyNDIxMTsiPjxwYXRoIGQ9Ik04LjUsMjg4IEw1MS41LDI4OCBBMy43NSwzLjc1IDAgMCAxIDU0LDI5MC41IEw2MSwzMDguOTg0NCBMMzI5LjUsMzA4Ljk4NDQgQTIuNSwyLjUgMCAwIDEgMzMyLDMxMS40ODQ0IEwzMzIsMzc5LjUgQTIuNSwyLjUgMCAwIDEgMzI5LjUsMzgyIEw4LjUsMzgyIEEyLjUsMi41IDAgMCAxIDYsMzc5LjUgTDYsMjkwLjUgQTIuNSwyLjUgMCAwIDEgOC41LDI4OCAiIGZpbGw9Im5vbmUiIHN0eWxlPSJzdHJva2U6IzAwMDAwMDtzdHJva2Utd2lkdGg6MS41OyIvPjxsaW5lIHN0eWxlPSJzdHJva2U6IzAwMDAwMDtzdHJva2Utd2lkdGg6MS41OyIgeDE9IjYiIHgyPSI2MSIgeTE9IjMwOC45ODQ0IiB5Mj0iMzA4Ljk4NDQiLz48dGV4dCBmaWxsPSIjMDAwMDAwIiBmb250LWZhbWlseT0ic2Fucy1zZXJpZiIgZm9udC1zaXplPSIxNCIgZm9udC13ZWlnaHQ9ImJvbGQiIGxlbmd0aEFkanVzdD0ic3BhY2luZyIgdGV4dExlbmd0aD0iNDIiIHg9IjEwIiB5PSIzMDMuMjM0NCI+JiMyNTk2ODsmIzI1NDU0OyYjMjQyMTE7PC90ZXh0PjwvZz48IS0tZW50aXR5IG11c2ljLXdlYnNpdGUuamFyLS0+PGcgaWQ9ImVsZW1fbXVzaWMtd2Vic2l0ZS5qYXIiPjxyZWN0IGZpbGw9IiNGMUYxRjEiIGhlaWdodD0iNDQuOTg0NCIgcng9IjIuNSIgcnk9IjIuNSIgc3R5bGU9InN0cm9rZTojMTgxODE4O3N0cm9rZS13aWR0aDowLjU7IiB3aWR0aD0iMTYxIiB4PSIzOS41IiB5PSIzOSIvPjxyZWN0IGZpbGw9IiNGMUYxRjEiIGhlaWdodD0iMTAiIHN0eWxlPSJzdHJva2U6IzE4MTgxODtzdHJva2Utd2lkdGg6MC41OyIgd2lkdGg9IjE1IiB4PSIxODAuNSIgeT0iNDQiLz48cmVjdCBmaWxsPSIjRjFGMUYxIiBoZWlnaHQ9IjIiIHN0eWxlPSJzdHJva2U6IzE4MTgxODtzdHJva2Utd2lkdGg6MC41OyIgd2lkdGg9IjQiIHg9IjE3OC41IiB5PSI0NiIvPjxyZWN0IGZpbGw9IiNGMUYxRjEiIGhlaWdodD0iMiIgc3R5bGU9InN0cm9rZTojMTgxODE4O3N0cm9rZS13aWR0aDowLjU7IiB3aWR0aD0iNCIgeD0iMTc4LjUiIHk9IjUwIi8+PHRleHQgZmlsbD0iIzAwMDAwMCIgZm9udC1mYW1pbHk9InNhbnMtc2VyaWYiIGZvbnQtc2l6ZT0iMTQiIGxlbmd0aEFkanVzdD0ic3BhY2luZyIgdGV4dExlbmd0aD0iMTIxIiB4PSI1NC41IiB5PSI3Mi4yMzQ0Ij5tdXNpYy13ZWJzaXRlLmphcjwvdGV4dD48L2c+PCEtLWVudGl0eSBtdXNpYy1tYW5hZ2UuamFyLS0+PGcgaWQ9ImVsZW1fbXVzaWMtbWFuYWdlLmphciI+PHJlY3QgZmlsbD0iI0YxRjFGMSIgaGVpZ2h0PSI0NC45ODQ0IiByeD0iMi41IiByeT0iMi41IiBzdHlsZT0ic3Ryb2tlOiMxODE4MTg7c3Ryb2tlLXdpZHRoOjAuNTsiIHdpZHRoPSIxNTQiIHg9IjI1NyIgeT0iMzkiLz48cmVjdCBmaWxsPSIjRjFGMUYxIiBoZWlnaHQ9IjEwIiBzdHlsZT0ic3Ryb2tlOiMxODE4MTg7c3Ryb2tlLXdpZHRoOjAuNTsiIHdpZHRoPSIxNSIgeD0iMzkxIiB5PSI0NCIvPjxyZWN0IGZpbGw9IiNGMUYxRjEiIGhlaWdodD0iMiIgc3R5bGU9InN0cm9rZTojMTgxODE4O3N0cm9rZS13aWR0aDowLjU7IiB3aWR0aD0iNCIgeD0iMzg5IiB5PSI0NiIvPjxyZWN0IGZpbGw9IiNGMUYxRjEiIGhlaWdodD0iMiIgc3R5bGU9InN0cm9rZTojMTgxODE4O3N0cm9rZS13aWR0aDowLjU7IiB3aWR0aD0iNCIgeD0iMzg5IiB5PSI1MCIvPjx0ZXh0IGZpbGw9IiMwMDAwMDAiIGZvbnQtZmFtaWx5PSJzYW5zLXNlcmlmIiBmb250LXNpemU9IjE0IiBsZW5ndGhBZGp1c3Q9InNwYWNpbmciIHRleHRMZW5ndGg9IjExNCIgeD0iMjcyIiB5PSI3Mi4yMzQ0Ij5tdXNpYy1tYW5hZ2UuamFyPC90ZXh0PjwvZz48IS0tZW50aXR5IG11c2ljLXNlcnZlci5qYXItLT48ZyBpZD0iZWxlbV9tdXNpYy1zZXJ2ZXIuamFyIj48cmVjdCBmaWxsPSIjRjFGMUYxIiBoZWlnaHQ9IjQ0Ljk4NDQiIHJ4PSIyLjUiIHJ5PSIyLjUiIHN0eWxlPSJzdHJva2U6IzE4MTgxODtzdHJva2Utd2lkdGg6MC41OyIgd2lkdGg9IjE1MyIgeD0iOTIuNSIgeT0iMTgwIi8+PHJlY3QgZmlsbD0iI0YxRjFGMSIgaGVpZ2h0PSIxMCIgc3R5bGU9InN0cm9rZTojMTgxODE4O3N0cm9rZS13aWR0aDowLjU7IiB3aWR0aD0iMTUiIHg9IjIyNS41IiB5PSIxODUiLz48cmVjdCBmaWxsPSIjRjFGMUYxIiBoZWlnaHQ9IjIiIHN0eWxlPSJzdHJva2U6IzE4MTgxODtzdHJva2Utd2lkdGg6MC41OyIgd2lkdGg9IjQiIHg9IjIyMy41IiB5PSIxODciLz48cmVjdCBmaWxsPSIjRjFGMUYxIiBoZWlnaHQ9IjIiIHN0eWxlPSJzdHJva2U6IzE4MTgxODtzdHJva2Utd2lkdGg6MC41OyIgd2lkdGg9IjQiIHg9IjIyMy41IiB5PSIxOTEiLz48dGV4dCBmaWxsPSIjMDAwMDAwIiBmb250LWZhbWlseT0ic2Fucy1zZXJpZiIgZm9udC1zaXplPSIxNCIgbGVuZ3RoQWRqdXN0PSJzcGFjaW5nIiB0ZXh0TGVuZ3RoPSIxMTMiIHg9IjEwNy41IiB5PSIyMTMuMjM0NCI+bXVzaWMtc2VydmVyLmphcjwvdGV4dD48L2c+PCEtLWVudGl0eSBNeVNRTC0tPjxnIGlkPSJlbGVtX015U1FMIj48cmVjdCBmaWxsPSIjRjFGMUYxIiBoZWlnaHQ9IjQ0Ljk4NDQiIHJ4PSIyLjUiIHJ5PSIyLjUiIHN0eWxlPSJzdHJva2U6IzE4MTgxODtzdHJva2Utd2lkdGg6MC41OyIgd2lkdGg9Ijc1IiB4PSIyMS41IiB5PSIzMjEiLz48cmVjdCBmaWxsPSIjRjFGMUYxIiBoZWlnaHQ9IjEwIiBzdHlsZT0ic3Ryb2tlOiMxODE4MTg7c3Ryb2tlLXdpZHRoOjAuNTsiIHdpZHRoPSIxNSIgeD0iNzYuNSIgeT0iMzI2Ii8+PHJlY3QgZmlsbD0iI0YxRjFGMSIgaGVpZ2h0PSIyIiBzdHlsZT0ic3Ryb2tlOiMxODE4MTg7c3Ryb2tlLXdpZHRoOjAuNTsiIHdpZHRoPSI0IiB4PSI3NC41IiB5PSIzMjgiLz48cmVjdCBmaWxsPSIjRjFGMUYxIiBoZWlnaHQ9IjIiIHN0eWxlPSJzdHJva2U6IzE4MTgxODtzdHJva2Utd2lkdGg6MC41OyIgd2lkdGg9IjQiIHg9Ijc0LjUiIHk9IjMzMiIvPjx0ZXh0IGZpbGw9IiMwMDAwMDAiIGZvbnQtZmFtaWx5PSJzYW5zLXNlcmlmIiBmb250LXNpemU9IjE0IiBsZW5ndGhBZGp1c3Q9InNwYWNpbmciIHRleHRMZW5ndGg9IjM1IiB4PSIzNi41IiB5PSIzNTQuMjM0NCI+TXlTUUw8L3RleHQ+PC9nPjwhLS1lbnRpdHkgUmVkaXMtLT48ZyBpZD0iZWxlbV9SZWRpcyI+PHJlY3QgZmlsbD0iI0YxRjFGMSIgaGVpZ2h0PSI0NC45ODQ0IiByeD0iMi41IiByeT0iMi41IiBzdHlsZT0ic3Ryb2tlOiMxODE4MTg7c3Ryb2tlLXdpZHRoOjAuNTsiIHdpZHRoPSI3NSIgeD0iMTMxLjUiIHk9IjMyMSIvPjxyZWN0IGZpbGw9IiNGMUYxRjEiIGhlaWdodD0iMTAiIHN0eWxlPSJzdHJva2U6IzE4MTgxODtzdHJva2Utd2lkdGg6MC41OyIgd2lkdGg9IjE1IiB4PSIxODYuNSIgeT0iMzI2Ii8+PHJlY3QgZmlsbD0iI0YxRjFGMSIgaGVpZ2h0PSIyIiBzdHlsZT0ic3Ryb2tlOiMxODE4MTg7c3Ryb2tlLXdpZHRoOjAuNTsiIHdpZHRoPSI0IiB4PSIxODQuNSIgeT0iMzI4Ii8+PHJlY3QgZmlsbD0iI0YxRjFGMSIgaGVpZ2h0PSIyIiBzdHlsZT0ic3Ryb2tlOiMxODE4MTg7c3Ryb2tlLXdpZHRoOjAuNTsiIHdpZHRoPSI0IiB4PSIxODQuNSIgeT0iMzMyIi8+PHRleHQgZmlsbD0iIzAwMDAwMCIgZm9udC1mYW1pbHk9InNhbnMtc2VyaWYiIGZvbnQtc2l6ZT0iMTQiIGxlbmd0aEFkanVzdD0ic3BhY2luZyIgdGV4dExlbmd0aD0iMzUiIHg9IjE0Ni41IiB5PSIzNTQuMjM0NCI+UmVkaXM8L3RleHQ+PC9nPjwhLS1lbnRpdHkgTWluSU8tLT48ZyBpZD0iZWxlbV9NaW5JTyI+PHJlY3QgZmlsbD0iI0YxRjFGMSIgaGVpZ2h0PSI0NC45ODQ0IiByeD0iMi41IiByeT0iMi41IiBzdHlsZT0ic3Ryb2tlOiMxODE4MTg7c3Ryb2tlLXdpZHRoOjAuNTsiIHdpZHRoPSI3NSIgeD0iMjQxLjUiIHk9IjMyMSIvPjxyZWN0IGZpbGw9IiNGMUYxRjEiIGhlaWdodD0iMTAiIHN0eWxlPSJzdHJva2U6IzE4MTgxODtzdHJva2Utd2lkdGg6MC41OyIgd2lkdGg9IjE1IiB4PSIyOTYuNSIgeT0iMzI2Ii8+PHJlY3QgZmlsbD0iI0YxRjFGMSIgaGVpZ2h0PSIyIiBzdHlsZT0ic3Ryb2tlOiMxODE4MTg7c3Ryb2tlLXdpZHRoOjAuNTsiIHdpZHRoPSI0IiB4PSIyOTQuNSIgeT0iMzI4Ii8+PHJlY3QgZmlsbD0iI0YxRjFGMSIgaGVpZ2h0PSIyIiBzdHlsZT0ic3Ryb2tlOiMxODE4MTg7c3Ryb2tlLXdpZHRoOjAuNTsiIHdpZHRoPSI0IiB4PSIyOTQuNSIgeT0iMzMyIi8+PHRleHQgZmlsbD0iIzAwMDAwMCIgZm9udC1mYW1pbHk9InNhbnMtc2VyaWYiIGZvbnQtc2l6ZT0iMTQiIGxlbmd0aEFkanVzdD0ic3BhY2luZyIgdGV4dExlbmd0aD0iMzUiIHg9IjI1Ni41IiB5PSIzNTQuMjM0NCI+TWluSU88L3RleHQ+PC9nPjwhLS1saW5rIG11c2ljLXdlYnNpdGUuamFyIHRvIG11c2ljLXNlcnZlci5qYXItLT48ZyBpZD0ibGlua19tdXNpYy13ZWJzaXRlLmphcl9tdXNpYy1zZXJ2ZXIuamFyIj48cGF0aCBkPSJNMTI3LjY2LDg0LjIyIEMxMzYuODYsMTEwLjMzIDE1MC4yMjUxLDE0OC4yMzEzIDE1OS40MDUxLDE3NC4yNzEzICIgZmlsbD0ibm9uZSIgaWQ9Im11c2ljLXdlYnNpdGUuamFyLXRvLW11c2ljLXNlcnZlci5qYXIiIHN0eWxlPSJzdHJva2U6IzE4MTgxODtzdHJva2Utd2lkdGg6MS4wOyIvPjxwb2x5Z29uIGZpbGw9IiMxODE4MTgiIHBvaW50cz0iMTYxLjQsMTc5LjkzLDE2Mi4xODAxLDE3MC4xMTIxLDE1OS43Mzc2LDE3NS4yMTQ0LDE1NC42MzUyLDE3Mi43NzE5LDE2MS40LDE3OS45MyIgc3R5bGU9InN0cm9rZTojMTgxODE4O3N0cm9rZS13aWR0aDoxLjA7Ii8+PHRleHQgZmlsbD0iIzAwMDAwMCIgZm9udC1mYW1pbHk9InNhbnMtc2VyaWYiIGZvbnQtc2l6ZT0iMTMiIGxlbmd0aEFkanVzdD0ic3BhY2luZyIgdGV4dExlbmd0aD0iMTA1IiB4PSIxNDQiIHk9IjEyOS4yODkxIj4mIzM2ODkwOyYjMzY4MDc7SFRUUCBBUEkmIzIwMTMyOyYjMjAxMTQ7PC90ZXh0PjwvZz48IS0tbGluayBtdXNpYy1tYW5hZ2UuamFyIHRvIG11c2ljLXNlcnZlci5qYXItLT48ZyBpZD0ibGlua19tdXNpYy1tYW5hZ2UuamFyX211c2ljLXNlcnZlci5qYXIiPjxwYXRoIGQ9Ik0zMTAuNzIsODQuMTggQzI5NS44NSw5Ny44NiAyNzYuMDQsMTE1Ljc1IDI1OCwxMzEgQzIzOC4xMywxNDcuOCAyMTkuODMwNywxNjIuMzQyMyAyMDIuMTcwNywxNzYuMDQyMyAiIGZpbGw9Im5vbmUiIGlkPSJtdXNpYy1tYW5hZ2UuamFyLXRvLW11c2ljLXNlcnZlci5qYXIiIHN0eWxlPSJzdHJva2U6IzE4MTgxODtzdHJva2Utd2lkdGg6MS4wOyIvPjxwb2x5Z29uIGZpbGw9IiMxODE4MTgiIHBvaW50cz0iMTk3LjQzLDE3OS43MiwyMDYuOTkyOSwxNzcuMzYzOSwyMDEuMzgwNiwxNzYuNjU1MywyMDIuMDg5MywxNzEuMDQzLDE5Ny40MywxNzkuNzIiIHN0eWxlPSJzdHJva2U6IzE4MTgxODtzdHJva2Utd2lkdGg6MS4wOyIvPjx0ZXh0IGZpbGw9IiMwMDAwMDAiIGZvbnQtZmFtaWx5PSJzYW5zLXNlcmlmIiBmb250LXNpemU9IjEzIiBsZW5ndGhBZGp1c3Q9InNwYWNpbmciIHRleHRMZW5ndGg9IjEwNSIgeD0iMjc1IiB5PSIxMjkuMjg5MSI+JiMzNjg5MDsmIzM2ODA3O0hUVFAgQVBJJiMyMDEzMjsmIzIwMTE0OzwvdGV4dD48L2c+PCEtLWxpbmsgbXVzaWMtc2VydmVyLmphciB0byBNeVNRTC0tPjxnIGlkPSJsaW5rX211c2ljLXNlcnZlci5qYXJfTXlTUUwiPjxwYXRoIGQ9Ik0xMzAuMDcsMjI1LjE4IEMxMTcuMjcsMjMzLjc3IDEwMy44MywyNDQuNTkgOTQsMjU3IEM3OC45NiwyNzUuOTkgNzEuMTM1NCwyOTYuNTUgNjUuODg1NCwzMTQuOTYgIiBmaWxsPSJub25lIiBpZD0ibXVzaWMtc2VydmVyLmphci10by1NeVNRTCIgc3R5bGU9InN0cm9rZTojMTgxODE4O3N0cm9rZS13aWR0aDoxLjA7Ii8+PHBvbHlnb24gZmlsbD0iIzE4MTgxOCIgcG9pbnRzPSI2NC4yNCwzMjAuNzMsNzAuNTU0OCwzMTMuMTcyLDY1LjYxMTIsMzE1LjkyMTcsNjIuODYxNSwzMTAuOTc4MSw2NC4yNCwzMjAuNzMiIHN0eWxlPSJzdHJva2U6IzE4MTgxODtzdHJva2Utd2lkdGg6MS4wOyIvPjx0ZXh0IGZpbGw9IiMwMDAwMDAiIGZvbnQtZmFtaWx5PSJzYW5zLXNlcmlmIiBmb250LXNpemU9IjEzIiBsZW5ndGhBZGp1c3Q9InNwYWNpbmciIHRleHRMZW5ndGg9IjY1IiB4PSI5NSIgeT0iMjcwLjI4OTEiPiYjMzU3NzU7JiMzODM4MjsmIzI1OTY4OyYjMjU0NTQ7JiMyNDIxMTs8L3RleHQ+PC9nPjwhLS1saW5rIG11c2ljLXNlcnZlci5qYXIgdG8gUmVkaXMtLT48ZyBpZD0ibGlua19tdXNpYy1zZXJ2ZXIuamFyX1JlZGlzIj48cGF0aCBkPSJNMTY5LDIyNS4yMiBDMTY5LDI1MS4zMyAxNjksMjg4Ljg5IDE2OSwzMTQuOTMgIiBmaWxsPSJub25lIiBpZD0ibXVzaWMtc2VydmVyLmphci10by1SZWRpcyIgc3R5bGU9InN0cm9rZTojMTgxODE4O3N0cm9rZS13aWR0aDoxLjA7Ii8+PHBvbHlnb24gZmlsbD0iIzE4MTgxOCIgcG9pbnRzPSIxNjksMzIwLjkzLDE3MywzMTEuOTMsMTY5LDMxNS45MywxNjUsMzExLjkzLDE2OSwzMjAuOTMiIHN0eWxlPSJzdHJva2U6IzE4MTgxODtzdHJva2Utd2lkdGg6MS4wOyIvPjx0ZXh0IGZpbGw9IiMwMDAwMDAiIGZvbnQtZmFtaWx5PSJzYW5zLXNlcmlmIiBmb250LXNpemU9IjEzIiBsZW5ndGhBZGp1c3Q9InNwYWNpbmciIHRleHRMZW5ndGg9IjUyIiB4PSIxNzAiIHk9IjI3MC4yODkxIj4mIzIwMzUxOyYjMjk5OTI7JiMzMjUzMTsmIzIzMzg0OzwvdGV4dD48L2c+PCEtLWxpbmsgbXVzaWMtc2VydmVyLmphciB0byBNaW5JTy0tPjxnIGlkPSJsaW5rX211c2ljLXNlcnZlci5qYXJfTWluSU8iPjxwYXRoIGQ9Ik0xOTguMDksMjI1LjA2IEMyMDkuMTksMjM0LjE1IDIyMS40NiwyNDUuMzMgMjMxLDI1NyBDMjQ3LjE2LDI3Ni43NyAyNTguMjg5OSwyOTcuMzA4MyAyNjYuODY5OSwzMTUuNDA4MyAiIGZpbGw9Im5vbmUiIGlkPSJtdXNpYy1zZXJ2ZXIuamFyLXRvLU1pbklPIiBzdHlsZT0ic3Ryb2tlOiMxODE4MTg7c3Ryb2tlLXdpZHRoOjEuMDsiLz48cG9seWdvbiBmaWxsPSIjMTgxODE4IiBwb2ludHM9IjI2OS40NCwzMjAuODMsMjY5LjE5OTQsMzEwLjk4NDEsMjY3LjI5ODMsMzE2LjMxMTksMjYxLjk3MDQsMzE0LjQxMDgsMjY5LjQ0LDMyMC44MyIgc3R5bGU9InN0cm9rZTojMTgxODE4O3N0cm9rZS13aWR0aDoxLjA7Ii8+PHRleHQgZmlsbD0iIzAwMDAwMCIgZm9udC1mYW1pbHk9InNhbnMtc2VyaWYiIGZvbnQtc2l6ZT0iMTMiIGxlbmd0aEFkanVzdD0ic3BhY2luZyIgdGV4dExlbmd0aD0iOTEiIHg9IjI0MSIgeT0iMjcwLjI4OTEiPiYjMjMzODQ7JiMyMDY0ODsmIzIxNjQ0OyYjMzU3NzU7JiMzODM4MjsmIzI1OTkxOyYjMjAyMTQ7PC90ZXh0PjwvZz48IS0tU1JDPVtBcVhDcGF2Q0pyTEdVaGZrcVJFRXhTek5oclRJZ0VQSTA4QmV0REJZcDZKVHlqSWF1aW9JTEJzaW5BOU9oYmVraFdBT1hrVmg1WndWcThRZjhKU24zb1lGZ1Z4UGREd2ROR2luckhVZDVmTWI1YzVIRnROM2l6dnJKdFREWGdsdGhHbUV6OGM1aThESUtwQUJlTXBWcDNuRlZ4MWNCNnZNcURNcm1zQUxXZk4yb3VQUEJfUXRVdUk0MTJXdTFkVy1zUk5hb1F2OU45WVU4Q3kwUDlMVzBvMkUxLWZ3aU14X28tZGh1QngzZ0c3WUd3MjY5dGx0RnYtb3VsY1VvS19OcGkxakYzV0NXQWcxWWZ1c2hOV3dnR1RncHhKczl4a3QwRzAwXS0tPjwvZz48L3N2Zz4=;" parent="1" vertex="1">
            <mxGeometry x="40" y="2470" width="434" height="389" as="geometry" />
          </mxCell>
        </UserObject>
        <UserObject label="" plantUmlData="{&quot;data&quot;:&quot;@startuml\nnode \&quot;Web服务器\&quot; {\n    artifact \&quot;music-client.jar\&quot; \n}\n\nnode \&quot;应用服务器\&quot; {\n    artifact \&quot;music-server.jar\&quot;\n}\n\nnode \&quot;数据库服务器\&quot; {\n    artifact \&quot;MySQL\&quot;\n    artifact \&quot;Redis\&quot;\n}\n\nnode \&quot;文件服务器\&quot; {\n    artifact \&quot;MinIO\&quot;\n}\n\nnode \&quot;局域网\&quot; {\n    artifact \&quot;music-manage.jar\&quot;\n}\n\n\&quot;music-client.jar\&quot; --&gt; \&quot;music-server.jar\&quot; : 提供静态资源访问\n\&quot;music-server.jar\&quot; --&gt; \&quot;MySQL\&quot; : 存储用户、歌曲、歌单等信息\n\&quot;music-server.jar\&quot; --&gt; \&quot;Redis\&quot; : 存储验证码等\n\&quot;music-server.jar\&quot; --&gt; \&quot;MinIO\&quot; : 存储歌曲文件、歌手头像等\n\&quot;music-manage.jar\&quot; --&gt; \&quot;music-server.jar\&quot; : 通过局域网与服务端交互\n@enduml\n&quot;,&quot;format&quot;:&quot;svg&quot;}" id="4L9ICEicornQjW7cZm7l-31">
          <mxCell style="shape=image;noLabel=1;verticalAlign=top;aspect=fixed;imageAspect=0;image=data:image/svg+xml,PD94bWwgdmVyc2lvbj0iMS4wIiBlbmNvZGluZz0idXMtYXNjaWkiIHN0YW5kYWxvbmU9Im5vIj8+PHN2ZyB4bWxucz0iaHR0cDovL3d3dy53My5vcmcvMjAwMC9zdmciIHhtbG5zOnhsaW5rPSJodHRwOi8vd3d3LnczLm9yZy8xOTk5L3hsaW5rIiBjb250ZW50U3R5bGVUeXBlPSJ0ZXh0L2NzcyIgaGVpZ2h0PSIzOTNweCIgcHJlc2VydmVBc3BlY3RSYXRpbz0ibm9uZSIgc3R5bGU9IndpZHRoOjQ2OXB4O2hlaWdodDozOTNweDtiYWNrZ3JvdW5kOiNGRkZGRkY7IiB2ZXJzaW9uPSIxLjEiIHZpZXdCb3g9IjAgMCA0NjkgMzkzIiB3aWR0aD0iNDY5cHgiIHpvb21BbmRQYW49Im1hZ25pZnkiPjxkZWZzLz48Zz48IS0tY2x1c3RlciBXZWI/Pz8tLT48ZyBpZD0iY2x1c3Rlcl9XZWImIzI2MzgxOyYjMjExNTM7JiMyMjEyMDsiPjxwb2x5Z29uIGZpbGw9Im5vbmUiIHBvaW50cz0iNDYuOSwxNiw1Ni45LDYsMjIyLjksNiwyMjIuOSw4OCwyMTIuOSw5OCw0Ni45LDk4LDQ2LjksMTYiIHN0eWxlPSJzdHJva2U6IzE4MTgxODtzdHJva2Utd2lkdGg6MS4wOyIvPjxsaW5lIHN0eWxlPSJzdHJva2U6IzE4MTgxODtzdHJva2Utd2lkdGg6MS4wOyIgeDE9IjIxMi45IiB4Mj0iMjIyLjkiIHkxPSIxNiIgeTI9IjYiLz48bGluZSBzdHlsZT0ic3Ryb2tlOiMxODE4MTg7c3Ryb2tlLXdpZHRoOjEuMDsiIHgxPSI0Ni45IiB4Mj0iMjEyLjkiIHkxPSIxNiIgeTI9IjE2Ii8+PGxpbmUgc3R5bGU9InN0cm9rZTojMTgxODE4O3N0cm9rZS13aWR0aDoxLjA7IiB4MT0iMjEyLjkiIHgyPSIyMTIuOSIgeTE9IjE2IiB5Mj0iOTgiLz48dGV4dCBmaWxsPSIjMDAwMDAwIiBmb250LWZhbWlseT0ic2Fucy1zZXJpZiIgZm9udC1zaXplPSIxNCIgZm9udC13ZWlnaHQ9ImJvbGQiIGxlbmd0aEFkanVzdD0ic3BhY2luZyIgdGV4dExlbmd0aD0iNjMiIHg9Ijk5LjQiIHk9IjMyLjIzNDQiPldlYiYjMjYzODE7JiMyMTE1MzsmIzIyMTIwOzwvdGV4dD48L2c+PCEtLWNsdXN0ZXIgPz8/Pz8tLT48ZyBpZD0iY2x1c3Rlcl8mIzI0MjEyOyYjMjk5OTI7JiMyNjM4MTsmIzIxMTUzOyYjMjIxMjA7Ij48cG9seWdvbiBmaWxsPSJub25lIiBwb2ludHM9IjEzMS45LDE1NSwxNDEuOSwxNDUsMzA3LjksMTQ1LDMwNy45LDIyNywyOTcuOSwyMzcsMTMxLjksMjM3LDEzMS45LDE1NSIgc3R5bGU9InN0cm9rZTojMTgxODE4O3N0cm9rZS13aWR0aDoxLjA7Ii8+PGxpbmUgc3R5bGU9InN0cm9rZTojMTgxODE4O3N0cm9rZS13aWR0aDoxLjA7IiB4MT0iMjk3LjkiIHgyPSIzMDcuOSIgeTE9IjE1NSIgeTI9IjE0NSIvPjxsaW5lIHN0eWxlPSJzdHJva2U6IzE4MTgxODtzdHJva2Utd2lkdGg6MS4wOyIgeDE9IjEzMS45IiB4Mj0iMjk3LjkiIHkxPSIxNTUiIHkyPSIxNTUiLz48bGluZSBzdHlsZT0ic3Ryb2tlOiMxODE4MTg7c3Ryb2tlLXdpZHRoOjEuMDsiIHgxPSIyOTcuOSIgeDI9IjI5Ny45IiB5MT0iMTU1IiB5Mj0iMjM3Ii8+PHRleHQgZmlsbD0iIzAwMDAwMCIgZm9udC1mYW1pbHk9InNhbnMtc2VyaWYiIGZvbnQtc2l6ZT0iMTQiIGZvbnQtd2VpZ2h0PSJib2xkIiBsZW5ndGhBZGp1c3Q9InNwYWNpbmciIHRleHRMZW5ndGg9IjcwIiB4PSIxODAuOSIgeT0iMTcxLjIzNDQiPiYjMjQyMTI7JiMyOTk5MjsmIzI2MzgxOyYjMjExNTM7JiMyMjEyMDs8L3RleHQ+PC9nPjwhLS1jbHVzdGVyID8/Pz8/Py0tPjxnIGlkPSJjbHVzdGVyXyYjMjU5Njg7JiMyNTQ1NDsmIzI0MjExOyYjMjYzODE7JiMyMTE1MzsmIzIyMTIwOyI+PHBvbHlnb24gZmlsbD0ibm9uZSIgcG9pbnRzPSIzNC45LDI5NCw0NC45LDI4NCwyMzIuOSwyODQsMjMyLjksMzY2LDIyMi45LDM3NiwzNC45LDM3NiwzNC45LDI5NCIgc3R5bGU9InN0cm9rZTojMTgxODE4O3N0cm9rZS13aWR0aDoxLjA7Ii8+PGxpbmUgc3R5bGU9InN0cm9rZTojMTgxODE4O3N0cm9rZS13aWR0aDoxLjA7IiB4MT0iMjIyLjkiIHgyPSIyMzIuOSIgeTE9IjI5NCIgeTI9IjI4NCIvPjxsaW5lIHN0eWxlPSJzdHJva2U6IzE4MTgxODtzdHJva2Utd2lkdGg6MS4wOyIgeDE9IjM0LjkiIHgyPSIyMjIuOSIgeTE9IjI5NCIgeTI9IjI5NCIvPjxsaW5lIHN0eWxlPSJzdHJva2U6IzE4MTgxODtzdHJva2Utd2lkdGg6MS4wOyIgeDE9IjIyMi45IiB4Mj0iMjIyLjkiIHkxPSIyOTQiIHkyPSIzNzYiLz48dGV4dCBmaWxsPSIjMDAwMDAwIiBmb250LWZhbWlseT0ic2Fucy1zZXJpZiIgZm9udC1zaXplPSIxNCIgZm9udC13ZWlnaHQ9ImJvbGQiIGxlbmd0aEFkanVzdD0ic3BhY2luZyIgdGV4dExlbmd0aD0iODQiIHg9Ijg3LjkiIHk9IjMxMC4yMzQ0Ij4mIzI1OTY4OyYjMjU0NTQ7JiMyNDIxMTsmIzI2MzgxOyYjMjExNTM7JiMyMjEyMDs8L3RleHQ+PC9nPjwhLS1jbHVzdGVyID8/Pz8/LS0+PGcgaWQ9ImNsdXN0ZXJfJiMyNTk5MTsmIzIwMjE0OyYjMjYzODE7JiMyMTE1MzsmIzIyMTIwOyI+PHBvbHlnb24gZmlsbD0ibm9uZSIgcG9pbnRzPSIyNjYuOSwyOTQsMjc2LjksMjg0LDQxMi45LDI4NCw0MTIuOSwzNjYsNDAyLjksMzc2LDI2Ni45LDM3NiwyNjYuOSwyOTQiIHN0eWxlPSJzdHJva2U6IzE4MTgxODtzdHJva2Utd2lkdGg6MS4wOyIvPjxsaW5lIHN0eWxlPSJzdHJva2U6IzE4MTgxODtzdHJva2Utd2lkdGg6MS4wOyIgeDE9IjQwMi45IiB4Mj0iNDEyLjkiIHkxPSIyOTQiIHkyPSIyODQiLz48bGluZSBzdHlsZT0ic3Ryb2tlOiMxODE4MTg7c3Ryb2tlLXdpZHRoOjEuMDsiIHgxPSIyNjYuOSIgeDI9IjQwMi45IiB5MT0iMjk0IiB5Mj0iMjk0Ii8+PGxpbmUgc3R5bGU9InN0cm9rZTojMTgxODE4O3N0cm9rZS13aWR0aDoxLjA7IiB4MT0iNDAyLjkiIHgyPSI0MDIuOSIgeTE9IjI5NCIgeTI9IjM3NiIvPjx0ZXh0IGZpbGw9IiMwMDAwMDAiIGZvbnQtZmFtaWx5PSJzYW5zLXNlcmlmIiBmb250LXNpemU9IjE0IiBmb250LXdlaWdodD0iYm9sZCIgbGVuZ3RoQWRqdXN0PSJzcGFjaW5nIiB0ZXh0TGVuZ3RoPSI3MCIgeD0iMzAwLjkiIHk9IjMxMC4yMzQ0Ij4mIzI1OTkxOyYjMjAyMTQ7JiMyNjM4MTsmIzIxMTUzOyYjMjIxMjA7PC90ZXh0PjwvZz48IS0tY2x1c3RlciA/Pz8tLT48ZyBpZD0iY2x1c3Rlcl8mIzIzNjE2OyYjMjI0OTU7JiMzMjU5MzsiPjxwb2x5Z29uIGZpbGw9Im5vbmUiIHBvaW50cz0iMjQ2LjksMTYsMjU2LjksNiw0MjIuOSw2LDQyMi45LDg4LDQxMi45LDk4LDI0Ni45LDk4LDI0Ni45LDE2IiBzdHlsZT0ic3Ryb2tlOiMxODE4MTg7c3Ryb2tlLXdpZHRoOjEuMDsiLz48bGluZSBzdHlsZT0ic3Ryb2tlOiMxODE4MTg7c3Ryb2tlLXdpZHRoOjEuMDsiIHgxPSI0MTIuOSIgeDI9IjQyMi45IiB5MT0iMTYiIHkyPSI2Ii8+PGxpbmUgc3R5bGU9InN0cm9rZTojMTgxODE4O3N0cm9rZS13aWR0aDoxLjA7IiB4MT0iMjQ2LjkiIHgyPSI0MTIuOSIgeTE9IjE2IiB5Mj0iMTYiLz48bGluZSBzdHlsZT0ic3Ryb2tlOiMxODE4MTg7c3Ryb2tlLXdpZHRoOjEuMDsiIHgxPSI0MTIuOSIgeDI9IjQxMi45IiB5MT0iMTYiIHkyPSI5OCIvPjx0ZXh0IGZpbGw9IiMwMDAwMDAiIGZvbnQtZmFtaWx5PSJzYW5zLXNlcmlmIiBmb250LXNpemU9IjE0IiBmb250LXdlaWdodD0iYm9sZCIgbGVuZ3RoQWRqdXN0PSJzcGFjaW5nIiB0ZXh0TGVuZ3RoPSI0MiIgeD0iMzA5LjkiIHk9IjMyLjIzNDQiPiYjMjM2MTY7JiMyMjQ5NTsmIzMyNTkzOzwvdGV4dD48L2c+PCEtLWVudGl0eSBtdXNpYy1jbGllbnQuamFyLS0+PGcgaWQ9ImVsZW1fbXVzaWMtY2xpZW50LmphciI+PHJlY3QgZmlsbD0iI0YxRjFGMSIgaGVpZ2h0PSIzNy45ODQ0IiByeD0iMi41IiByeT0iMi41IiBzdHlsZT0ic3Ryb2tlOiMxODE4MTg7c3Ryb2tlLXdpZHRoOjAuNTsiIHdpZHRoPSIxNDMiIHg9IjYzLjQiIHk9IjQ0Ii8+PHBvbHlnb24gZmlsbD0iI0YxRjFGMSIgcG9pbnRzPSIxODkuNCw0OSwxODkuNCw2MywyMDEuNCw2MywyMDEuNCw1NSwxOTUuNCw0OSwxODkuNCw0OSIgc3R5bGU9InN0cm9rZTojMTgxODE4O3N0cm9rZS13aWR0aDowLjU7Ii8+PGxpbmUgc3R5bGU9InN0cm9rZTojMTgxODE4O3N0cm9rZS13aWR0aDowLjU7IiB4MT0iMTk1LjQiIHgyPSIxOTUuNCIgeTE9IjQ5IiB5Mj0iNTUiLz48bGluZSBzdHlsZT0ic3Ryb2tlOiMxODE4MTg7c3Ryb2tlLXdpZHRoOjAuNTsiIHgxPSIyMDEuNCIgeDI9IjE5NS40IiB5MT0iNTUiIHkyPSI1NSIvPjx0ZXh0IGZpbGw9IiMwMDAwMDAiIGZvbnQtZmFtaWx5PSJzYW5zLXNlcmlmIiBmb250LXNpemU9IjE0IiBsZW5ndGhBZGp1c3Q9InNwYWNpbmciIHRleHRMZW5ndGg9IjExMyIgeD0iNzMuNCIgeT0iNzAuMjM0NCI+bXVzaWMtY2xpZW50LmphcjwvdGV4dD48L2c+PCEtLWVudGl0eSBtdXNpYy1zZXJ2ZXIuamFyLS0+PGcgaWQ9ImVsZW1fbXVzaWMtc2VydmVyLmphciI+PHJlY3QgZmlsbD0iI0YxRjFGMSIgaGVpZ2h0PSIzNy45ODQ0IiByeD0iMi41IiByeT0iMi41IiBzdHlsZT0ic3Ryb2tlOiMxODE4MTg7c3Ryb2tlLXdpZHRoOjAuNTsiIHdpZHRoPSIxNDMiIHg9IjE0OC40IiB5PSIxODMiLz48cG9seWdvbiBmaWxsPSIjRjFGMUYxIiBwb2ludHM9IjI3NC40LDE4OCwyNzQuNCwyMDIsMjg2LjQsMjAyLDI4Ni40LDE5NCwyODAuNCwxODgsMjc0LjQsMTg4IiBzdHlsZT0ic3Ryb2tlOiMxODE4MTg7c3Ryb2tlLXdpZHRoOjAuNTsiLz48bGluZSBzdHlsZT0ic3Ryb2tlOiMxODE4MTg7c3Ryb2tlLXdpZHRoOjAuNTsiIHgxPSIyODAuNCIgeDI9IjI4MC40IiB5MT0iMTg4IiB5Mj0iMTk0Ii8+PGxpbmUgc3R5bGU9InN0cm9rZTojMTgxODE4O3N0cm9rZS13aWR0aDowLjU7IiB4MT0iMjg2LjQiIHgyPSIyODAuNCIgeTE9IjE5NCIgeTI9IjE5NCIvPjx0ZXh0IGZpbGw9IiMwMDAwMDAiIGZvbnQtZmFtaWx5PSJzYW5zLXNlcmlmIiBmb250LXNpemU9IjE0IiBsZW5ndGhBZGp1c3Q9InNwYWNpbmciIHRleHRMZW5ndGg9IjExMyIgeD0iMTU4LjQiIHk9IjIwOS4yMzQ0Ij5tdXNpYy1zZXJ2ZXIuamFyPC90ZXh0PjwvZz48IS0tZW50aXR5IE15U1FMLS0+PGcgaWQ9ImVsZW1fTXlTUUwiPjxyZWN0IGZpbGw9IiNGMUYxRjEiIGhlaWdodD0iMzcuOTg0NCIgcng9IjIuNSIgcnk9IjIuNSIgc3R5bGU9InN0cm9rZTojMTgxODE4O3N0cm9rZS13aWR0aDowLjU7IiB3aWR0aD0iNjUiIHg9IjUxLjQiIHk9IjMyMiIvPjxwb2x5Z29uIGZpbGw9IiNGMUYxRjEiIHBvaW50cz0iOTkuNCwzMjcsOTkuNCwzNDEsMTExLjQsMzQxLDExMS40LDMzMywxMDUuNCwzMjcsOTkuNCwzMjciIHN0eWxlPSJzdHJva2U6IzE4MTgxODtzdHJva2Utd2lkdGg6MC41OyIvPjxsaW5lIHN0eWxlPSJzdHJva2U6IzE4MTgxODtzdHJva2Utd2lkdGg6MC41OyIgeDE9IjEwNS40IiB4Mj0iMTA1LjQiIHkxPSIzMjciIHkyPSIzMzMiLz48bGluZSBzdHlsZT0ic3Ryb2tlOiMxODE4MTg7c3Ryb2tlLXdpZHRoOjAuNTsiIHgxPSIxMTEuNCIgeDI9IjEwNS40IiB5MT0iMzMzIiB5Mj0iMzMzIi8+PHRleHQgZmlsbD0iIzAwMDAwMCIgZm9udC1mYW1pbHk9InNhbnMtc2VyaWYiIGZvbnQtc2l6ZT0iMTQiIGxlbmd0aEFkanVzdD0ic3BhY2luZyIgdGV4dExlbmd0aD0iMzUiIHg9IjYxLjQiIHk9IjM0OC4yMzQ0Ij5NeVNRTDwvdGV4dD48L2c+PCEtLWVudGl0eSBSZWRpcy0tPjxnIGlkPSJlbGVtX1JlZGlzIj48cmVjdCBmaWxsPSIjRjFGMUYxIiBoZWlnaHQ9IjM3Ljk4NDQiIHJ4PSIyLjUiIHJ5PSIyLjUiIHN0eWxlPSJzdHJva2U6IzE4MTgxODtzdHJva2Utd2lkdGg6MC41OyIgd2lkdGg9IjY1IiB4PSIxNTEuNCIgeT0iMzIyIi8+PHBvbHlnb24gZmlsbD0iI0YxRjFGMSIgcG9pbnRzPSIxOTkuNCwzMjcsMTk5LjQsMzQxLDIxMS40LDM0MSwyMTEuNCwzMzMsMjA1LjQsMzI3LDE5OS40LDMyNyIgc3R5bGU9InN0cm9rZTojMTgxODE4O3N0cm9rZS13aWR0aDowLjU7Ii8+PGxpbmUgc3R5bGU9InN0cm9rZTojMTgxODE4O3N0cm9rZS13aWR0aDowLjU7IiB4MT0iMjA1LjQiIHgyPSIyMDUuNCIgeTE9IjMyNyIgeTI9IjMzMyIvPjxsaW5lIHN0eWxlPSJzdHJva2U6IzE4MTgxODtzdHJva2Utd2lkdGg6MC41OyIgeDE9IjIxMS40IiB4Mj0iMjA1LjQiIHkxPSIzMzMiIHkyPSIzMzMiLz48dGV4dCBmaWxsPSIjMDAwMDAwIiBmb250LWZhbWlseT0ic2Fucy1zZXJpZiIgZm9udC1zaXplPSIxNCIgbGVuZ3RoQWRqdXN0PSJzcGFjaW5nIiB0ZXh0TGVuZ3RoPSIzNSIgeD0iMTYxLjQiIHk9IjM0OC4yMzQ0Ij5SZWRpczwvdGV4dD48L2c+PCEtLWVudGl0eSBNaW5JTy0tPjxnIGlkPSJlbGVtX01pbklPIj48cmVjdCBmaWxsPSIjRjFGMUYxIiBoZWlnaHQ9IjM3Ljk4NDQiIHJ4PSIyLjUiIHJ5PSIyLjUiIHN0eWxlPSJzdHJva2U6IzE4MTgxODtzdHJva2Utd2lkdGg6MC41OyIgd2lkdGg9IjY1IiB4PSIzMDcuNCIgeT0iMzIyIi8+PHBvbHlnb24gZmlsbD0iI0YxRjFGMSIgcG9pbnRzPSIzNTUuNCwzMjcsMzU1LjQsMzQxLDM2Ny40LDM0MSwzNjcuNCwzMzMsMzYxLjQsMzI3LDM1NS40LDMyNyIgc3R5bGU9InN0cm9rZTojMTgxODE4O3N0cm9rZS13aWR0aDowLjU7Ii8+PGxpbmUgc3R5bGU9InN0cm9rZTojMTgxODE4O3N0cm9rZS13aWR0aDowLjU7IiB4MT0iMzYxLjQiIHgyPSIzNjEuNCIgeTE9IjMyNyIgeTI9IjMzMyIvPjxsaW5lIHN0eWxlPSJzdHJva2U6IzE4MTgxODtzdHJva2Utd2lkdGg6MC41OyIgeDE9IjM2Ny40IiB4Mj0iMzYxLjQiIHkxPSIzMzMiIHkyPSIzMzMiLz48dGV4dCBmaWxsPSIjMDAwMDAwIiBmb250LWZhbWlseT0ic2Fucy1zZXJpZiIgZm9udC1zaXplPSIxNCIgbGVuZ3RoQWRqdXN0PSJzcGFjaW5nIiB0ZXh0TGVuZ3RoPSIzNSIgeD0iMzE3LjQiIHk9IjM0OC4yMzQ0Ij5NaW5JTzwvdGV4dD48L2c+PCEtLWVudGl0eSBtdXNpYy1tYW5hZ2UuamFyLS0+PGcgaWQ9ImVsZW1fbXVzaWMtbWFuYWdlLmphciI+PHJlY3QgZmlsbD0iI0YxRjFGMSIgaGVpZ2h0PSIzNy45ODQ0IiByeD0iMi41IiByeT0iMi41IiBzdHlsZT0ic3Ryb2tlOiMxODE4MTg7c3Ryb2tlLXdpZHRoOjAuNTsiIHdpZHRoPSIxNDQiIHg9IjI2Mi45IiB5PSI0NCIvPjxwb2x5Z29uIGZpbGw9IiNGMUYxRjEiIHBvaW50cz0iMzg5LjksNDksMzg5LjksNjMsNDAxLjksNjMsNDAxLjksNTUsMzk1LjksNDksMzg5LjksNDkiIHN0eWxlPSJzdHJva2U6IzE4MTgxODtzdHJva2Utd2lkdGg6MC41OyIvPjxsaW5lIHN0eWxlPSJzdHJva2U6IzE4MTgxODtzdHJva2Utd2lkdGg6MC41OyIgeDE9IjM5NS45IiB4Mj0iMzk1LjkiIHkxPSI0OSIgeTI9IjU1Ii8+PGxpbmUgc3R5bGU9InN0cm9rZTojMTgxODE4O3N0cm9rZS13aWR0aDowLjU7IiB4MT0iNDAxLjkiIHgyPSIzOTUuOSIgeTE9IjU1IiB5Mj0iNTUiLz48dGV4dCBmaWxsPSIjMDAwMDAwIiBmb250LWZhbWlseT0ic2Fucy1zZXJpZiIgZm9udC1zaXplPSIxNCIgbGVuZ3RoQWRqdXN0PSJzcGFjaW5nIiB0ZXh0TGVuZ3RoPSIxMTQiIHg9IjI3Mi45IiB5PSI3MC4yMzQ0Ij5tdXNpYy1tYW5hZ2UuamFyPC90ZXh0PjwvZz48IS0tbGluayBtdXNpYy1jbGllbnQuamFyIHRvIG11c2ljLXNlcnZlci5qYXItLT48ZyBpZD0ibGlua19tdXNpYy1jbGllbnQuamFyX211c2ljLXNlcnZlci5qYXIiPjxwYXRoIGQ9Ik0xNDQuNzcsODIuMTMgQzE1Mi4wNCw5NS4yOCAxNjIuMjksMTEzLjQyIDE3MS45LDEyOSBDMTgzLjQyLDE0Ny42NyAxOTQuMDE0LDE2My41MTM1IDIwMy45MTQsMTc3LjkzMzUgIiBmaWxsPSJub25lIiBpZD0ibXVzaWMtY2xpZW50Lmphci10by1tdXNpYy1zZXJ2ZXIuamFyIiBzdHlsZT0ic3Ryb2tlOiMxODE4MTg7c3Ryb2tlLXdpZHRoOjEuMDsiLz48cG9seWdvbiBmaWxsPSIjMTgxODE4IiBwb2ludHM9IjIwNy4zMSwxODIuODgsMjA1LjUxMzcsMTczLjE5NjMsMjA0LjQ4LDE3OC43NTgsMTk4LjkxODQsMTc3LjcyNDMsMjA3LjMxLDE4Mi44OCIgc3R5bGU9InN0cm9rZTojMTgxODE4O3N0cm9rZS13aWR0aDoxLjA7Ii8+PHRleHQgZmlsbD0iIzAwMDAwMCIgZm9udC1mYW1pbHk9InNhbnMtc2VyaWYiIGZvbnQtc2l6ZT0iMTMiIGxlbmd0aEFkanVzdD0ic3BhY2luZyIgdGV4dExlbmd0aD0iMTA0IiB4PSIxNzIuOSIgeT0iMTI3LjI4OTEiPiYjMjU1NTI7JiMyMDM3OTsmIzM4NzQ1OyYjMjQ1Nzc7JiMzNjE2NDsmIzI4MzA0OyYjMzU3NzU7JiMzODM4Mjs8L3RleHQ+PC9nPjwhLS1saW5rIG11c2ljLXNlcnZlci5qYXIgdG8gTXlTUUwtLT48ZyBpZD0ibGlua19tdXNpYy1zZXJ2ZXIuamFyX015U1FMIj48cGF0aCBkPSJNMTQ4LjMxLDIxMS45OSBDOTguODcsMjE5Ljg1IDM5LjMzLDIzMy4xNCAyMy45LDI1MyBDNiwyNzYuMDQgMjguNzE0NCwzMDAuMzc0NSA1Mi4xMTQ0LDMxOC4yNzQ1ICIgZmlsbD0ibm9uZSIgaWQ9Im11c2ljLXNlcnZlci5qYXItdG8tTXlTUUwiIHN0eWxlPSJzdHJva2U6IzE4MTgxODtzdHJva2Utd2lkdGg6MS4wOyIvPjxwb2x5Z29uIGZpbGw9IiMxODE4MTgiIHBvaW50cz0iNTYuODgsMzIxLjkyLDUyLjE2MiwzMTMuMjc0OCw1Mi45MDg3LDMxOC44ODIxLDQ3LjMwMTMsMzE5LjYyODksNTYuODgsMzIxLjkyIiBzdHlsZT0ic3Ryb2tlOiMxODE4MTg7c3Ryb2tlLXdpZHRoOjEuMDsiLz48dGV4dCBmaWxsPSIjMDAwMDAwIiBmb250LWZhbWlseT0ic2Fucy1zZXJpZiIgZm9udC1zaXplPSIxMyIgbGVuZ3RoQWRqdXN0PSJzcGFjaW5nIiB0ZXh0TGVuZ3RoPSIxNjkiIHg9IjI0LjkiIHk9IjI2Ni4yODkxIj4mIzIzMzg0OyYjMjA2NDg7JiMyOTk5MjsmIzI1MTQzOyYjMTIyODk7JiMyNzQ2ODsmIzI2MzU0OyYjMTIyODk7JiMyNzQ2ODsmIzIxMzMzOyYjMzE1NjE7JiMyMDQ0OTsmIzI0Njg3OzwvdGV4dD48L2c+PCEtLWxpbmsgbXVzaWMtc2VydmVyLmphciB0byBSZWRpcy0tPjxnIGlkPSJsaW5rX211c2ljLXNlcnZlci5qYXJfUmVkaXMiPjxwYXRoIGQ9Ik0yMTUuMTIsMjIxLjE5IEMyMDguMjMsMjQ3LjQgMTk3LjEyNTksMjg5LjY4NzMgMTkwLjIyNTksMzE1LjkyNzMgIiBmaWxsPSJub25lIiBpZD0ibXVzaWMtc2VydmVyLmphci10by1SZWRpcyIgc3R5bGU9InN0cm9rZTojMTgxODE4O3N0cm9rZS13aWR0aDoxLjA7Ii8+PHBvbHlnb24gZmlsbD0iIzE4MTgxOCIgcG9pbnRzPSIxODguNywzMjEuNzMsMTk0Ljg1NzMsMzE0LjA0MzEsMTg5Ljk3MTYsMzE2Ljg5NDQsMTg3LjEyMDMsMzEyLjAwODcsMTg4LjcsMzIxLjczIiBzdHlsZT0ic3Ryb2tlOiMxODE4MTg7c3Ryb2tlLXdpZHRoOjEuMDsiLz48dGV4dCBmaWxsPSIjMDAwMDAwIiBmb250LWZhbWlseT0ic2Fucy1zZXJpZiIgZm9udC1zaXplPSIxMyIgbGVuZ3RoQWRqdXN0PSJzcGFjaW5nIiB0ZXh0TGVuZ3RoPSI3OCIgeD0iMjA2LjkiIHk9IjI2Ni4yODkxIj4mIzIzMzg0OyYjMjA2NDg7JiMzOTU2NDsmIzM1Nzc3OyYjMzA3MjE7JiMzMTU2MTs8L3RleHQ+PC9nPjwhLS1saW5rIG11c2ljLXNlcnZlci5qYXIgdG8gTWluSU8tLT48ZyBpZD0ibGlua19tdXNpYy1zZXJ2ZXIuamFyX01pbklPIj48cGF0aCBkPSJNMjUzLjkxLDIyMS4wOCBDMjY3LjUyLDIyOS40OSAyODIuNjEsMjQwLjQyIDI5My45LDI1MyBDMzEyLjM5LDI3My42IDMyMy42OTM3LDI5Ny4zOTA0IDMzMS4xMjM3LDMxNi4xODA0ICIgZmlsbD0ibm9uZSIgaWQ9Im11c2ljLXNlcnZlci5qYXItdG8tTWluSU8iIHN0eWxlPSJzdHJva2U6IzE4MTgxODtzdHJva2Utd2lkdGg6MS4wOyIvPjxwb2x5Z29uIGZpbGw9IiMxODE4MTgiIHBvaW50cz0iMzMzLjMzLDMyMS43NiwzMzMuNzQwMywzMTEuOTE5NywzMzEuNDkxNCwzMTcuMTEwMywzMjYuMzAwOCwzMTQuODYxNCwzMzMuMzMsMzIxLjc2IiBzdHlsZT0ic3Ryb2tlOiMxODE4MTg7c3Ryb2tlLXdpZHRoOjEuMDsiLz48dGV4dCBmaWxsPSIjMDAwMDAwIiBmb250LWZhbWlseT0ic2Fucy1zZXJpZiIgZm9udC1zaXplPSIxMyIgbGVuZ3RoQWRqdXN0PSJzcGFjaW5nIiB0ZXh0TGVuZ3RoPSIxNTYiIHg9IjMwNS45IiB5PSIyNjYuMjg5MSI+JiMyMzM4NDsmIzIwNjQ4OyYjMjc0Njg7JiMyNjM1NDsmIzI1OTkxOyYjMjAyMTQ7JiMxMjI4OTsmIzI3NDY4OyYjMjUxNjM7JiMyMjgzNjsmIzIwNjg3OyYjMzE1NjE7PC90ZXh0PjwvZz48IS0tbGluayBtdXNpYy1tYW5hZ2UuamFyIHRvIG11c2ljLXNlcnZlci5qYXItLT48ZyBpZD0ibGlua19tdXNpYy1tYW5hZ2UuamFyX211c2ljLXNlcnZlci5qYXIiPjxwYXRoIGQ9Ik0zMjAuNDEsODIuMDQgQzMwOS44Myw5NS4xNCAyOTUuMDksMTEzLjI2IDI4MS45LDEyOSBDMjY2LjQzLDE0Ny40NiAyNTIuMzc3MSwxNjMuNzUyNCAyMzkuNzc3MSwxNzguMjQyNCAiIGZpbGw9Im5vbmUiIGlkPSJtdXNpYy1tYW5hZ2UuamFyLXRvLW11c2ljLXNlcnZlci5qYXIiIHN0eWxlPSJzdHJva2U6IzE4MTgxODtzdHJva2Utd2lkdGg6MS4wOyIvPjxwb2x5Z29uIGZpbGw9IiMxODE4MTgiIHBvaW50cz0iMjM1Ljg0LDE4Mi43NywyNDQuNzY0LDE3OC42MDMzLDIzOS4xMjA5LDE3OC45OTcsMjM4LjcyNzIsMTczLjM1MzgsMjM1Ljg0LDE4Mi43NyIgc3R5bGU9InN0cm9rZTojMTgxODE4O3N0cm9rZS13aWR0aDoxLjA7Ii8+PHRleHQgZmlsbD0iIzAwMDAwMCIgZm9udC1mYW1pbHk9InNhbnMtc2VyaWYiIGZvbnQtc2l6ZT0iMTMiIGxlbmd0aEFkanVzdD0ic3BhY2luZyIgdGV4dExlbmd0aD0iMTQzIiB4PSIyOTMuOSIgeT0iMTI3LjI4OTEiPiYjMzY4OTA7JiMzNjgwNzsmIzIzNjE2OyYjMjI0OTU7JiMzMjU5MzsmIzE5OTgyOyYjMjYzODE7JiMyMTE1MzsmIzMxNDcxOyYjMjAxMzI7JiMyMDExNDs8L3RleHQ+PC9nPjwhLS1TUkM9W295akZJTExHMmF6RFVaUWR6c2RObWdTcExvV2ZMN0NmMDQ1WUtLYmNNYzlvWU85SVJjYm5QaDlrU2F2Y1FidzlOYlBZYVA4MkxvcU5MbnZPdnpEVEt2dkZNSzVHU3Q1Z0tMYmc0TFdwR2stcGdIa1V6UXZ4a2Npbzdrcy1iUzYxRmFmZVdhNmZBUGQ1bzBQRFF0LW9VbmktS3BCcEZGc0hEM3BUc0YxcV9scGRVb1ZZU2N6a09idllVWWhTbExZMkc1Vk4zZWxkNUFtS2RsTEZVQjlsemlrdkN2eXJEQnhPc2w5aXJ1R053X1FfZEJ3RTJ1amdpMjRHQm05ckZicXh1c2RKMmIxbVRjbl90RDN1UjZ0Rml6Y1I4OG9kbExFVmgtcnlpZF9YaXlSckUwczIxMGxTZTlVaFVid2lSdG8tZTE2ZTR4VmJ1OTIxd3U3TzJHYkZnMUN3a3Z5a3NWQXFrSF85NUFKR21IcUVCbmpjbFRaVjNXX2Y5cGx3ODE3cVZGTnc5eGtNRkRhcjJHMDBdLS0+PC9nPjwvc3ZnPg==;" parent="1" vertex="1">
            <mxGeometry x="40" y="2922" width="469" height="393" as="geometry" />
          </mxCell>
        </UserObject>
        <UserObject label="" plantUmlData="{&#xa;  &quot;data&quot;: &quot;@startuml\nstart\n\nif (歌词数组不为空) then (是)\n  :索引i从0开始;\n  while (i小于歌词数组长度)\n    if (当前时间大于等于第i条歌词时间戳) then (是)\n      :索引j从0开始;\n      while (j小于歌词数组长度)\n        :将第j条歌词颜色设为黑色;\n        :将第j条歌词字体大小设为14px;\n        :j递增;\n      endwhile\n      :计算滚动位置;\n      :将第i条歌词颜色设为浅蓝色;\n      :将第i条歌词字体大小设为18px;\n    else (否)\n    endif\n    :i递增;\n  endwhile\nelse (否)  \nendif\n\nstop\n@enduml&quot;,&#xa;  &quot;format&quot;: &quot;svg&quot;&#xa;}" id="DV_XjikrCWBcZ8OONaR7-1">
          <mxCell style="shape=image;noLabel=1;verticalAlign=top;aspect=fixed;imageAspect=0;image=data:image/svg+xml,PD94bWwgdmVyc2lvbj0iMS4wIiBlbmNvZGluZz0idXMtYXNjaWkiIHN0YW5kYWxvbmU9Im5vIj8+PHN2ZyB4bWxucz0iaHR0cDovL3d3dy53My5vcmcvMjAwMC9zdmciIHhtbG5zOnhsaW5rPSJodHRwOi8vd3d3LnczLm9yZy8xOTk5L3hsaW5rIiBjb250ZW50U3R5bGVUeXBlPSJ0ZXh0L2NzcyIgaGVpZ2h0PSI4ODRweCIgcHJlc2VydmVBc3BlY3RSYXRpbz0ibm9uZSIgc3R5bGU9IndpZHRoOjMxNHB4O2hlaWdodDo4ODRweDtiYWNrZ3JvdW5kOiNGRkZGRkY7IiB2ZXJzaW9uPSIxLjEiIHZpZXdCb3g9IjAgMCAzMTQgODg0IiB3aWR0aD0iMzE0cHgiIHpvb21BbmRQYW49Im1hZ25pZnkiPjxkZWZzLz48Zz48ZWxsaXBzZSBjeD0iMTQ2IiBjeT0iMjAiIGZpbGw9IiMyMjIyMjIiIHJ4PSIxMCIgcnk9IjEwIiBzdHlsZT0ic3Ryb2tlOiMyMjIyMjI7c3Ryb2tlLXdpZHRoOjEuMDsiLz48cmVjdCBmaWxsPSIjRjFGMUYxIiBoZWlnaHQ9IjMyLjg0MzgiIHJ4PSIxMi41IiByeT0iMTIuNSIgc3R5bGU9InN0cm9rZTojMTgxODE4O3N0cm9rZS13aWR0aDowLjU7IiB3aWR0aD0iOTIiIHg9IjEwMCIgeT0iOTgiLz48dGV4dCBmaWxsPSIjMDAwMDAwIiBmb250LWZhbWlseT0ic2Fucy1zZXJpZiIgZm9udC1zaXplPSIxMiIgbGVuZ3RoQWRqdXN0PSJzcGFjaW5nIiB0ZXh0TGVuZ3RoPSI3MiIgeD0iMTEwIiB5PSIxMTkuMzQzOCI+JiMzMjAzNDsmIzI0MzQxO2kmIzIwMTc0OzAmIzI0MzIwOyYjMjI5ODc7PC90ZXh0PjxyZWN0IGZpbGw9IiNGMUYxRjEiIGhlaWdodD0iMzIuODQzOCIgcng9IjEyLjUiIHJ5PSIxMi41IiBzdHlsZT0ic3Ryb2tlOiMxODE4MTg7c3Ryb2tlLXdpZHRoOjAuNTsiIHdpZHRoPSI5MiIgeD0iMTAwIiB5PSIyNDIuODQzOCIvPjx0ZXh0IGZpbGw9IiMwMDAwMDAiIGZvbnQtZmFtaWx5PSJzYW5zLXNlcmlmIiBmb250LXNpemU9IjEyIiBsZW5ndGhBZGp1c3Q9InNwYWNpbmciIHRleHRMZW5ndGg9IjcyIiB4PSIxMTAiIHk9IjI2NC4xODc1Ij4mIzMyMDM0OyYjMjQzNDE7aiYjMjAxNzQ7MCYjMjQzMjA7JiMyMjk4Nzs8L3RleHQ+PHJlY3QgZmlsbD0iI0YxRjFGMSIgaGVpZ2h0PSIzMi44NDM4IiByeD0iMTIuNSIgcnk9IjEyLjUiIHN0eWxlPSJzdHJva2U6IzE4MTgxODtzdHJva2Utd2lkdGg6MC41OyIgd2lkdGg9IjE1OCIgeD0iNjciIHk9IjMzOS42ODc1Ii8+PHRleHQgZmlsbD0iIzAwMDAwMCIgZm9udC1mYW1pbHk9InNhbnMtc2VyaWYiIGZvbnQtc2l6ZT0iMTIiIGxlbmd0aEFkanVzdD0ic3BhY2luZyIgdGV4dExlbmd0aD0iMTM4IiB4PSI3NyIgeT0iMzYxLjAzMTMiPiYjMjM1NTg7JiMzMTUzMjtqJiMyNjQ2NTsmIzI3NDY4OyYjMzU3ODk7JiMzOTA2ODsmIzMzMzk0OyYjMzU3NzQ7JiMyMDAyNjsmIzQwNjU3OyYjMzMzOTQ7PC90ZXh0PjxyZWN0IGZpbGw9IiNGMUYxRjEiIGhlaWdodD0iMzIuODQzOCIgcng9IjEyLjUiIHJ5PSIxMi41IiBzdHlsZT0ic3Ryb2tlOiMxODE4MTg7c3Ryb2tlLXdpZHRoOjAuNTsiIHdpZHRoPSIxODQiIHg9IjU0IiB5PSIzOTIuNTMxMyIvPjx0ZXh0IGZpbGw9IiMwMDAwMDAiIGZvbnQtZmFtaWx5PSJzYW5zLXNlcmlmIiBmb250LXNpemU9IjEyIiBsZW5ndGhBZGp1c3Q9InNwYWNpbmciIHRleHRMZW5ndGg9IjE2NCIgeD0iNjQiIHk9IjQxMy44NzUiPiYjMjM1NTg7JiMzMTUzMjtqJiMyNjQ2NTsmIzI3NDY4OyYjMzU3ODk7JiMyMzM4MzsmIzIwMzA3OyYjMjI4MjM7JiMyMzU2NzsmIzM1Nzc0OyYjMjAwMjY7MTRweDwvdGV4dD48cmVjdCBmaWxsPSIjRjFGMUYxIiBoZWlnaHQ9IjMyLjg0MzgiIHJ4PSIxMi41IiByeT0iMTIuNSIgc3R5bGU9InN0cm9rZTojMTgxODE4O3N0cm9rZS13aWR0aDowLjU7IiB3aWR0aD0iNTAiIHg9IjEyMSIgeT0iNDUyLjk1MzEiLz48dGV4dCBmaWxsPSIjMDAwMDAwIiBmb250LWZhbWlseT0ic2Fucy1zZXJpZiIgZm9udC1zaXplPSIxMiIgbGVuZ3RoQWRqdXN0PSJzcGFjaW5nIiB0ZXh0TGVuZ3RoPSIzMCIgeD0iMTMxIiB5PSI0NzQuMjk2OSI+aiYjMzY4ODI7JiMyMjY4Njs8L3RleHQ+PHBvbHlnb24gZmlsbD0iI0YxRjFGMSIgcG9pbnRzPSI5OS41LDI5NS42ODc1LDE5Mi41LDI5NS42ODc1LDIwNC41LDMwNy42ODc1LDE5Mi41LDMxOS42ODc1LDk5LjUsMzE5LjY4NzUsODcuNSwzMDcuNjg3NSw5OS41LDI5NS42ODc1IiBzdHlsZT0ic3Ryb2tlOiMxODE4MTg7c3Ryb2tlLXdpZHRoOjAuNTsiLz48dGV4dCBmaWxsPSIjMDAwMDAwIiBmb250LWZhbWlseT0ic2Fucy1zZXJpZiIgZm9udC1zaXplPSIxMSIgbGVuZ3RoQWRqdXN0PSJzcGFjaW5nIiB0ZXh0TGVuZ3RoPSI5MyIgeD0iOTkuNSIgeT0iMzEyLjE5OTIiPmomIzIzNTY3OyYjMjAxMTA7JiMyNzQ2ODsmIzM1Nzg5OyYjMjU5Njg7JiMzMjQ1MjsmIzM4MjcxOyYjMjQyMzA7PC90ZXh0PjxyZWN0IGZpbGw9IiNGMUYxRjEiIGhlaWdodD0iMzIuODQzOCIgcng9IjEyLjUiIHJ5PSIxMi41IiBzdHlsZT0ic3Ryb2tlOiMxODE4MTg7c3Ryb2tlLXdpZHRoOjAuNTsiIHdpZHRoPSI5MiIgeD0iMTAwIiB5PSI1MjkuNzk2OSIvPjx0ZXh0IGZpbGw9IiMwMDAwMDAiIGZvbnQtZmFtaWx5PSJzYW5zLXNlcmlmIiBmb250LXNpemU9IjEyIiBsZW5ndGhBZGp1c3Q9InNwYWNpbmciIHRleHRMZW5ndGg9IjcyIiB4PSIxMTAiIHk9IjU1MS4xNDA2Ij4mIzM1NzQ1OyYjMzE2Mzk7JiMyODM3ODsmIzIxMTYwOyYjMjAzMDE7JiMzMjYyMjs8L3RleHQ+PHJlY3QgZmlsbD0iI0YxRjFGMSIgaGVpZ2h0PSIzMi44NDM4IiByeD0iMTIuNSIgcnk9IjEyLjUiIHN0eWxlPSJzdHJva2U6IzE4MTgxODtzdHJva2Utd2lkdGg6MC41OyIgd2lkdGg9IjE3MCIgeD0iNjEiIHk9IjU4Mi42NDA2Ii8+PHRleHQgZmlsbD0iIzAwMDAwMCIgZm9udC1mYW1pbHk9InNhbnMtc2VyaWYiIGZvbnQtc2l6ZT0iMTIiIGxlbmd0aEFkanVzdD0ic3BhY2luZyIgdGV4dExlbmd0aD0iMTUwIiB4PSI3MSIgeT0iNjAzLjk4NDQiPiYjMjM1NTg7JiMzMTUzMjtpJiMyNjQ2NTsmIzI3NDY4OyYjMzU3ODk7JiMzOTA2ODsmIzMzMzk0OyYjMzU3NzQ7JiMyMDAyNjsmIzI3OTczOyYjMzQwMTM7JiMzMzM5NDs8L3RleHQ+PHJlY3QgZmlsbD0iI0YxRjFGMSIgaGVpZ2h0PSIzMi44NDM4IiByeD0iMTIuNSIgcnk9IjEyLjUiIHN0eWxlPSJzdHJva2U6IzE4MTgxODtzdHJva2Utd2lkdGg6MC41OyIgd2lkdGg9IjE4NCIgeD0iNTQiIHk9IjYzNS40ODQ0Ii8+PHRleHQgZmlsbD0iIzAwMDAwMCIgZm9udC1mYW1pbHk9InNhbnMtc2VyaWYiIGZvbnQtc2l6ZT0iMTIiIGxlbmd0aEFkanVzdD0ic3BhY2luZyIgdGV4dExlbmd0aD0iMTY0IiB4PSI2NCIgeT0iNjU2LjgyODEiPiYjMjM1NTg7JiMzMTUzMjtpJiMyNjQ2NTsmIzI3NDY4OyYjMzU3ODk7JiMyMzM4MzsmIzIwMzA3OyYjMjI4MjM7JiMyMzU2NzsmIzM1Nzc0OyYjMjAwMjY7MThweDwvdGV4dD48cG9seWdvbiBmaWxsPSIjRjFGMUYxIiBwb2ludHM9IjYwLjUsMTk0Ljg0MzgsMjMxLjUsMTk0Ljg0MzgsMjQzLjUsMjA2Ljg0MzgsMjMxLjUsMjE4Ljg0MzgsNjAuNSwyMTguODQzOCw0OC41LDIwNi44NDM4LDYwLjUsMTk0Ljg0MzgiIHN0eWxlPSJzdHJva2U6IzE4MTgxODtzdHJva2Utd2lkdGg6MC41OyIvPjx0ZXh0IGZpbGw9IiMwMDAwMDAiIGZvbnQtZmFtaWx5PSJzYW5zLXNlcmlmIiBmb250LXNpemU9IjExIiBsZW5ndGhBZGp1c3Q9InNwYWNpbmciIHRleHRMZW5ndGg9IjExIiB4PSIxNTAiIHk9IjIyOS4yNDIyIj4mIzI2MTU5OzwvdGV4dD48dGV4dCBmaWxsPSIjMDAwMDAwIiBmb250LWZhbWlseT0ic2Fucy1zZXJpZiIgZm9udC1zaXplPSIxMSIgbGVuZ3RoQWRqdXN0PSJzcGFjaW5nIiB0ZXh0TGVuZ3RoPSIxNzEiIHg9IjYwLjUiIHk9IjIxMS4zNTU1Ij4mIzI0NDAzOyYjMjEwNjk7JiMyNjEwMjsmIzM4Mzg4OyYjMjI4MjM7JiMyMDExMDsmIzMxNTYxOyYjMjAxMTA7JiMzMTUzMjtpJiMyNjQ2NTsmIzI3NDY4OyYjMzU3ODk7JiMyNjEwMjsmIzM4Mzg4OyYjMjUxMzk7PC90ZXh0Pjx0ZXh0IGZpbGw9IiMwMDAwMDAiIGZvbnQtZmFtaWx5PSJzYW5zLXNlcmlmIiBmb250LXNpemU9IjExIiBsZW5ndGhBZGp1c3Q9InNwYWNpbmciIHRleHRMZW5ndGg9IjExIiB4PSIyNDMuNSIgeT0iMjA1LjQ2ODgiPiYjMjE1NDI7PC90ZXh0Pjxwb2x5Z29uIGZpbGw9IiNGMUYxRjEiIHBvaW50cz0iMTQ2LDY4OC4zMjgxLDE1OCw3MDAuMzI4MSwxNDYsNzEyLjMyODEsMTM0LDcwMC4zMjgxLDE0Niw2ODguMzI4MSIgc3R5bGU9InN0cm9rZTojMTgxODE4O3N0cm9rZS13aWR0aDowLjU7Ii8+PHJlY3QgZmlsbD0iI0YxRjFGMSIgaGVpZ2h0PSIzMi44NDM4IiByeD0iMTIuNSIgcnk9IjEyLjUiIHN0eWxlPSJzdHJva2U6IzE4MTgxODtzdHJva2Utd2lkdGg6MC41OyIgd2lkdGg9IjUwIiB4PSIxMjEiIHk9IjczMi4zMjgxIi8+PHRleHQgZmlsbD0iIzAwMDAwMCIgZm9udC1mYW1pbHk9InNhbnMtc2VyaWYiIGZvbnQtc2l6ZT0iMTIiIGxlbmd0aEFkanVzdD0ic3BhY2luZyIgdGV4dExlbmd0aD0iMzAiIHg9IjEzMSIgeT0iNzUzLjY3MTkiPmkmIzM2ODgyOyYjMjI2ODY7PC90ZXh0Pjxwb2x5Z29uIGZpbGw9IiNGMUYxRjEiIHBvaW50cz0iOTksMTUwLjg0MzgsMTkzLDE1MC44NDM4LDIwNSwxNjIuODQzOCwxOTMsMTc0Ljg0MzgsOTksMTc0Ljg0MzgsODcsMTYyLjg0MzgsOTksMTUwLjg0MzgiIHN0eWxlPSJzdHJva2U6IzE4MTgxODtzdHJva2Utd2lkdGg6MC41OyIvPjx0ZXh0IGZpbGw9IiMwMDAwMDAiIGZvbnQtZmFtaWx5PSJzYW5zLXNlcmlmIiBmb250LXNpemU9IjExIiBsZW5ndGhBZGp1c3Q9InNwYWNpbmciIHRleHRMZW5ndGg9Ijk0IiB4PSI5OSIgeT0iMTY3LjM1NTUiPmkmIzIzNTY3OyYjMjAxMTA7JiMyNzQ2ODsmIzM1Nzg5OyYjMjU5Njg7JiMzMjQ1MjsmIzM4MjcxOyYjMjQyMzA7PC90ZXh0Pjxwb2x5Z29uIGZpbGw9IiNGMUYxRjEiIHBvaW50cz0iMTA3LjUsNTAsMTg0LjUsNTAsMTk2LjUsNjIsMTg0LjUsNzQsMTA3LjUsNzQsOTUuNSw2MiwxMDcuNSw1MCIgc3R5bGU9InN0cm9rZTojMTgxODE4O3N0cm9rZS13aWR0aDowLjU7Ii8+PHRleHQgZmlsbD0iIzAwMDAwMCIgZm9udC1mYW1pbHk9InNhbnMtc2VyaWYiIGZvbnQtc2l6ZT0iMTEiIGxlbmd0aEFkanVzdD0ic3BhY2luZyIgdGV4dExlbmd0aD0iMTEiIHg9IjE1MCIgeT0iODQuMzk4NCI+JiMyNjE1OTs8L3RleHQ+PHRleHQgZmlsbD0iIzAwMDAwMCIgZm9udC1mYW1pbHk9InNhbnMtc2VyaWYiIGZvbnQtc2l6ZT0iMTEiIGxlbmd0aEFkanVzdD0ic3BhY2luZyIgdGV4dExlbmd0aD0iNzciIHg9IjEwNy41IiB5PSI2Ni41MTE3Ij4mIzI3NDY4OyYjMzU3ODk7JiMyNTk2ODsmIzMyNDUyOyYjMTk5ODE7JiMyMDAyNjsmIzMxMzU0OzwvdGV4dD48dGV4dCBmaWxsPSIjMDAwMDAwIiBmb250LWZhbWlseT0ic2Fucy1zZXJpZiIgZm9udC1zaXplPSIxMSIgbGVuZ3RoQWRqdXN0PSJzcGFjaW5nIiB0ZXh0TGVuZ3RoPSIxMSIgeD0iMTk2LjUiIHk9IjYwLjYyNSI+JiMyMTU0Mjs8L3RleHQ+PHBvbHlnb24gZmlsbD0iI0YxRjFGMSIgcG9pbnRzPSIxNDYsODA3LjE3MTksMTU4LDgxOS4xNzE5LDE0Niw4MzEuMTcxOSwxMzQsODE5LjE3MTksMTQ2LDgwNy4xNzE5IiBzdHlsZT0ic3Ryb2tlOiMxODE4MTg7c3Ryb2tlLXdpZHRoOjAuNTsiLz48ZWxsaXBzZSBjeD0iMTQ2IiBjeT0iODYyLjE3MTkiIGZpbGw9Im5vbmUiIHJ4PSIxMSIgcnk9IjExIiBzdHlsZT0ic3Ryb2tlOiMyMjIyMjI7c3Ryb2tlLXdpZHRoOjEuMDsiLz48ZWxsaXBzZSBjeD0iMTQ2IiBjeT0iODYyLjE3MTkiIGZpbGw9IiMyMjIyMjIiIHJ4PSI2IiByeT0iNiIgc3R5bGU9InN0cm9rZTojMjIyMjIyO3N0cm9rZS13aWR0aDoxLjA7Ii8+PGxpbmUgc3R5bGU9InN0cm9rZTojMTgxODE4O3N0cm9rZS13aWR0aDoxLjA7IiB4MT0iMTQ2IiB4Mj0iMTQ2IiB5MT0iMzcyLjUzMTMiIHkyPSIzOTIuNTMxMyIvPjxwb2x5Z29uIGZpbGw9IiMxODE4MTgiIHBvaW50cz0iMTQyLDM4Mi41MzEzLDE0NiwzOTIuNTMxMywxNTAsMzgyLjUzMTMsMTQ2LDM4Ni41MzEzIiBzdHlsZT0ic3Ryb2tlOiMxODE4MTg7c3Ryb2tlLXdpZHRoOjEuMDsiLz48bGluZSBzdHlsZT0ic3Ryb2tlOiMxODE4MTg7c3Ryb2tlLXdpZHRoOjEuMDsiIHgxPSIxNDYiIHgyPSIxNDYiIHkxPSI0MjUuMzc1IiB5Mj0iNDUyLjk1MzEiLz48cG9seWdvbiBmaWxsPSIjMTgxODE4IiBwb2ludHM9IjE0Miw0NDIuOTUzMSwxNDYsNDUyLjk1MzEsMTUwLDQ0Mi45NTMxLDE0Niw0NDYuOTUzMSIgc3R5bGU9InN0cm9rZTojMTgxODE4O3N0cm9rZS13aWR0aDoxLjA7Ii8+PGxpbmUgc3R5bGU9InN0cm9rZTojMTgxODE4O3N0cm9rZS13aWR0aDoxLjA7IiB4MT0iMTQ2IiB4Mj0iMTQ2IiB5MT0iMzE5LjY4NzUiIHkyPSIzMzkuNjg3NSIvPjxwb2x5Z29uIGZpbGw9IiMxODE4MTgiIHBvaW50cz0iMTQyLDMyOS42ODc1LDE0NiwzMzkuNjg3NSwxNTAsMzI5LjY4NzUsMTQ2LDMzMy42ODc1IiBzdHlsZT0ic3Ryb2tlOiMxODE4MTg7c3Ryb2tlLXdpZHRoOjEuMDsiLz48bGluZSBzdHlsZT0ic3Ryb2tlOiMxODE4MTg7c3Ryb2tlLXdpZHRoOjEuMDsiIHgxPSIxNDYiIHgyPSIxNDYiIHkxPSI0ODUuNzk2OSIgeTI9IjQ5Ny43OTY5Ii8+PGxpbmUgc3R5bGU9InN0cm9rZTojMTgxODE4O3N0cm9rZS13aWR0aDoxLjA7IiB4MT0iMTQ2IiB4Mj0iMjUwIiB5MT0iNDk3Ljc5NjkiIHkyPSI0OTcuNzk2OSIvPjxwb2x5Z29uIGZpbGw9IiMxODE4MTgiIHBvaW50cz0iMjQ2LDQwNi45NTMxLDI1MCwzOTYuOTUzMSwyNTQsNDA2Ljk1MzEsMjUwLDQwMi45NTMxIiBzdHlsZT0ic3Ryb2tlOiMxODE4MTg7c3Ryb2tlLXdpZHRoOjEuMDsiLz48bGluZSBzdHlsZT0ic3Ryb2tlOiMxODE4MTg7c3Ryb2tlLXdpZHRoOjEuMDsiIHgxPSIyNTAiIHgyPSIyNTAiIHkxPSIzMDcuNjg3NSIgeTI9IjQ5Ny43OTY5Ii8+PGxpbmUgc3R5bGU9InN0cm9rZTojMTgxODE4O3N0cm9rZS13aWR0aDoxLjA7IiB4MT0iMjUwIiB4Mj0iMjA0LjUiIHkxPSIzMDcuNjg3NSIgeTI9IjMwNy42ODc1Ii8+PHBvbHlnb24gZmlsbD0iIzE4MTgxOCIgcG9pbnRzPSIyMTQuNSwzMDMuNjg3NSwyMDQuNSwzMDcuNjg3NSwyMTQuNSwzMTEuNjg3NSwyMTAuNSwzMDcuNjg3NSIgc3R5bGU9InN0cm9rZTojMTgxODE4O3N0cm9rZS13aWR0aDoxLjA7Ii8+PGxpbmUgc3R5bGU9InN0cm9rZTojMTgxODE4O3N0cm9rZS13aWR0aDoxLjA7IiB4MT0iODcuNSIgeDI9IjQyIiB5MT0iMzA3LjY4NzUiIHkyPSIzMDcuNjg3NSIvPjxwb2x5Z29uIGZpbGw9IiMxODE4MTgiIHBvaW50cz0iMzgsMzkyLjk1MzEsNDIsNDAyLjk1MzEsNDYsMzkyLjk1MzEsNDIsMzk2Ljk1MzEiIHN0eWxlPSJzdHJva2U6IzE4MTgxODtzdHJva2Utd2lkdGg6MS4wOyIvPjxsaW5lIHN0eWxlPSJzdHJva2U6IzE4MTgxODtzdHJva2Utd2lkdGg6MS4wOyIgeDE9IjQyIiB4Mj0iNDIiIHkxPSIzMDcuNjg3NSIgeTI9IjUwOS43OTY5Ii8+PGxpbmUgc3R5bGU9InN0cm9rZTojMTgxODE4O3N0cm9rZS13aWR0aDoxLjA7IiB4MT0iNDIiIHgyPSIxNDYiIHkxPSI1MDkuNzk2OSIgeTI9IjUwOS43OTY5Ii8+PGxpbmUgc3R5bGU9InN0cm9rZTojMTgxODE4O3N0cm9rZS13aWR0aDoxLjA7IiB4MT0iMTQ2IiB4Mj0iMTQ2IiB5MT0iNTA5Ljc5NjkiIHkyPSI1MjkuNzk2OSIvPjxwb2x5Z29uIGZpbGw9IiMxODE4MTgiIHBvaW50cz0iMTQyLDUxOS43OTY5LDE0Niw1MjkuNzk2OSwxNTAsNTE5Ljc5NjksMTQ2LDUyMy43OTY5IiBzdHlsZT0ic3Ryb2tlOiMxODE4MTg7c3Ryb2tlLXdpZHRoOjEuMDsiLz48bGluZSBzdHlsZT0ic3Ryb2tlOiMxODE4MTg7c3Ryb2tlLXdpZHRoOjEuMDsiIHgxPSIxNDYiIHgyPSIxNDYiIHkxPSIyNzUuNjg3NSIgeTI9IjI5NS42ODc1Ii8+PHBvbHlnb24gZmlsbD0iIzE4MTgxOCIgcG9pbnRzPSIxNDIsMjg1LjY4NzUsMTQ2LDI5NS42ODc1LDE1MCwyODUuNjg3NSwxNDYsMjg5LjY4NzUiIHN0eWxlPSJzdHJva2U6IzE4MTgxODtzdHJva2Utd2lkdGg6MS4wOyIvPjxsaW5lIHN0eWxlPSJzdHJva2U6IzE4MTgxODtzdHJva2Utd2lkdGg6MS4wOyIgeDE9IjE0NiIgeDI9IjE0NiIgeTE9IjU2Mi42NDA2IiB5Mj0iNTgyLjY0MDYiLz48cG9seWdvbiBmaWxsPSIjMTgxODE4IiBwb2ludHM9IjE0Miw1NzIuNjQwNiwxNDYsNTgyLjY0MDYsMTUwLDU3Mi42NDA2LDE0Niw1NzYuNjQwNiIgc3R5bGU9InN0cm9rZTojMTgxODE4O3N0cm9rZS13aWR0aDoxLjA7Ii8+PGxpbmUgc3R5bGU9InN0cm9rZTojMTgxODE4O3N0cm9rZS13aWR0aDoxLjA7IiB4MT0iMTQ2IiB4Mj0iMTQ2IiB5MT0iNjE1LjQ4NDQiIHkyPSI2MzUuNDg0NCIvPjxwb2x5Z29uIGZpbGw9IiMxODE4MTgiIHBvaW50cz0iMTQyLDYyNS40ODQ0LDE0Niw2MzUuNDg0NCwxNTAsNjI1LjQ4NDQsMTQ2LDYyOS40ODQ0IiBzdHlsZT0ic3Ryb2tlOiMxODE4MTg7c3Ryb2tlLXdpZHRoOjEuMDsiLz48bGluZSBzdHlsZT0ic3Ryb2tlOiMxODE4MTg7c3Ryb2tlLXdpZHRoOjEuMDsiIHgxPSIxNDYiIHgyPSIxNDYiIHkxPSIyMTguODQzOCIgeTI9IjI0Mi44NDM4Ii8+PHBvbHlnb24gZmlsbD0iIzE4MTgxOCIgcG9pbnRzPSIxNDIsMjMyLjg0MzgsMTQ2LDI0Mi44NDM4LDE1MCwyMzIuODQzOCwxNDYsMjM2Ljg0MzgiIHN0eWxlPSJzdHJva2U6IzE4MTgxODtzdHJva2Utd2lkdGg6MS4wOyIvPjxsaW5lIHN0eWxlPSJzdHJva2U6IzE4MTgxODtzdHJva2Utd2lkdGg6MS4wOyIgeDE9IjI0My41IiB4Mj0iMjYwIiB5MT0iMjA2Ljg0MzgiIHkyPSIyMDYuODQzOCIvPjxwb2x5Z29uIGZpbGw9IiMxODE4MTgiIHBvaW50cz0iMjU2LDQ0Ny4zNzUsMjYwLDQ1Ny4zNzUsMjY0LDQ0Ny4zNzUsMjYwLDQ1MS4zNzUiIHN0eWxlPSJzdHJva2U6IzE4MTgxODtzdHJva2Utd2lkdGg6MS4wOyIvPjxsaW5lIHN0eWxlPSJzdHJva2U6IzE4MTgxODtzdHJva2Utd2lkdGg6MS4wOyIgeDE9IjI2MCIgeDI9IjI2MCIgeTE9IjIwNi44NDM4IiB5Mj0iNzAwLjMyODEiLz48bGluZSBzdHlsZT0ic3Ryb2tlOiMxODE4MTg7c3Ryb2tlLXdpZHRoOjEuMDsiIHgxPSIyNjAiIHgyPSIxNTgiIHkxPSI3MDAuMzI4MSIgeTI9IjcwMC4zMjgxIi8+PHBvbHlnb24gZmlsbD0iIzE4MTgxOCIgcG9pbnRzPSIxNjgsNjk2LjMyODEsMTU4LDcwMC4zMjgxLDE2OCw3MDQuMzI4MSwxNjQsNzAwLjMyODEiIHN0eWxlPSJzdHJva2U6IzE4MTgxODtzdHJva2Utd2lkdGg6MS4wOyIvPjxsaW5lIHN0eWxlPSJzdHJva2U6IzE4MTgxODtzdHJva2Utd2lkdGg6MS4wOyIgeDE9IjE0NiIgeDI9IjE0NiIgeTE9IjY2OC4zMjgxIiB5Mj0iNjg4LjMyODEiLz48cG9seWdvbiBmaWxsPSIjMTgxODE4IiBwb2ludHM9IjE0Miw2NzguMzI4MSwxNDYsNjg4LjMyODEsMTUwLDY3OC4zMjgxLDE0Niw2ODIuMzI4MSIgc3R5bGU9InN0cm9rZTojMTgxODE4O3N0cm9rZS13aWR0aDoxLjA7Ii8+PGxpbmUgc3R5bGU9InN0cm9rZTojMTgxODE4O3N0cm9rZS13aWR0aDoxLjA7IiB4MT0iMTQ2IiB4Mj0iMTQ2IiB5MT0iNzEyLjMyODEiIHkyPSI3MzIuMzI4MSIvPjxwb2x5Z29uIGZpbGw9IiMxODE4MTgiIHBvaW50cz0iMTQyLDcyMi4zMjgxLDE0Niw3MzIuMzI4MSwxNTAsNzIyLjMyODEsMTQ2LDcyNi4zMjgxIiBzdHlsZT0ic3Ryb2tlOiMxODE4MTg7c3Ryb2tlLXdpZHRoOjEuMDsiLz48bGluZSBzdHlsZT0ic3Ryb2tlOiMxODE4MTg7c3Ryb2tlLXdpZHRoOjEuMDsiIHgxPSIxNDYiIHgyPSIxNDYiIHkxPSIxNzQuODQzOCIgeTI9IjE5NC44NDM4Ii8+PHBvbHlnb24gZmlsbD0iIzE4MTgxOCIgcG9pbnRzPSIxNDIsMTg0Ljg0MzgsMTQ2LDE5NC44NDM4LDE1MCwxODQuODQzOCwxNDYsMTg4Ljg0MzgiIHN0eWxlPSJzdHJva2U6IzE4MTgxODtzdHJva2Utd2lkdGg6MS4wOyIvPjxsaW5lIHN0eWxlPSJzdHJva2U6IzE4MTgxODtzdHJva2Utd2lkdGg6MS4wOyIgeDE9IjE0NiIgeDI9IjE0NiIgeTE9Ijc2NS4xNzE5IiB5Mj0iNzc1LjE3MTkiLz48bGluZSBzdHlsZT0ic3Ryb2tlOiMxODE4MTg7c3Ryb2tlLXdpZHRoOjEuMDsiIHgxPSIxNDYiIHgyPSIyNzgiIHkxPSI3NzUuMTcxOSIgeTI9Ijc3NS4xNzE5Ii8+PHBvbHlnb24gZmlsbD0iIzE4MTgxOCIgcG9pbnRzPSIyNzQsNDg5LjI5NjksMjc4LDQ3OS4yOTY5LDI4Miw0ODkuMjk2OSwyNzgsNDg1LjI5NjkiIHN0eWxlPSJzdHJva2U6IzE4MTgxODtzdHJva2Utd2lkdGg6MS4wOyIvPjxsaW5lIHN0eWxlPSJzdHJva2U6IzE4MTgxODtzdHJva2Utd2lkdGg6MS4wOyIgeDE9IjI3OCIgeDI9IjI3OCIgeTE9IjE2Mi44NDM4IiB5Mj0iNzc1LjE3MTkiLz48bGluZSBzdHlsZT0ic3Ryb2tlOiMxODE4MTg7c3Ryb2tlLXdpZHRoOjEuMDsiIHgxPSIyNzgiIHgyPSIyMDUiIHkxPSIxNjIuODQzOCIgeTI9IjE2Mi44NDM4Ii8+PHBvbHlnb24gZmlsbD0iIzE4MTgxOCIgcG9pbnRzPSIyMTUsMTU4Ljg0MzgsMjA1LDE2Mi44NDM4LDIxNSwxNjYuODQzOCwyMTEsMTYyLjg0MzgiIHN0eWxlPSJzdHJva2U6IzE4MTgxODtzdHJva2Utd2lkdGg6MS4wOyIvPjxsaW5lIHN0eWxlPSJzdHJva2U6IzE4MTgxODtzdHJva2Utd2lkdGg6MS4wOyIgeDE9Ijg3IiB4Mj0iMjQiIHkxPSIxNjIuODQzOCIgeTI9IjE2Mi44NDM4Ii8+PHBvbHlnb24gZmlsbD0iIzE4MTgxOCIgcG9pbnRzPSIyMCw0NzUuMjk2OSwyNCw0ODUuMjk2OSwyOCw0NzUuMjk2OSwyNCw0NzkuMjk2OSIgc3R5bGU9InN0cm9rZTojMTgxODE4O3N0cm9rZS13aWR0aDoxLjA7Ii8+PGxpbmUgc3R5bGU9InN0cm9rZTojMTgxODE4O3N0cm9rZS13aWR0aDoxLjA7IiB4MT0iMjQiIHgyPSIyNCIgeTE9IjE2Mi44NDM4IiB5Mj0iNzg3LjE3MTkiLz48bGluZSBzdHlsZT0ic3Ryb2tlOiMxODE4MTg7c3Ryb2tlLXdpZHRoOjEuMDsiIHgxPSIyNCIgeDI9IjE0NiIgeTE9Ijc4Ny4xNzE5IiB5Mj0iNzg3LjE3MTkiLz48bGluZSBzdHlsZT0ic3Ryb2tlOiMxODE4MTg7c3Ryb2tlLXdpZHRoOjEuMDsiIHgxPSIxNDYiIHgyPSIxNDYiIHkxPSI3ODcuMTcxOSIgeTI9IjgwNy4xNzE5Ii8+PHBvbHlnb24gZmlsbD0iIzE4MTgxOCIgcG9pbnRzPSIxNDIsNzk3LjE3MTksMTQ2LDgwNy4xNzE5LDE1MCw3OTcuMTcxOSwxNDYsODAxLjE3MTkiIHN0eWxlPSJzdHJva2U6IzE4MTgxODtzdHJva2Utd2lkdGg6MS4wOyIvPjxsaW5lIHN0eWxlPSJzdHJva2U6IzE4MTgxODtzdHJva2Utd2lkdGg6MS4wOyIgeDE9IjE0NiIgeDI9IjE0NiIgeTE9IjEzMC44NDM4IiB5Mj0iMTUwLjg0MzgiLz48cG9seWdvbiBmaWxsPSIjMTgxODE4IiBwb2ludHM9IjE0MiwxNDAuODQzOCwxNDYsMTUwLjg0MzgsMTUwLDE0MC44NDM4LDE0NiwxNDQuODQzOCIgc3R5bGU9InN0cm9rZTojMTgxODE4O3N0cm9rZS13aWR0aDoxLjA7Ii8+PGxpbmUgc3R5bGU9InN0cm9rZTojMTgxODE4O3N0cm9rZS13aWR0aDoxLjA7IiB4MT0iMTQ2IiB4Mj0iMTQ2IiB5MT0iNzQiIHkyPSI5OCIvPjxwb2x5Z29uIGZpbGw9IiMxODE4MTgiIHBvaW50cz0iMTQyLDg4LDE0Niw5OCwxNTAsODgsMTQ2LDkyIiBzdHlsZT0ic3Ryb2tlOiMxODE4MTg7c3Ryb2tlLXdpZHRoOjEuMDsiLz48bGluZSBzdHlsZT0ic3Ryb2tlOiMxODE4MTg7c3Ryb2tlLXdpZHRoOjEuMDsiIHgxPSIxOTYuNSIgeDI9IjI4OCIgeTE9IjYyIiB5Mj0iNjIiLz48cG9seWdvbiBmaWxsPSIjMTgxODE4IiBwb2ludHM9IjI4NCw0MzUuMzc1LDI4OCw0NDUuMzc1LDI5Miw0MzUuMzc1LDI4OCw0MzkuMzc1IiBzdHlsZT0ic3Ryb2tlOiMxODE4MTg7c3Ryb2tlLXdpZHRoOjEuMDsiLz48bGluZSBzdHlsZT0ic3Ryb2tlOiMxODE4MTg7c3Ryb2tlLXdpZHRoOjEuMDsiIHgxPSIyODgiIHgyPSIyODgiIHkxPSI2MiIgeTI9IjgxOS4xNzE5Ii8+PGxpbmUgc3R5bGU9InN0cm9rZTojMTgxODE4O3N0cm9rZS13aWR0aDoxLjA7IiB4MT0iMjg4IiB4Mj0iMTU4IiB5MT0iODE5LjE3MTkiIHkyPSI4MTkuMTcxOSIvPjxwb2x5Z29uIGZpbGw9IiMxODE4MTgiIHBvaW50cz0iMTY4LDgxNS4xNzE5LDE1OCw4MTkuMTcxOSwxNjgsODIzLjE3MTksMTY0LDgxOS4xNzE5IiBzdHlsZT0ic3Ryb2tlOiMxODE4MTg7c3Ryb2tlLXdpZHRoOjEuMDsiLz48bGluZSBzdHlsZT0ic3Ryb2tlOiMxODE4MTg7c3Ryb2tlLXdpZHRoOjEuMDsiIHgxPSIxNDYiIHgyPSIxNDYiIHkxPSIzMCIgeTI9IjUwIi8+PHBvbHlnb24gZmlsbD0iIzE4MTgxOCIgcG9pbnRzPSIxNDIsNDAsMTQ2LDUwLDE1MCw0MCwxNDYsNDQiIHN0eWxlPSJzdHJva2U6IzE4MTgxODtzdHJva2Utd2lkdGg6MS4wOyIvPjxsaW5lIHN0eWxlPSJzdHJva2U6IzE4MTgxODtzdHJva2Utd2lkdGg6MS4wOyIgeDE9IjE0NiIgeDI9IjE0NiIgeTE9IjgzMS4xNzE5IiB5Mj0iODUxLjE3MTkiLz48cG9seWdvbiBmaWxsPSIjMTgxODE4IiBwb2ludHM9IjE0Miw4NDEuMTcxOSwxNDYsODUxLjE3MTksMTUwLDg0MS4xNzE5LDE0Niw4NDUuMTcxOSIgc3R5bGU9InN0cm9rZTojMTgxODE4O3N0cm9rZS13aWR0aDoxLjA7Ii8+PCEtLVNSQz1bVlAzRklpRDA0Q1JsVU9lempaUzUzejgtWk0xQUR2SFFKNDJGRlFXT0RWTEYySDZuR2FDbjJhcVFqNGY5NmRzUGRUdGlNeFlSOWN0S3dYb01QVVFSLU51cGtoNnBSb1dBUmcwQXpJX0lZS05qYUNMN1A2UUhNU0lVZW9lb2NjZlI1NnlkTEdNWDZma3dDQlNuWU5pUkNFLTJUcnVOc09DY1JnY2VXWTZ5OTU2bEY4VlJkbjB6b2F3NGYwU2FWSjBqd2hucFBtZVpKd1lQUnlmdEZDUHFDQ25SaXA4elZWclhCWUM3cUJ1M29DV1hqRnlYaVhhR2RXWDNSTWQ4dFZsS1Y0YzMzeDRwWndfNWxfd3Q2N283WTJyNmRaMVFqNm5rVEd2QjNIaGx0ZTN4SzZKS3pjdzZMWW9HMWFDTUUzSS1XeENkYWJXaTJHZmJSZU5OU2o2dHV4R19BQTd6S2d5MXNveDByOU9rUldETi1ISzQ0c3ZhbG5mVXFJdjlMc2c0YjhMTXFPc3pwWFMwXS0tPjwvZz48L3N2Zz4=;" vertex="1" parent="1">
            <mxGeometry x="610" y="2810" width="314" height="884" as="geometry" />
          </mxCell>
        </UserObject>
      </root>
    </mxGraphModel>
  </diagram>
</mxfile>
